<svg width="30" height="1016" viewBox="0 0 30 1016" fill="none" xmlns="http://www.w3.org/2000/svg">
<path d="M24 1015.78L4.792 1008.13L4.792 1005.16L24 997.492L24 999.872L18.932 1001.89L18.932 1011.52L24 1013.51L24 1015.78ZM17.028 1010.76L17.028 1002.64L10.616 1005.16C10.4667 1005.22 10.2427 1005.3 9.944 1005.42C9.64533 1005.53 9.30933 1005.66 8.936 1005.81C8.544 1005.94 8.152 1006.08 7.76 1006.23C7.368 1006.36 7.01333 1006.49 6.696 1006.62L6.696 1006.82C7.05067 1006.93 7.47067 1007.08 7.956 1007.26C8.44133 1007.43 8.92667 1007.61 9.412 1007.8C9.87867 1007.96 10.28 1008.11 10.616 1008.24L17.028 1010.76ZM24.336 988.674C24.336 989.682 24.1307 990.578 23.72 991.362C23.3093 992.127 22.684 992.771 21.844 993.294L21.844 993.49L24 993.714L24 995.31L3.756 995.31L3.756 993.294L11.176 993.294L11.176 993.098C10.6347 992.762 10.2053 992.36 9.888 991.894C9.552 991.427 9.30933 990.914 9.16 990.354C9.01066 989.794 8.936 989.215 8.936 988.618C8.936 987.442 9.20666 986.424 9.748 985.566C10.2893 984.688 11.12 984.016 12.24 983.55C13.3413 983.083 14.76 982.85 16.496 982.85C18.344 982.85 19.8467 983.083 21.004 983.55C22.1427 983.998 22.9827 984.66 23.524 985.538C24.0653 986.396 24.336 987.442 24.336 988.674ZM22.572 989.01C22.572 988.188 22.3947 987.479 22.04 986.882C21.6853 986.266 21.1067 985.79 20.304 985.454C19.4827 985.118 18.3813 984.95 17 984.95L16.3 984.95C14.9747 984.95 13.9013 985.108 13.08 985.426C12.2587 985.724 11.6613 986.191 11.288 986.826C10.896 987.442 10.7 988.216 10.7 989.15C10.7 989.654 10.784 990.158 10.952 990.662C11.1013 991.147 11.3813 991.586 11.792 991.978C12.2027 992.37 12.7813 992.687 13.528 992.93C14.2747 993.172 15.2267 993.294 16.384 993.294L16.888 993.294C18.1013 993.294 19.128 993.154 19.968 992.874C20.808 992.575 21.452 992.108 21.9 991.474C22.348 990.839 22.572 990.018 22.572 989.01ZM24.336 973.954C24.336 975.373 24.0653 976.586 23.524 977.594C22.964 978.584 22.1147 979.34 20.976 979.862C19.8373 980.366 18.3907 980.618 16.636 980.618C14.8627 980.618 13.416 980.366 12.296 979.862C11.1573 979.34 10.3173 978.584 9.776 977.594C9.216 976.586 8.936 975.373 8.936 973.954C8.936 972.498 9.216 971.285 9.776 970.314C10.3173 969.325 11.1573 968.578 12.296 968.074C13.416 967.552 14.8627 967.29 16.636 967.29C18.3907 967.29 19.8373 967.552 20.976 968.074C22.1147 968.578 22.964 969.325 23.524 970.314C24.0653 971.285 24.336 972.498 24.336 973.954ZM22.628 973.954C22.628 972.965 22.432 972.134 22.04 971.462C21.648 970.79 21.0413 970.277 20.22 969.922C19.38 969.568 18.2973 969.39 16.972 969.39L16.3 969.39C14.9747 969.39 13.9013 969.568 13.08 969.922C12.24 970.277 11.624 970.79 11.232 971.462C10.84 972.134 10.644 972.965 10.644 973.954C10.644 974.944 10.84 975.774 11.232 976.446C11.624 977.118 12.24 977.632 13.08 977.986C13.9013 978.341 14.9747 978.518 16.3 978.518L16.972 978.518C18.2973 978.518 19.38 978.341 20.22 977.986C21.0413 977.632 21.648 977.118 22.04 976.446C22.432 975.774 22.628 974.944 22.628 973.954ZM24.336 959.684C24.336 961.084 23.9813 962.213 23.272 963.072C22.5627 963.93 21.3213 964.36 19.548 964.36L9.272 964.36L9.272 962.344L19.352 962.344C20.0053 962.344 20.5373 962.26 20.948 962.092C21.3587 961.924 21.6853 961.69 21.928 961.392C22.152 961.093 22.3107 960.748 22.404 960.356C22.4973 959.945 22.544 959.506 22.544 959.04C22.544 958.293 22.3667 957.593 22.012 956.94C21.6387 956.268 21.116 955.726 20.444 955.316C19.7533 954.905 18.932 954.7 17.98 954.7L9.272 954.7L9.272 952.684L24 952.684L24 954.252L21.676 954.476L21.676 954.672C22.348 955.082 22.88 955.549 23.272 956.072C23.6453 956.576 23.916 957.136 24.084 957.752C24.252 958.349 24.336 958.993 24.336 959.684ZM24.308 945.495C24.308 946.167 24.1867 946.708 23.944 947.119C23.7013 947.511 23.3653 947.791 22.936 947.959C22.5067 948.108 22.0307 948.183 21.508 948.183L10.98 948.183L10.98 950.171L9.272 950.171L9.272 948.183L5.184 947.791L5.184 946.167L9.272 946.167L9.272 943.339L10.98 943.339L10.98 946.167L21.144 946.167C21.648 946.167 22.0213 946.102 22.264 945.971C22.5067 945.822 22.628 945.504 22.628 945.019L22.628 943.339L23.916 943.339C23.9907 943.526 24.056 943.75 24.112 944.011C24.1867 944.254 24.2333 944.506 24.252 944.767C24.2893 945.028 24.308 945.271 24.308 945.495Z" fill="#202124"/>
<path d="M12.4248 889.688C14.9773 889.253 17.644 890.825 19.8923 893.764C22.1379 896.699 23.95 900.981 24.7912 905.913C25.6324 910.845 25.3421 915.485 24.1966 918.999C23.0497 922.518 21.0548 924.884 18.5023 925.32C15.9498 925.755 13.2831 924.183 11.0348 921.244C8.78916 918.308 6.97706 914.027 6.13585 909.095C5.29463 904.163 5.58499 899.523 6.73051 896.009C7.87739 892.49 9.87231 890.124 12.4248 889.688Z" stroke="#FA8C4F" stroke-width="0.16847"/>
<path d="M17.6065 889.654C20.1761 889.973 22.2766 892.247 23.5823 895.709C24.8864 899.168 25.3875 903.79 24.7714 908.755C24.1553 913.72 22.5398 918.079 20.4299 921.114C18.3176 924.153 15.7251 925.844 13.1555 925.525C10.5858 925.206 8.48537 922.933 7.17969 919.47C5.87557 916.012 5.37452 911.39 5.9906 906.424C6.60668 901.459 8.22222 897.1 10.332 894.065C12.4444 891.027 15.0368 889.335 17.6065 889.654Z" stroke="#FA8C4F" stroke-width="0.16847"/>
<path d="M10.233 903.508L10.233 906.749L17.6364 909.892L10.233 913.462L10.233 916.226L10.6772 916.226L10.6772 914.91L19.66 914.91L19.66 916.226L20.1042 916.226L20.1042 912.902C19.83 912.968 19.682 913.116 19.66 913.347L19.66 914.219L13.1943 914.219L20.2359 910.681L20.2359 910.369L11.8124 906.749L19.66 906.749L19.66 908.066L20.1042 908.066L20.1042 903.508C19.83 903.574 19.682 903.722 19.66 903.952L19.66 904.824L10.6772 904.824L10.6772 903.508L10.233 903.508Z" fill="#FA8C4F"/>
<path d="M20.1045 903.356C19.8303 903.422 19.6822 903.57 19.6603 903.8L19.6603 904.672L15.7447 904.672L15.1688 904.031L20.1209 900.658L20.1045 897.779C19.8303 897.845 19.6822 897.993 19.6603 898.223L19.6603 898.47L13.8362 902.583L11.4178 899.934C10.99 899.484 10.7542 899.144 10.7103 898.914C10.6884 898.826 10.6774 898.744 10.6774 898.667C10.5897 898.393 10.4416 898.245 10.2332 898.223L10.2332 901.25L10.6774 901.25L10.6774 899.934L14.9879 904.672L10.6774 904.672L10.6774 903.356L10.2332 903.356L10.2332 908.012L10.6774 908.012L10.6774 906.696L19.6603 906.696L19.6603 908.012L20.1045 908.012L20.1045 903.356Z" fill="#FA8C4F"/>
<path d="M24 867.776L4.792 860.132L4.792 857.164L24 849.492L24 851.872L18.932 853.888L18.932 863.52L24 865.508L24 867.776ZM17.028 862.764L17.028 854.644L10.616 857.164C10.4667 857.22 10.2427 857.304 9.944 857.416C9.64533 857.528 9.30933 857.659 8.936 857.808C8.544 857.939 8.152 858.079 7.76 858.228C7.368 858.359 7.01333 858.489 6.696 858.62L6.696 858.816C7.05067 858.928 7.47067 859.077 7.956 859.264C8.44133 859.432 8.92667 859.609 9.412 859.796C9.87867 859.964 10.28 860.113 10.616 860.244L17.028 862.764ZM24.336 840.674C24.336 841.682 24.1307 842.578 23.72 843.362C23.3093 844.127 22.684 844.771 21.844 845.294L21.844 845.49L24 845.714L24 847.31L3.756 847.31L3.756 845.294L11.176 845.294L11.176 845.098C10.6347 844.762 10.2053 844.36 9.888 843.894C9.552 843.427 9.30933 842.914 9.16 842.354C9.01066 841.794 8.936 841.215 8.936 840.618C8.936 839.442 9.20666 838.424 9.748 837.566C10.2893 836.688 11.12 836.016 12.24 835.55C13.3413 835.083 14.76 834.85 16.496 834.85C18.344 834.85 19.8467 835.083 21.004 835.55C22.1427 835.998 22.9827 836.66 23.524 837.538C24.0653 838.396 24.336 839.442 24.336 840.674ZM22.572 841.01C22.572 840.188 22.3947 839.479 22.04 838.882C21.6853 838.266 21.1067 837.79 20.304 837.454C19.4827 837.118 18.3813 836.95 17 836.95L16.3 836.95C14.9747 836.95 13.9013 837.108 13.08 837.426C12.2587 837.724 11.6613 838.191 11.288 838.826C10.896 839.442 10.7 840.216 10.7 841.15C10.7 841.654 10.784 842.158 10.952 842.662C11.1013 843.147 11.3813 843.586 11.792 843.978C12.2027 844.37 12.7813 844.687 13.528 844.93C14.2747 845.172 15.2267 845.294 16.384 845.294L16.888 845.294C18.1013 845.294 19.128 845.154 19.968 844.874C20.808 844.575 21.452 844.108 21.9 843.474C22.348 842.839 22.572 842.018 22.572 841.01ZM24.336 825.954C24.336 827.373 24.0653 828.586 23.524 829.594C22.964 830.584 22.1147 831.34 20.976 831.862C19.8373 832.366 18.3907 832.618 16.636 832.618C14.8627 832.618 13.416 832.366 12.296 831.862C11.1573 831.34 10.3173 830.584 9.776 829.594C9.216 828.586 8.936 827.373 8.936 825.954C8.936 824.498 9.216 823.285 9.776 822.314C10.3173 821.325 11.1573 820.578 12.296 820.074C13.416 819.552 14.8627 819.29 16.636 819.29C18.3907 819.29 19.8373 819.552 20.976 820.074C22.1147 820.578 22.964 821.325 23.524 822.314C24.0653 823.285 24.336 824.498 24.336 825.954ZM22.628 825.954C22.628 824.965 22.432 824.134 22.04 823.462C21.648 822.79 21.0413 822.277 20.22 821.922C19.38 821.568 18.2973 821.39 16.972 821.39L16.3 821.39C14.9747 821.39 13.9013 821.568 13.08 821.922C12.24 822.277 11.624 822.79 11.232 823.462C10.84 824.134 10.644 824.965 10.644 825.954C10.644 826.944 10.84 827.774 11.232 828.446C11.624 829.118 12.24 829.632 13.08 829.986C13.9013 830.341 14.9747 830.518 16.3 830.518L16.972 830.518C18.2973 830.518 19.38 830.341 20.22 829.986C21.0413 829.632 21.648 829.118 22.04 828.446C22.432 827.774 22.628 826.944 22.628 825.954ZM24.336 811.684C24.336 813.084 23.9813 814.213 23.272 815.072C22.5627 815.93 21.3213 816.36 19.548 816.36L9.272 816.36L9.272 814.344L19.352 814.344C20.0053 814.344 20.5373 814.26 20.948 814.092C21.3587 813.924 21.6853 813.69 21.928 813.392C22.152 813.093 22.3107 812.748 22.404 812.356C22.4973 811.945 22.544 811.506 22.544 811.04C22.544 810.293 22.3667 809.593 22.012 808.94C21.6387 808.268 21.116 807.726 20.444 807.316C19.7533 806.905 18.932 806.7 17.98 806.7L9.272 806.7L9.272 804.684L24 804.684L24 806.252L21.676 806.476L21.676 806.672C22.348 807.082 22.88 807.549 23.272 808.072C23.6453 808.576 23.916 809.136 24.084 809.752C24.252 810.349 24.336 810.993 24.336 811.684ZM24.308 797.495C24.308 798.167 24.1867 798.708 23.944 799.119C23.7013 799.511 23.3653 799.791 22.936 799.959C22.5067 800.108 22.0307 800.183 21.508 800.183L10.98 800.183L10.98 802.171L9.272 802.171L9.272 800.183L5.184 799.791L5.184 798.167L9.272 798.167L9.272 795.339L10.98 795.339L10.98 798.167L21.144 798.167C21.648 798.167 22.0213 798.102 22.264 797.971C22.5067 797.822 22.628 797.504 22.628 797.019L22.628 795.339L23.916 795.339C23.9907 795.526 24.056 795.75 24.112 796.011C24.1867 796.254 24.2333 796.506 24.252 796.767C24.2893 797.028 24.308 797.271 24.308 797.495Z" fill="#202124"/>
<path d="M12.4248 741.688C14.9773 741.253 17.644 742.825 19.8923 745.764C22.1379 748.699 23.95 752.981 24.7912 757.913C25.6324 762.845 25.3421 767.485 24.1966 770.999C23.0497 774.518 21.0548 776.884 18.5023 777.32C15.9498 777.755 13.2831 776.183 11.0348 773.244C8.78916 770.308 6.97706 766.027 6.13585 761.095C5.29463 756.163 5.58499 751.523 6.73051 748.009C7.87739 744.49 9.87231 742.124 12.4248 741.688Z" stroke="#FA8C4F" stroke-width="0.16847"/>
<path d="M17.6065 741.654C20.1761 741.973 22.2766 744.247 23.5823 747.709C24.8864 751.168 25.3875 755.79 24.7714 760.755C24.1553 765.72 22.5398 770.079 20.4299 773.114C18.3176 776.153 15.7251 777.844 13.1555 777.525C10.5858 777.206 8.48537 774.933 7.17969 771.47C5.87557 768.012 5.37452 763.39 5.9906 758.424C6.60668 753.459 8.22222 749.1 10.332 746.065C12.4444 743.027 15.0368 741.335 17.6065 741.654Z" stroke="#FA8C4F" stroke-width="0.16847"/>
<path d="M10.233 755.508L10.233 758.749L17.6364 761.892L10.233 765.462L10.233 768.226L10.6772 768.226L10.6772 766.91L19.66 766.91L19.66 768.226L20.1042 768.226L20.1042 764.902C19.83 764.968 19.682 765.116 19.66 765.347L19.66 766.219L13.1943 766.219L20.2359 762.681L20.2359 762.369L11.8124 758.749L19.66 758.749L19.66 760.066L20.1042 760.066L20.1042 755.508C19.83 755.574 19.682 755.722 19.66 755.952L19.66 756.824L10.6772 756.824L10.6772 755.508L10.233 755.508Z" fill="#FA8C4F"/>
<path d="M20.1045 755.356C19.8303 755.422 19.6822 755.57 19.6603 755.8L19.6603 756.672L15.7447 756.672L15.1688 756.031L20.1209 752.658L20.1045 749.779C19.8303 749.845 19.6822 749.993 19.6603 750.223L19.6603 750.47L13.8362 754.583L11.4178 751.934C10.99 751.484 10.7542 751.144 10.7103 750.914C10.6884 750.826 10.6774 750.744 10.6774 750.667C10.5897 750.393 10.4416 750.245 10.2332 750.223L10.2332 753.25L10.6774 753.25L10.6774 751.934L14.9879 756.672L10.6774 756.672L10.6774 755.356L10.2332 755.356L10.2332 760.012L10.6774 760.012L10.6774 758.696L19.6603 758.696L19.6603 760.012L20.1045 760.012L20.1045 755.356Z" fill="#FA8C4F"/>
<path d="M24 719.776L4.792 712.132L4.792 709.164L24 701.492L24 703.872L18.932 705.888L18.932 715.52L24 717.508L24 719.776ZM17.028 714.764L17.028 706.644L10.616 709.164C10.4667 709.22 10.2427 709.304 9.944 709.416C9.64533 709.528 9.30933 709.659 8.936 709.808C8.544 709.939 8.152 710.079 7.76 710.228C7.368 710.359 7.01333 710.489 6.696 710.62L6.696 710.816C7.05067 710.928 7.47067 711.077 7.956 711.264C8.44133 711.432 8.92667 711.609 9.412 711.796C9.87867 711.964 10.28 712.113 10.616 712.244L17.028 714.764ZM24.336 692.674C24.336 693.682 24.1307 694.578 23.72 695.362C23.3093 696.127 22.684 696.771 21.844 697.294L21.844 697.49L24 697.714L24 699.31L3.756 699.31L3.756 697.294L11.176 697.294L11.176 697.098C10.6347 696.762 10.2053 696.36 9.888 695.894C9.552 695.427 9.30933 694.914 9.16 694.354C9.01066 693.794 8.936 693.215 8.936 692.618C8.936 691.442 9.20666 690.424 9.748 689.566C10.2893 688.688 11.12 688.016 12.24 687.55C13.3413 687.083 14.76 686.85 16.496 686.85C18.344 686.85 19.8467 687.083 21.004 687.55C22.1427 687.998 22.9827 688.66 23.524 689.538C24.0653 690.396 24.336 691.442 24.336 692.674ZM22.572 693.01C22.572 692.188 22.3947 691.479 22.04 690.882C21.6853 690.266 21.1067 689.79 20.304 689.454C19.4827 689.118 18.3813 688.95 17 688.95L16.3 688.95C14.9747 688.95 13.9013 689.108 13.08 689.426C12.2587 689.724 11.6613 690.191 11.288 690.826C10.896 691.442 10.7 692.216 10.7 693.15C10.7 693.654 10.784 694.158 10.952 694.662C11.1013 695.147 11.3813 695.586 11.792 695.978C12.2027 696.37 12.7813 696.687 13.528 696.93C14.2747 697.172 15.2267 697.294 16.384 697.294L16.888 697.294C18.1013 697.294 19.128 697.154 19.968 696.874C20.808 696.575 21.452 696.108 21.9 695.474C22.348 694.839 22.572 694.018 22.572 693.01ZM24.336 677.954C24.336 679.373 24.0653 680.586 23.524 681.594C22.964 682.584 22.1147 683.34 20.976 683.862C19.8373 684.366 18.3907 684.618 16.636 684.618C14.8627 684.618 13.416 684.366 12.296 683.862C11.1573 683.34 10.3173 682.584 9.776 681.594C9.216 680.586 8.936 679.373 8.936 677.954C8.936 676.498 9.216 675.285 9.776 674.314C10.3173 673.325 11.1573 672.578 12.296 672.074C13.416 671.552 14.8627 671.29 16.636 671.29C18.3907 671.29 19.8373 671.552 20.976 672.074C22.1147 672.578 22.964 673.325 23.524 674.314C24.0653 675.285 24.336 676.498 24.336 677.954ZM22.628 677.954C22.628 676.965 22.432 676.134 22.04 675.462C21.648 674.79 21.0413 674.277 20.22 673.922C19.38 673.568 18.2973 673.39 16.972 673.39L16.3 673.39C14.9747 673.39 13.9013 673.568 13.08 673.922C12.24 674.277 11.624 674.79 11.232 675.462C10.84 676.134 10.644 676.965 10.644 677.954C10.644 678.944 10.84 679.774 11.232 680.446C11.624 681.118 12.24 681.632 13.08 681.986C13.9013 682.341 14.9747 682.518 16.3 682.518L16.972 682.518C18.2973 682.518 19.38 682.341 20.22 681.986C21.0413 681.632 21.648 681.118 22.04 680.446C22.432 679.774 22.628 678.944 22.628 677.954ZM24.336 663.684C24.336 665.084 23.9813 666.213 23.272 667.072C22.5627 667.93 21.3213 668.36 19.548 668.36L9.272 668.36L9.272 666.344L19.352 666.344C20.0053 666.344 20.5373 666.26 20.948 666.092C21.3587 665.924 21.6853 665.69 21.928 665.392C22.152 665.093 22.3107 664.748 22.404 664.356C22.4973 663.945 22.544 663.506 22.544 663.04C22.544 662.293 22.3667 661.593 22.012 660.94C21.6387 660.268 21.116 659.726 20.444 659.316C19.7533 658.905 18.932 658.7 17.98 658.7L9.272 658.7L9.272 656.684L24 656.684L24 658.252L21.676 658.476L21.676 658.672C22.348 659.082 22.88 659.549 23.272 660.072C23.6453 660.576 23.916 661.136 24.084 661.752C24.252 662.349 24.336 662.993 24.336 663.684ZM24.308 649.495C24.308 650.167 24.1867 650.708 23.944 651.119C23.7013 651.511 23.3653 651.791 22.936 651.959C22.5067 652.108 22.0307 652.183 21.508 652.183L10.98 652.183L10.98 654.171L9.272 654.171L9.272 652.183L5.184 651.791L5.184 650.167L9.272 650.167L9.272 647.339L10.98 647.339L10.98 650.167L21.144 650.167C21.648 650.167 22.0213 650.102 22.264 649.971C22.5067 649.822 22.628 649.504 22.628 649.019L22.628 647.339L23.916 647.339C23.9907 647.526 24.056 647.75 24.112 648.011C24.1867 648.254 24.2333 648.506 24.252 648.767C24.2893 649.028 24.308 649.271 24.308 649.495Z" fill="#202124"/>
<path d="M12.4248 593.688C14.9773 593.253 17.644 594.825 19.8923 597.764C22.1379 600.699 23.95 604.981 24.7912 609.913C25.6324 614.845 25.3421 619.485 24.1966 622.999C23.0497 626.518 21.0548 628.884 18.5023 629.32C15.9498 629.755 13.2831 628.183 11.0348 625.244C8.78916 622.308 6.97706 618.027 6.13585 613.095C5.29463 608.163 5.58499 603.523 6.73051 600.009C7.87739 596.49 9.87231 594.124 12.4248 593.688Z" stroke="#FA8C4F" stroke-width="0.16847"/>
<path d="M17.6065 593.654C20.1761 593.973 22.2766 596.247 23.5823 599.709C24.8864 603.168 25.3875 607.79 24.7714 612.755C24.1553 617.72 22.5398 622.079 20.4299 625.114C18.3176 628.153 15.7251 629.844 13.1555 629.525C10.5858 629.206 8.48537 626.933 7.17969 623.47C5.87557 620.012 5.37452 615.39 5.9906 610.424C6.60668 605.459 8.22222 601.1 10.332 598.065C12.4444 595.027 15.0368 593.335 17.6065 593.654Z" stroke="#FA8C4F" stroke-width="0.16847"/>
<path d="M10.233 607.508L10.233 610.749L17.6364 613.892L10.233 617.462L10.233 620.226L10.6772 620.226L10.6772 618.91L19.66 618.91L19.66 620.226L20.1042 620.226L20.1042 616.902C19.83 616.968 19.682 617.116 19.66 617.347L19.66 618.219L13.1943 618.219L20.2359 614.681L20.2359 614.369L11.8124 610.749L19.66 610.749L19.66 612.066L20.1042 612.066L20.1042 607.508C19.83 607.574 19.682 607.722 19.66 607.952L19.66 608.824L10.6772 608.824L10.6772 607.508L10.233 607.508Z" fill="#FA8C4F"/>
<path d="M20.1045 607.356C19.8303 607.422 19.6822 607.57 19.6603 607.8L19.6603 608.672L15.7447 608.672L15.1688 608.031L20.1209 604.658L20.1045 601.779C19.8303 601.845 19.6822 601.993 19.6603 602.223L19.6603 602.47L13.8362 606.583L11.4178 603.934C10.99 603.484 10.7542 603.144 10.7103 602.914C10.6884 602.826 10.6774 602.744 10.6774 602.667C10.5897 602.393 10.4416 602.245 10.2332 602.223L10.2332 605.25L10.6774 605.25L10.6774 603.934L14.9879 608.672L10.6774 608.672L10.6774 607.356L10.2332 607.356L10.2332 612.012L10.6774 612.012L10.6774 610.696L19.6603 610.696L19.6603 612.012L20.1045 612.012L20.1045 607.356Z" fill="#FA8C4F"/>
<path d="M24 571.776L4.792 564.132L4.792 561.164L24 553.492L24 555.872L18.932 557.888L18.932 567.52L24 569.508L24 571.776ZM17.028 566.764L17.028 558.644L10.616 561.164C10.4667 561.22 10.2427 561.304 9.944 561.416C9.64533 561.528 9.30933 561.659 8.936 561.808C8.544 561.939 8.152 562.079 7.76 562.228C7.368 562.359 7.01333 562.489 6.696 562.62L6.696 562.816C7.05067 562.928 7.47067 563.077 7.956 563.264C8.44133 563.432 8.92667 563.609 9.412 563.796C9.87867 563.964 10.28 564.113 10.616 564.244L17.028 566.764ZM24.336 544.674C24.336 545.682 24.1307 546.578 23.72 547.362C23.3093 548.127 22.684 548.771 21.844 549.294L21.844 549.49L24 549.714L24 551.31L3.756 551.31L3.756 549.294L11.176 549.294L11.176 549.098C10.6347 548.762 10.2053 548.36 9.888 547.894C9.552 547.427 9.30933 546.914 9.16 546.354C9.01066 545.794 8.936 545.215 8.936 544.618C8.936 543.442 9.20666 542.424 9.748 541.566C10.2893 540.688 11.12 540.016 12.24 539.55C13.3413 539.083 14.76 538.85 16.496 538.85C18.344 538.85 19.8467 539.083 21.004 539.55C22.1427 539.998 22.9827 540.66 23.524 541.538C24.0653 542.396 24.336 543.442 24.336 544.674ZM22.572 545.01C22.572 544.188 22.3947 543.479 22.04 542.882C21.6853 542.266 21.1067 541.79 20.304 541.454C19.4827 541.118 18.3813 540.95 17 540.95L16.3 540.95C14.9747 540.95 13.9013 541.108 13.08 541.426C12.2587 541.724 11.6613 542.191 11.288 542.826C10.896 543.442 10.7 544.216 10.7 545.15C10.7 545.654 10.784 546.158 10.952 546.662C11.1013 547.147 11.3813 547.586 11.792 547.978C12.2027 548.37 12.7813 548.687 13.528 548.93C14.2747 549.172 15.2267 549.294 16.384 549.294L16.888 549.294C18.1013 549.294 19.128 549.154 19.968 548.874C20.808 548.575 21.452 548.108 21.9 547.474C22.348 546.839 22.572 546.018 22.572 545.01ZM24.336 529.954C24.336 531.373 24.0653 532.586 23.524 533.594C22.964 534.584 22.1147 535.34 20.976 535.862C19.8373 536.366 18.3907 536.618 16.636 536.618C14.8627 536.618 13.416 536.366 12.296 535.862C11.1573 535.34 10.3173 534.584 9.776 533.594C9.216 532.586 8.936 531.373 8.936 529.954C8.936 528.498 9.216 527.285 9.776 526.314C10.3173 525.325 11.1573 524.578 12.296 524.074C13.416 523.552 14.8627 523.29 16.636 523.29C18.3907 523.29 19.8373 523.552 20.976 524.074C22.1147 524.578 22.964 525.325 23.524 526.314C24.0653 527.285 24.336 528.498 24.336 529.954ZM22.628 529.954C22.628 528.965 22.432 528.134 22.04 527.462C21.648 526.79 21.0413 526.277 20.22 525.922C19.38 525.568 18.2973 525.39 16.972 525.39L16.3 525.39C14.9747 525.39 13.9013 525.568 13.08 525.922C12.24 526.277 11.624 526.79 11.232 527.462C10.84 528.134 10.644 528.965 10.644 529.954C10.644 530.944 10.84 531.774 11.232 532.446C11.624 533.118 12.24 533.632 13.08 533.986C13.9013 534.341 14.9747 534.518 16.3 534.518L16.972 534.518C18.2973 534.518 19.38 534.341 20.22 533.986C21.0413 533.632 21.648 533.118 22.04 532.446C22.432 531.774 22.628 530.944 22.628 529.954ZM24.336 515.684C24.336 517.084 23.9813 518.213 23.272 519.072C22.5627 519.93 21.3213 520.36 19.548 520.36L9.272 520.36L9.272 518.344L19.352 518.344C20.0053 518.344 20.5373 518.26 20.948 518.092C21.3587 517.924 21.6853 517.69 21.928 517.392C22.152 517.093 22.3107 516.748 22.404 516.356C22.4973 515.945 22.544 515.506 22.544 515.04C22.544 514.293 22.3667 513.593 22.012 512.94C21.6387 512.268 21.116 511.726 20.444 511.316C19.7533 510.905 18.932 510.7 17.98 510.7L9.272 510.7L9.272 508.684L24 508.684L24 510.252L21.676 510.476L21.676 510.672C22.348 511.082 22.88 511.549 23.272 512.072C23.6453 512.576 23.916 513.136 24.084 513.752C24.252 514.349 24.336 514.993 24.336 515.684ZM24.308 501.495C24.308 502.167 24.1867 502.708 23.944 503.119C23.7013 503.511 23.3653 503.791 22.936 503.959C22.5067 504.108 22.0307 504.183 21.508 504.183L10.98 504.183L10.98 506.171L9.272 506.171L9.272 504.183L5.184 503.791L5.184 502.167L9.272 502.167L9.272 499.339L10.98 499.339L10.98 502.167L21.144 502.167C21.648 502.167 22.0213 502.102 22.264 501.971C22.5067 501.822 22.628 501.504 22.628 501.019L22.628 499.339L23.916 499.339C23.9907 499.526 24.056 499.75 24.112 500.011C24.1867 500.254 24.2333 500.506 24.252 500.767C24.2893 501.028 24.308 501.271 24.308 501.495Z" fill="#202124"/>
<path d="M12.4248 445.688C14.9773 445.253 17.644 446.825 19.8923 449.764C22.1379 452.699 23.95 456.981 24.7912 461.913C25.6324 466.845 25.3421 471.485 24.1966 474.999C23.0497 478.518 21.0548 480.884 18.5023 481.32C15.9498 481.755 13.2831 480.183 11.0348 477.244C8.78916 474.308 6.97706 470.027 6.13585 465.095C5.29463 460.163 5.58499 455.523 6.73051 452.009C7.87739 448.49 9.87231 446.124 12.4248 445.688Z" stroke="#FA8C4F" stroke-width="0.16847"/>
<path d="M17.6065 445.654C20.1761 445.973 22.2766 448.247 23.5823 451.709C24.8864 455.168 25.3875 459.79 24.7714 464.755C24.1553 469.72 22.5398 474.079 20.4299 477.114C18.3176 480.153 15.7251 481.844 13.1555 481.525C10.5858 481.206 8.48537 478.933 7.17969 475.47C5.87557 472.012 5.37452 467.39 5.9906 462.424C6.60668 457.459 8.22222 453.1 10.332 450.065C12.4444 447.027 15.0368 445.335 17.6065 445.654Z" stroke="#FA8C4F" stroke-width="0.16847"/>
<path d="M10.233 459.508L10.233 462.749L17.6364 465.892L10.233 469.462L10.233 472.226L10.6772 472.226L10.6772 470.91L19.66 470.91L19.66 472.226L20.1042 472.226L20.1042 468.902C19.83 468.968 19.682 469.116 19.66 469.347L19.66 470.219L13.1943 470.219L20.2359 466.681L20.2359 466.369L11.8124 462.749L19.66 462.749L19.66 464.066L20.1042 464.066L20.1042 459.508C19.83 459.574 19.682 459.722 19.66 459.952L19.66 460.824L10.6772 460.824L10.6772 459.508L10.233 459.508Z" fill="#FA8C4F"/>
<path d="M20.1045 459.356C19.8303 459.422 19.6822 459.57 19.6603 459.8L19.6603 460.672L15.7447 460.672L15.1688 460.031L20.1209 456.658L20.1045 453.779C19.8303 453.845 19.6822 453.993 19.6603 454.223L19.6603 454.47L13.8362 458.583L11.4178 455.934C10.99 455.485 10.7542 455.145 10.7103 454.914C10.6884 454.826 10.6774 454.744 10.6774 454.667C10.5897 454.393 10.4416 454.245 10.2332 454.223L10.2332 457.25L10.6774 457.25L10.6774 455.934L14.9879 460.672L10.6774 460.672L10.6774 459.356L10.2332 459.356L10.2332 464.012L10.6774 464.012L10.6774 462.696L19.6603 462.696L19.6603 464.012L20.1045 464.012L20.1045 459.356Z" fill="#FA8C4F"/>
<path d="M24 423.776L4.792 416.132L4.792 413.164L24 405.492L24 407.872L18.932 409.888L18.932 419.52L24 421.508L24 423.776ZM17.028 418.764L17.028 410.644L10.616 413.164C10.4667 413.22 10.2427 413.304 9.944 413.416C9.64533 413.528 9.30933 413.659 8.936 413.808C8.544 413.939 8.152 414.079 7.76 414.228C7.368 414.359 7.01333 414.489 6.696 414.62L6.696 414.816C7.05067 414.928 7.47067 415.077 7.956 415.264C8.44133 415.432 8.92667 415.609 9.412 415.796C9.87867 415.964 10.28 416.113 10.616 416.244L17.028 418.764ZM24.336 396.674C24.336 397.682 24.1307 398.578 23.72 399.362C23.3093 400.127 22.684 400.771 21.844 401.294L21.844 401.49L24 401.714L24 403.31L3.756 403.31L3.756 401.294L11.176 401.294L11.176 401.098C10.6347 400.762 10.2053 400.36 9.888 399.894C9.552 399.427 9.30933 398.914 9.16 398.354C9.01066 397.794 8.936 397.215 8.936 396.618C8.936 395.442 9.20666 394.424 9.748 393.566C10.2893 392.688 11.12 392.016 12.24 391.55C13.3413 391.083 14.76 390.85 16.496 390.85C18.344 390.85 19.8467 391.083 21.004 391.55C22.1427 391.998 22.9827 392.66 23.524 393.538C24.0653 394.396 24.336 395.442 24.336 396.674ZM22.572 397.01C22.572 396.188 22.3947 395.479 22.04 394.882C21.6853 394.266 21.1067 393.79 20.304 393.454C19.4827 393.118 18.3813 392.95 17 392.95L16.3 392.95C14.9747 392.95 13.9013 393.108 13.08 393.426C12.2587 393.724 11.6613 394.191 11.288 394.826C10.896 395.442 10.7 396.216 10.7 397.15C10.7 397.654 10.784 398.158 10.952 398.662C11.1013 399.147 11.3813 399.586 11.792 399.978C12.2027 400.37 12.7813 400.687 13.528 400.93C14.2747 401.172 15.2267 401.294 16.384 401.294L16.888 401.294C18.1013 401.294 19.128 401.154 19.968 400.874C20.808 400.575 21.452 400.108 21.9 399.474C22.348 398.839 22.572 398.018 22.572 397.01ZM24.336 381.954C24.336 383.373 24.0653 384.586 23.524 385.594C22.964 386.584 22.1147 387.34 20.976 387.862C19.8373 388.366 18.3907 388.618 16.636 388.618C14.8627 388.618 13.416 388.366 12.296 387.862C11.1573 387.34 10.3173 386.584 9.776 385.594C9.216 384.586 8.936 383.373 8.936 381.954C8.936 380.498 9.216 379.285 9.776 378.314C10.3173 377.325 11.1573 376.578 12.296 376.074C13.416 375.552 14.8627 375.29 16.636 375.29C18.3907 375.29 19.8373 375.552 20.976 376.074C22.1147 376.578 22.964 377.325 23.524 378.314C24.0653 379.285 24.336 380.498 24.336 381.954ZM22.628 381.954C22.628 380.965 22.432 380.134 22.04 379.462C21.648 378.79 21.0413 378.277 20.22 377.922C19.38 377.568 18.2973 377.39 16.972 377.39L16.3 377.39C14.9747 377.39 13.9013 377.568 13.08 377.922C12.24 378.277 11.624 378.79 11.232 379.462C10.84 380.134 10.644 380.965 10.644 381.954C10.644 382.944 10.84 383.774 11.232 384.446C11.624 385.118 12.24 385.632 13.08 385.986C13.9013 386.341 14.9747 386.518 16.3 386.518L16.972 386.518C18.2973 386.518 19.38 386.341 20.22 385.986C21.0413 385.632 21.648 385.118 22.04 384.446C22.432 383.774 22.628 382.944 22.628 381.954ZM24.336 367.684C24.336 369.084 23.9813 370.213 23.272 371.072C22.5627 371.93 21.3213 372.36 19.548 372.36L9.272 372.36L9.272 370.344L19.352 370.344C20.0053 370.344 20.5373 370.26 20.948 370.092C21.3587 369.924 21.6853 369.69 21.928 369.392C22.152 369.093 22.3107 368.748 22.404 368.356C22.4973 367.945 22.544 367.506 22.544 367.04C22.544 366.293 22.3667 365.593 22.012 364.94C21.6387 364.268 21.116 363.726 20.444 363.316C19.7533 362.905 18.932 362.7 17.98 362.7L9.272 362.7L9.272 360.684L24 360.684L24 362.252L21.676 362.476L21.676 362.672C22.348 363.082 22.88 363.549 23.272 364.072C23.6453 364.576 23.916 365.136 24.084 365.752C24.252 366.349 24.336 366.993 24.336 367.684ZM24.308 353.495C24.308 354.167 24.1867 354.708 23.944 355.119C23.7013 355.511 23.3653 355.791 22.936 355.959C22.5067 356.108 22.0307 356.183 21.508 356.183L10.98 356.183L10.98 358.171L9.272 358.171L9.272 356.183L5.184 355.791L5.184 354.167L9.272 354.167L9.272 351.339L10.98 351.339L10.98 354.167L21.144 354.167C21.648 354.167 22.0213 354.102 22.264 353.971C22.5067 353.822 22.628 353.504 22.628 353.019L22.628 351.339L23.916 351.339C23.9907 351.526 24.056 351.75 24.112 352.011C24.1867 352.254 24.2333 352.506 24.252 352.767C24.2893 353.028 24.308 353.271 24.308 353.495Z" fill="#202124"/>
<path d="M12.4248 297.688C14.9773 297.253 17.644 298.825 19.8923 301.764C22.1379 304.699 23.95 308.981 24.7912 313.913C25.6324 318.845 25.3421 323.485 24.1966 326.999C23.0497 330.518 21.0548 332.884 18.5023 333.32C15.9498 333.755 13.2831 332.183 11.0348 329.244C8.78916 326.308 6.97706 322.027 6.13585 317.095C5.29463 312.163 5.58499 307.523 6.73051 304.009C7.87739 300.49 9.87231 298.124 12.4248 297.688Z" stroke="#FA8C4F" stroke-width="0.16847"/>
<path d="M17.6065 297.654C20.1761 297.973 22.2766 300.247 23.5823 303.709C24.8864 307.168 25.3875 311.79 24.7714 316.755C24.1553 321.72 22.5398 326.079 20.4299 329.114C18.3176 332.153 15.7251 333.844 13.1555 333.525C10.5858 333.206 8.48537 330.933 7.17969 327.47C5.87557 324.012 5.37452 319.39 5.9906 314.424C6.60668 309.459 8.22222 305.1 10.332 302.065C12.4444 299.027 15.0368 297.335 17.6065 297.654Z" stroke="#FA8C4F" stroke-width="0.16847"/>
<path d="M10.233 311.508L10.233 314.749L17.6364 317.892L10.233 321.462L10.233 324.226L10.6772 324.226L10.6772 322.91L19.66 322.91L19.66 324.226L20.1042 324.226L20.1042 320.902C19.83 320.968 19.682 321.116 19.66 321.347L19.66 322.219L13.1943 322.219L20.2359 318.681L20.2359 318.369L11.8124 314.749L19.66 314.749L19.66 316.066L20.1042 316.066L20.1042 311.508C19.83 311.574 19.682 311.722 19.66 311.952L19.66 312.824L10.6772 312.824L10.6772 311.508L10.233 311.508Z" fill="#FA8C4F"/>
<path d="M20.1045 311.356C19.8303 311.422 19.6822 311.57 19.6603 311.8L19.6603 312.672L15.7447 312.672L15.1688 312.031L20.1209 308.658L20.1045 305.779C19.8303 305.845 19.6822 305.993 19.6603 306.223L19.6603 306.47L13.8362 310.583L11.4178 307.934C10.99 307.485 10.7542 307.145 10.7103 306.914C10.6884 306.826 10.6774 306.744 10.6774 306.667C10.5897 306.393 10.4416 306.245 10.2332 306.223L10.2332 309.25L10.6774 309.25L10.6774 307.934L14.9879 312.672L10.6774 312.672L10.6774 311.356L10.2332 311.356L10.2332 316.012L10.6774 316.012L10.6774 314.696L19.6603 314.696L19.6603 316.012L20.1045 316.012L20.1045 311.356Z" fill="#FA8C4F"/>
<path d="M24 275.776L4.792 268.132L4.792 265.164L24 257.492L24 259.872L18.932 261.888L18.932 271.52L24 273.508L24 275.776ZM17.028 270.764L17.028 262.644L10.616 265.164C10.4667 265.22 10.2427 265.304 9.944 265.416C9.64533 265.528 9.30933 265.659 8.936 265.808C8.544 265.939 8.152 266.079 7.76 266.228C7.368 266.359 7.01333 266.489 6.696 266.62L6.696 266.816C7.05067 266.928 7.47067 267.077 7.956 267.264C8.44133 267.432 8.92667 267.609 9.412 267.796C9.87867 267.964 10.28 268.113 10.616 268.244L17.028 270.764ZM24.336 248.674C24.336 249.682 24.1307 250.578 23.72 251.362C23.3093 252.127 22.684 252.771 21.844 253.294L21.844 253.49L24 253.714L24 255.31L3.756 255.31L3.756 253.294L11.176 253.294L11.176 253.098C10.6347 252.762 10.2053 252.36 9.888 251.894C9.552 251.427 9.30933 250.914 9.16 250.354C9.01066 249.794 8.936 249.215 8.936 248.618C8.936 247.442 9.20666 246.424 9.748 245.566C10.2893 244.688 11.12 244.016 12.24 243.55C13.3413 243.083 14.76 242.85 16.496 242.85C18.344 242.85 19.8467 243.083 21.004 243.55C22.1427 243.998 22.9827 244.66 23.524 245.538C24.0653 246.396 24.336 247.442 24.336 248.674ZM22.572 249.01C22.572 248.188 22.3947 247.479 22.04 246.882C21.6853 246.266 21.1067 245.79 20.304 245.454C19.4827 245.118 18.3813 244.95 17 244.95L16.3 244.95C14.9747 244.95 13.9013 245.108 13.08 245.426C12.2587 245.724 11.6613 246.191 11.288 246.826C10.896 247.442 10.7 248.216 10.7 249.15C10.7 249.654 10.784 250.158 10.952 250.662C11.1013 251.147 11.3813 251.586 11.792 251.978C12.2027 252.37 12.7813 252.687 13.528 252.93C14.2747 253.172 15.2267 253.294 16.384 253.294L16.888 253.294C18.1013 253.294 19.128 253.154 19.968 252.874C20.808 252.575 21.452 252.108 21.9 251.474C22.348 250.839 22.572 250.018 22.572 249.01ZM24.336 233.954C24.336 235.373 24.0653 236.586 23.524 237.594C22.964 238.584 22.1147 239.34 20.976 239.862C19.8373 240.366 18.3907 240.618 16.636 240.618C14.8627 240.618 13.416 240.366 12.296 239.862C11.1573 239.34 10.3173 238.584 9.776 237.594C9.216 236.586 8.936 235.373 8.936 233.954C8.936 232.498 9.216 231.285 9.776 230.314C10.3173 229.325 11.1573 228.578 12.296 228.074C13.416 227.552 14.8627 227.29 16.636 227.29C18.3907 227.29 19.8373 227.552 20.976 228.074C22.1147 228.578 22.964 229.325 23.524 230.314C24.0653 231.285 24.336 232.498 24.336 233.954ZM22.628 233.954C22.628 232.965 22.432 232.134 22.04 231.462C21.648 230.79 21.0413 230.277 20.22 229.922C19.38 229.568 18.2973 229.39 16.972 229.39L16.3 229.39C14.9747 229.39 13.9013 229.568 13.08 229.922C12.24 230.277 11.624 230.79 11.232 231.462C10.84 232.134 10.644 232.965 10.644 233.954C10.644 234.944 10.84 235.774 11.232 236.446C11.624 237.118 12.24 237.632 13.08 237.986C13.9013 238.341 14.9747 238.518 16.3 238.518L16.972 238.518C18.2973 238.518 19.38 238.341 20.22 237.986C21.0413 237.632 21.648 237.118 22.04 236.446C22.432 235.774 22.628 234.944 22.628 233.954ZM24.336 219.684C24.336 221.084 23.9813 222.213 23.272 223.072C22.5627 223.93 21.3213 224.36 19.548 224.36L9.272 224.36L9.272 222.344L19.352 222.344C20.0053 222.344 20.5373 222.26 20.948 222.092C21.3587 221.924 21.6853 221.69 21.928 221.392C22.152 221.093 22.3107 220.748 22.404 220.356C22.4973 219.945 22.544 219.506 22.544 219.04C22.544 218.293 22.3667 217.593 22.012 216.94C21.6387 216.268 21.116 215.726 20.444 215.316C19.7533 214.905 18.932 214.7 17.98 214.7L9.272 214.7L9.272 212.684L24 212.684L24 214.252L21.676 214.476L21.676 214.672C22.348 215.082 22.88 215.549 23.272 216.072C23.6453 216.576 23.916 217.136 24.084 217.752C24.252 218.349 24.336 218.993 24.336 219.684ZM24.308 205.495C24.308 206.167 24.1867 206.708 23.944 207.119C23.7013 207.511 23.3653 207.791 22.936 207.959C22.5067 208.108 22.0307 208.183 21.508 208.183L10.98 208.183L10.98 210.171L9.272 210.171L9.272 208.183L5.184 207.791L5.184 206.167L9.272 206.167L9.272 203.339L10.98 203.339L10.98 206.167L21.144 206.167C21.648 206.167 22.0213 206.102 22.264 205.971C22.5067 205.822 22.628 205.504 22.628 205.019L22.628 203.339L23.916 203.339C23.9907 203.526 24.056 203.75 24.112 204.011C24.1867 204.254 24.2333 204.506 24.252 204.767C24.2893 205.028 24.308 205.271 24.308 205.495Z" fill="#202124"/>
<path d="M12.4248 149.688C14.9773 149.253 17.644 150.825 19.8923 153.764C22.1379 156.699 23.95 160.981 24.7912 165.913C25.6324 170.845 25.3421 175.485 24.1966 178.999C23.0497 182.518 21.0548 184.884 18.5023 185.32C15.9498 185.755 13.2831 184.183 11.0348 181.244C8.78916 178.308 6.97706 174.027 6.13585 169.095C5.29463 164.163 5.58499 159.523 6.73051 156.009C7.87739 152.49 9.87231 150.124 12.4248 149.688Z" stroke="#FA8C4F" stroke-width="0.16847"/>
<path d="M17.6065 149.654C20.1761 149.973 22.2766 152.247 23.5823 155.709C24.8864 159.168 25.3875 163.79 24.7714 168.755C24.1553 173.72 22.5398 178.079 20.4299 181.114C18.3176 184.153 15.7251 185.844 13.1555 185.525C10.5858 185.206 8.48537 182.933 7.17969 179.47C5.87557 176.012 5.37452 171.39 5.9906 166.424C6.60668 161.459 8.22222 157.1 10.332 154.065C12.4444 151.027 15.0368 149.335 17.6065 149.654Z" stroke="#FA8C4F" stroke-width="0.16847"/>
<path d="M10.233 163.508L10.233 166.749L17.6364 169.892L10.233 173.462L10.233 176.226L10.6772 176.226L10.6772 174.91L19.66 174.91L19.66 176.226L20.1042 176.226L20.1042 172.902C19.83 172.968 19.682 173.116 19.66 173.347L19.66 174.219L13.1943 174.219L20.2359 170.681L20.2359 170.369L11.8124 166.749L19.66 166.749L19.66 168.066L20.1042 168.066L20.1042 163.508C19.83 163.574 19.682 163.722 19.66 163.952L19.66 164.824L10.6772 164.824L10.6772 163.508L10.233 163.508Z" fill="#FA8C4F"/>
<path d="M20.1045 163.356C19.8303 163.422 19.6822 163.57 19.6603 163.8L19.6603 164.672L15.7447 164.672L15.1688 164.031L20.1209 160.658L20.1045 157.779C19.8303 157.845 19.6822 157.993 19.6603 158.223L19.6603 158.47L13.8362 162.583L11.4178 159.934C10.99 159.485 10.7542 159.145 10.7103 158.914C10.6884 158.826 10.6774 158.744 10.6774 158.667C10.5897 158.393 10.4416 158.245 10.2332 158.223L10.2332 161.25L10.6774 161.25L10.6774 159.934L14.9879 164.672L10.6774 164.672L10.6774 163.356L10.2332 163.356L10.2332 168.012L10.6774 168.012L10.6774 166.696L19.6603 166.696L19.6603 168.012L20.1045 168.012L20.1045 163.356Z" fill="#FA8C4F"/>
<path d="M24 127.776L4.792 120.132L4.792 117.164L24 109.492L24 111.872L18.932 113.888L18.932 123.52L24 125.508L24 127.776ZM17.028 122.764L17.028 114.644L10.616 117.164C10.4667 117.22 10.2427 117.304 9.944 117.416C9.64533 117.528 9.30933 117.659 8.936 117.808C8.544 117.939 8.152 118.079 7.76 118.228C7.368 118.359 7.01333 118.489 6.696 118.62L6.696 118.816C7.05067 118.928 7.47067 119.077 7.956 119.264C8.44133 119.432 8.92667 119.609 9.412 119.796C9.87867 119.964 10.28 120.113 10.616 120.244L17.028 122.764ZM24.336 100.674C24.336 101.682 24.1307 102.578 23.72 103.362C23.3093 104.127 22.684 104.771 21.844 105.294L21.844 105.49L24 105.714L24 107.31L3.756 107.31L3.756 105.294L11.176 105.294L11.176 105.098C10.6347 104.762 10.2053 104.36 9.888 103.894C9.552 103.427 9.30933 102.914 9.16 102.354C9.01066 101.794 8.936 101.215 8.936 100.618C8.936 99.4415 9.20666 98.4242 9.748 97.5655C10.2893 96.6882 11.12 96.0162 12.24 95.5495C13.3413 95.0829 14.76 94.8495 16.496 94.8495C18.344 94.8495 19.8467 95.0829 21.004 95.5495C22.1427 95.9975 22.9827 96.6602 23.524 97.5375C24.0653 98.3962 24.336 99.4415 24.336 100.674ZM22.572 101.01C22.572 100.188 22.3947 99.4789 22.04 98.8815C21.6853 98.2655 21.1067 97.7895 20.304 97.4535C19.4827 97.1175 18.3813 96.9495 17 96.9495L16.3 96.9495C14.9747 96.9495 13.9013 97.1082 13.08 97.4255C12.2587 97.7242 11.6613 98.1909 11.288 98.8255C10.896 99.4415 10.7 100.216 10.7 101.15C10.7 101.654 10.784 102.158 10.952 102.662C11.1013 103.147 11.3813 103.586 11.792 103.978C12.2027 104.37 12.7813 104.687 13.528 104.93C14.2747 105.172 15.2267 105.294 16.384 105.294L16.888 105.294C18.1013 105.294 19.128 105.154 19.968 104.874C20.808 104.575 21.452 104.108 21.9 103.474C22.348 102.839 22.572 102.018 22.572 101.01ZM24.336 85.9543C24.336 87.3729 24.0653 88.5863 23.524 89.5943C22.964 90.5836 22.1147 91.3396 20.976 91.8623C19.8373 92.3663 18.3907 92.6183 16.636 92.6183C14.8627 92.6183 13.416 92.3663 12.296 91.8623C11.1573 91.3396 10.3173 90.5836 9.776 89.5943C9.216 88.5863 8.936 87.3729 8.936 85.9543C8.936 84.4983 9.216 83.2849 9.776 82.3143C10.3173 81.3249 11.1573 80.5783 12.296 80.0743C13.416 79.5516 14.8627 79.2903 16.636 79.2903C18.3907 79.2903 19.8373 79.5516 20.976 80.0743C22.1147 80.5783 22.964 81.3249 23.524 82.3143C24.0653 83.2849 24.336 84.4983 24.336 85.9543ZM22.628 85.9543C22.628 84.9649 22.432 84.1343 22.04 83.4623C21.648 82.7903 21.0413 82.2769 20.22 81.9223C19.38 81.5676 18.2973 81.3903 16.972 81.3903L16.3 81.3903C14.9747 81.3903 13.9013 81.5676 13.08 81.9223C12.24 82.2769 11.624 82.7903 11.232 83.4623C10.84 84.1343 10.644 84.9649 10.644 85.9543C10.644 86.9436 10.84 87.7743 11.232 88.4463C11.624 89.1183 12.24 89.6316 13.08 89.9863C13.9013 90.3409 14.9747 90.5183 16.3 90.5183L16.972 90.5183C18.2973 90.5183 19.38 90.3409 20.22 89.9863C21.0413 89.6316 21.648 89.1183 22.04 88.4463C22.432 87.7743 22.628 86.9436 22.628 85.9543ZM24.336 71.6837C24.336 73.0837 23.9813 74.213 23.272 75.0717C22.5627 75.9304 21.3213 76.3597 19.548 76.3597L9.272 76.3597L9.272 74.3437L19.352 74.3437C20.0053 74.3437 20.5373 74.2597 20.948 74.0917C21.3587 73.9237 21.6853 73.6904 21.928 73.3917C22.152 73.093 22.3107 72.7477 22.404 72.3557C22.4973 71.945 22.544 71.5064 22.544 71.0397C22.544 70.293 22.3667 69.593 22.012 68.9397C21.6387 68.2677 21.116 67.7264 20.444 67.3157C19.7533 66.905 18.932 66.6997 17.98 66.6997L9.272 66.6997L9.272 64.6837L24 64.6837L24 66.2517L21.676 66.4757L21.676 66.6717C22.348 67.0824 22.88 67.549 23.272 68.0717C23.6453 68.5757 23.916 69.1357 24.084 69.7517C24.252 70.349 24.336 70.993 24.336 71.6837ZM24.308 57.4951C24.308 58.1671 24.1867 58.7085 23.944 59.1191C23.7013 59.5111 23.3653 59.7911 22.936 59.9591C22.5067 60.1085 22.0307 60.1831 21.508 60.1831L10.98 60.1831L10.98 62.1711L9.272 62.1711L9.272 60.1831L5.184 59.7911L5.184 58.1671L9.272 58.1671L9.272 55.3391L10.98 55.3391L10.98 58.1671L21.144 58.1671C21.648 58.1671 22.0213 58.1018 22.264 57.9711C22.5067 57.8218 22.628 57.5045 22.628 57.0191L22.628 55.3391L23.916 55.3391C23.9907 55.5258 24.056 55.7498 24.112 56.0111C24.1867 56.2538 24.2333 56.5058 24.252 56.7671C24.2893 57.0285 24.308 57.2711 24.308 57.4951Z" fill="#202124"/>
<path d="M12.4248 1.68817C14.9773 1.25281 17.644 2.82455 19.8923 5.76376C22.1379 8.69946 23.95 12.9811 24.7912 17.913C25.6324 22.8449 25.3421 27.4851 24.1966 30.9992C23.0497 34.5176 21.0548 36.8844 18.5023 37.3198C15.9498 37.7551 13.2831 36.1834 11.0348 33.2442C8.78916 30.3085 6.97706 26.0269 6.13585 21.0949C5.29463 16.163 5.58499 11.5228 6.73051 8.00869C7.87739 4.49038 9.87231 2.12353 12.4248 1.68817Z" stroke="#FA8C4F" stroke-width="0.16847"/>
<path d="M17.6065 1.6541C20.1761 1.97295 22.2766 4.24664 23.5823 7.70916C24.8864 11.1675 25.3875 15.7897 24.7714 20.7548C24.1553 25.7199 22.5398 30.0795 20.4299 33.1143C18.3176 36.1527 15.7251 37.844 13.1555 37.5252C10.5858 37.2063 8.48537 34.9327 7.17969 31.4701C5.87557 28.0118 5.37452 23.3895 5.9906 18.4245C6.60668 13.4594 8.22222 9.0998 10.332 6.06503C12.4444 3.02663 15.0368 1.33525 17.6065 1.6541Z" stroke="#FA8C4F" stroke-width="0.16847"/>
<path d="M10.233 15.5083L10.233 18.7494L17.6364 21.8917L10.233 25.4618L10.233 28.2258L10.6772 28.2258L10.6772 26.9096L19.66 26.9096L19.66 28.2258L20.1042 28.2258L20.1042 24.9025C19.83 24.9683 19.682 25.1164 19.66 25.3467L19.66 26.2186L13.1943 26.2186L20.2359 22.6814L20.2359 22.3688L11.8124 18.7494L19.66 18.7494L19.66 20.0655L20.1042 20.0655L20.1042 15.5083C19.83 15.5741 19.682 15.7222 19.66 15.9525L19.66 16.8245L10.6772 16.8245L10.6772 15.5083L10.233 15.5083Z" fill="#FA8C4F"/>
<path d="M20.1045 15.3563C19.8303 15.4221 19.6822 15.5702 19.6603 15.8005L19.6603 16.6725L15.7447 16.6725L15.1688 16.0308L20.1209 12.6581L20.1045 9.77901C19.8303 9.84482 19.6822 9.99289 19.6603 10.2232L19.6603 10.47L13.8362 14.583L11.4178 11.9342C10.99 11.4845 10.7542 11.1445 10.7103 10.9142C10.6884 10.8265 10.6774 10.7442 10.6774 10.6674C10.5897 10.3932 10.4416 10.2452 10.2332 10.2232L10.2332 13.2504L10.6774 13.2504L10.6774 11.9342L14.9879 16.6725L10.6774 16.6725L10.6774 15.3563L10.2332 15.3563L10.2332 20.0122L10.6774 20.0122L10.6774 18.6961L19.6603 18.6961L19.6603 20.0122L20.1045 20.0122L20.1045 15.3563Z" fill="#FA8C4F"/>
</svg>
