<svg width="31" height="31" viewBox="0 0 31 31" fill="none" xmlns="http://www.w3.org/2000/svg">
<path d="M3.89139 0.661117C3.15194 -0.107326 1.92956 -0.130834 1.16112 0.608611C0.392674 1.34806 0.369166 2.57044 1.10861 3.33888L3.89139 0.661117ZM27.9629 30.4306C29.0291 30.4511 29.9101 29.6034 29.9306 28.5371L30.2647 11.1618C30.2852 10.0955 29.4375 9.21456 28.3713 9.19406C27.305 9.17355 26.424 10.0213 26.4035 11.0875L26.1065 26.5323L10.6618 26.2353C9.59554 26.2148 8.71456 27.0625 8.69406 28.1287C8.67355 29.195 9.52129 30.0759 10.5875 30.0964L27.9629 30.4306ZM1.10861 3.33888L26.6086 29.8389L29.3914 27.1611L3.89139 0.661117L1.10861 3.33888Z" fill="#202124"/>
</svg>
