<?xml version="1.0" encoding="UTF-8"?><svg id="Layer_1" xmlns="http://www.w3.org/2000/svg" viewBox="0 0 81.02 90.36"><defs><style>.cls-1{fill:#1d1d1b;}</style></defs><path class="cls-1" d="M42.73,26.35c-1.84-8.6-4.17-17.56-11.62-23.04C27.85,.91,23.72-.4,19.66,.11c-4.3,.54-8.24,2.83-11.14,6.02S3.62,13.43,2.19,17.59C.62,22.15-.38,27.01,.13,31.84s2.07,9.31,3.91,13.73,3.93,9.07,6.05,13.53c4.84,10.18,10.14,20.13,15.43,30.08,.69,1.29,2.22,1.42,3.42,.9,18.15-7.9,38.79-17.17,48.23-35.8,4.74-9.36,5.76-21.47-.85-30.27-2.96-3.94-7.22-6.94-12.05-8.06-5.37-1.25-10.55,.16-15.31,2.74-9.56,5.19-16.73,14.45-19.55,24.93-.83,3.11,3.99,4.44,4.82,1.33,2.19-8.15,7.32-15.46,14.34-20.18,3.66-2.46,7.91-4.6,12.43-4.3,4.08,.27,7.88,2.52,10.54,5.54,6.11,6.94,5.34,17.56,1.49,25.36-4.08,8.26-11,14.85-18.54,19.97-8.73,5.93-18.44,10.21-28.09,14.41l3.42,.9c-4.31-8.1-8.63-16.2-12.69-24.43-2-4.04-3.93-8.11-5.78-12.22s-3.6-8.01-4.9-12.19-1.9-8.22-1.18-12.42c.67-3.94,1.95-7.93,3.84-11.45,3.22-6.01,9.9-11.29,16.9-7.87,8.12,3.97,10.16,13.59,11.88,21.62,.67,3.15,5.49,1.81,4.82-1.33h0Z"/></svg>