<svg width="16" height="937" viewBox="0 0 16 937" fill="none" xmlns="http://www.w3.org/2000/svg">
<path d="M13 65.635L2.71 65.635L2.71 63.835L9.835 61.15C10.005 61.09 10.19 61.03 10.39 60.97C10.58 60.91 10.765 60.855 10.945 60.805C11.115 60.745 11.26 60.7 11.38 60.67L11.38 60.58C11.24 60.54 11.075 60.49 10.885 60.43C10.695 60.37 10.51 60.315 10.33 60.265C10.14 60.205 9.975 60.15 9.835 60.1L2.71 57.415L2.71 55.63L13 55.63L13 56.815L6.595 56.815C6.345 56.815 6.065 56.81 5.755 56.8C5.435 56.79 5.125 56.785 4.825 56.785C4.525 56.775 4.295 56.77 4.135 56.77L4.135 56.875C4.285 56.915 4.465 56.97 4.675 57.04C4.875 57.1 5.08 57.165 5.29 57.235C5.5 57.295 5.695 57.355 5.875 57.415L13 60.175L13 61.135L5.875 63.88C5.715 63.94 5.54 64 5.35 64.06C5.16 64.12 4.96 64.18 4.75 64.24C4.54 64.3 4.335 64.36 4.135 64.42L4.135 64.525C4.335 64.515 4.585 64.51 4.885 64.51C5.185 64.5 5.485 64.495 5.785 64.495C6.085 64.485 6.355 64.48 6.595 64.48L13 64.48L13 65.635ZM15.73 52.6955C15.73 52.8855 15.715 53.0555 15.685 53.2055C15.665 53.3455 15.65 53.4605 15.64 53.5505L14.83 53.5505L14.83 52.9655C14.83 52.7055 14.785 52.4555 14.695 52.2155C14.605 51.9755 14.425 51.7505 14.155 51.5405C13.895 51.3305 13.51 51.1405 13 50.9705L5.11 54.0305L5.11 52.8905L9.31 51.2705C9.5 51.1905 9.74 51.1055 10.03 51.0155C10.31 50.9155 10.6 50.8155 10.9 50.7155C11.19 50.6055 11.45 50.5155 11.68 50.4455L11.68 50.3555C11.52 50.3155 11.335 50.2655 11.125 50.2055C10.915 50.1355 10.7 50.0655 10.48 49.9955C10.26 49.9255 10.05 49.8605 9.85 49.8005C9.65 49.7305 9.475 49.6705 9.325 49.6205L5.11 48.2255L5.11 47.1305L12.865 49.8305C13.305 49.9805 13.7 50.1405 14.05 50.3105C14.4 50.4805 14.7 50.6755 14.95 50.8955C15.2 51.1055 15.39 51.3605 15.52 51.6605C15.66 51.9505 15.73 52.2955 15.73 52.6955ZM13 40.575L2.71 43.47L2.71 42.21L9.805 40.29C9.925 40.26 10.095 40.22 10.315 40.17C10.535 40.11 10.76 40.055 10.99 40.005C11.22 39.945 11.43 39.895 11.62 39.855L11.62 39.735C11.48 39.705 11.325 39.675 11.155 39.645C10.985 39.605 10.815 39.57 10.645 39.54C10.475 39.5 10.315 39.465 10.165 39.435C10.015 39.395 9.895 39.365 9.805 39.345L2.71 37.575L2.71 36.03L9.805 34.26C9.925 34.22 10.095 34.175 10.315 34.125C10.535 34.075 10.76 34.025 10.99 33.975C11.22 33.915 11.43 33.87 11.62 33.84L11.62 33.72C11.48 33.69 11.325 33.655 11.155 33.615C10.985 33.575 10.82 33.535 10.66 33.495C10.49 33.455 10.33 33.42 10.18 33.39C10.02 33.35 9.895 33.315 9.805 33.285L2.71 31.365L2.71 30.225L13 33.12L13 34.59L5.905 36.42C5.755 36.46 5.57 36.505 5.35 36.555C5.13 36.595 4.905 36.64 4.675 36.69C4.435 36.73 4.225 36.765 4.045 36.795L4.045 36.9C4.225 36.93 4.435 36.97 4.675 37.02C4.905 37.06 5.13 37.105 5.35 37.155C5.57 37.205 5.755 37.25 5.905 37.29L13 39.075L13 40.575ZM13.18 26.5019C13.18 27.2619 13.035 27.9119 12.745 28.4519C12.445 28.9819 11.99 29.3869 11.38 29.6669C10.77 29.9369 9.995 30.0719 9.055 30.0719C8.105 30.0719 7.33 29.9369 6.73 29.6669C6.12 29.3869 5.67 28.9819 5.38 28.4519C5.08 27.9119 4.93 27.2619 4.93 26.5019C4.93 25.7219 5.08 25.0719 5.38 24.5519C5.67 24.0219 6.12 23.6219 6.73 23.3519C7.33 23.0719 8.105 22.9319 9.055 22.9319C9.995 22.9319 10.77 23.0719 11.38 23.3519C11.99 23.6219 12.445 24.0219 12.745 24.5519C13.035 25.0719 13.18 25.7219 13.18 26.5019ZM12.265 26.5019C12.265 25.9719 12.16 25.5269 11.95 25.1669C11.74 24.8069 11.415 24.5319 10.975 24.3419C10.525 24.1519 9.945 24.0569 9.235 24.0569L8.875 24.0569C8.165 24.0569 7.59 24.1519 7.15 24.3419C6.7 24.5319 6.37 24.8069 6.16 25.1669C5.95 25.5269 5.845 25.9719 5.845 26.5019C5.845 27.0319 5.95 27.4769 6.16 27.8369C6.37 28.1969 6.7 28.4719 7.15 28.6619C7.59 28.8519 8.165 28.9469 8.875 28.9469L9.235 28.9469C9.945 28.9469 10.525 28.8519 10.975 28.6619C11.415 28.4719 11.74 28.1969 11.95 27.8369C12.16 27.4769 12.265 27.0319 12.265 26.5019ZM13 21.2869L5.11 21.2869L5.11 20.4169L6.43 20.3269L6.43 20.2219C6.19 20.1519 5.955 20.0469 5.725 19.9069C5.495 19.7669 5.305 19.5769 5.155 19.3369C5.005 19.0969 4.93 18.7919 4.93 18.4219C4.93 18.2819 4.945 18.1519 4.975 18.0319C4.995 17.9119 5.015 17.8219 5.035 17.7619L6.025 17.7619L6.025 18.2269C6.025 18.5769 6.09 18.8769 6.22 19.1269C6.34 19.3769 6.515 19.5819 6.745 19.7419C6.975 19.9019 7.24 20.0219 7.54 20.1019C7.83 20.1719 8.135 20.2069 8.455 20.2069L13 20.2069L13 21.2869ZM13 16.5262L2.155 16.5262L2.155 15.4462L9.145 15.4462L5.11 11.8612L5.11 10.5562L8.185 13.2862L13 10.4062L13 11.6662L8.98 13.9912L10.465 15.4462L13 15.4462L13 16.5262ZM13.18 6.65019C13.18 7.17019 13.125 7.63019 13.015 8.03019C12.915 8.43019 12.765 8.76519 12.565 9.03519C12.355 9.29519 12.105 9.49519 11.815 9.63519C11.525 9.76519 11.19 9.83019 10.81 9.83019C10.77 9.83019 10.73 9.83019 10.69 9.83019C10.64 9.83019 10.595 9.82519 10.555 9.81519L10.555 8.75019C10.605 8.76019 10.65 8.76519 10.69 8.76519C10.72 8.76519 10.75 8.76519 10.78 8.76519C11.17 8.75519 11.475 8.66019 11.695 8.48019C11.905 8.30019 12.055 8.04519 12.145 7.71519C12.235 7.38519 12.28 7.00519 12.28 6.57519C12.28 6.20519 12.23 5.87519 12.13 5.58519C12.02 5.28519 11.865 5.05019 11.665 4.88019C11.465 4.70019 11.22 4.61019 10.93 4.61019C10.56 4.61019 10.28 4.72519 10.09 4.95519C9.9 5.17519 9.755 5.46519 9.655 5.82519C9.545 6.18519 9.43 6.56019 9.31 6.95019C9.22 7.27019 9.125 7.58519 9.025 7.89519C8.915 8.20519 8.78 8.49019 8.62 8.75019C8.46 9.00019 8.255 9.20019 8.005 9.35019C7.755 9.50019 7.44 9.57519 7.06 9.57519C6.73 9.5752 6.435 9.5102 6.175 9.3802C5.915 9.24019 5.695 9.04519 5.515 8.79519C5.325 8.53519 5.18 8.22019 5.08 7.85019C4.98 7.48019 4.93 7.06019 4.93 6.59019C4.93 6.07019 4.99 5.62519 5.11 5.25519C5.23 4.88519 5.395 4.58519 5.605 4.35519C5.805 4.12519 6.035 3.95519 6.295 3.84519C6.545 3.73519 6.81 3.68019 7.09 3.68019C7.13 3.68019 7.175 3.68519 7.225 3.69519C7.275 3.69519 7.32 3.69519 7.36 3.69519L7.36 4.76019L7.165 4.76019C6.955 4.76019 6.75 4.81519 6.55 4.92519C6.35 5.02519 6.18 5.21019 6.04 5.48019C5.9 5.74019 5.83 6.13019 5.83 6.65019C5.83 6.96019 5.86 7.23019 5.92 7.46019C5.97 7.68019 6.045 7.87019 6.145 8.03019C6.245 8.18019 6.37 8.29519 6.52 8.37519C6.66 8.44519 6.825 8.48019 7.015 8.48019C7.305 8.48019 7.53 8.39019 7.69 8.21019C7.84 8.02019 7.965 7.77519 8.065 7.47519C8.155 7.17519 8.255 6.85519 8.365 6.51519C8.465 6.17519 8.57 5.83019 8.68 5.48019C8.79 5.12019 8.925 4.79019 9.085 4.49019C9.245 4.19019 9.46 3.95019 9.73 3.77019C9.99 3.59019 10.335 3.50019 10.765 3.50019C11.165 3.50019 11.52 3.58019 11.83 3.74019C12.13 3.90019 12.38 4.12019 12.58 4.40019C12.78 4.68019 12.93 5.01519 13.03 5.40519C13.13 5.78519 13.18 6.20019 13.18 6.65019Z" fill="white"/>
<path d="M13 152.635L2.71 152.635L2.71 150.835L9.835 148.15C10.005 148.09 10.19 148.03 10.39 147.97C10.58 147.91 10.765 147.855 10.945 147.805C11.115 147.745 11.26 147.7 11.38 147.67L11.38 147.58C11.24 147.54 11.075 147.49 10.885 147.43C10.695 147.37 10.51 147.315 10.33 147.265C10.14 147.205 9.975 147.15 9.835 147.1L2.71 144.415L2.71 142.63L13 142.63L13 143.815L6.595 143.815C6.345 143.815 6.065 143.81 5.755 143.8C5.435 143.79 5.125 143.785 4.825 143.785C4.525 143.775 4.295 143.77 4.135 143.77L4.135 143.875C4.285 143.915 4.465 143.97 4.675 144.04C4.875 144.1 5.08 144.165 5.29 144.235C5.5 144.295 5.695 144.355 5.875 144.415L13 147.175L13 148.135L5.875 150.88C5.715 150.94 5.54 151 5.35 151.06C5.16 151.12 4.96 151.18 4.75 151.24C4.54 151.3 4.335 151.36 4.135 151.42L4.135 151.525C4.335 151.515 4.585 151.51 4.885 151.51C5.185 151.5 5.485 151.495 5.785 151.495C6.085 151.485 6.355 151.48 6.595 151.48L13 151.48L13 152.635ZM15.73 139.696C15.73 139.886 15.715 140.056 15.685 140.206C15.665 140.346 15.65 140.461 15.64 140.551L14.83 140.551L14.83 139.966C14.83 139.706 14.785 139.456 14.695 139.216C14.605 138.976 14.425 138.751 14.155 138.541C13.895 138.331 13.51 138.141 13 137.971L5.11 141.031L5.11 139.891L9.31 138.271C9.5 138.191 9.74 138.106 10.03 138.016C10.31 137.916 10.6 137.816 10.9 137.716C11.19 137.606 11.45 137.516 11.68 137.446L11.68 137.356C11.52 137.316 11.335 137.266 11.125 137.206C10.915 137.136 10.7 137.066 10.48 136.996C10.26 136.926 10.05 136.861 9.85 136.801C9.65 136.731 9.475 136.671 9.325 136.621L5.11 135.226L5.11 134.131L12.865 136.831C13.305 136.981 13.7 137.141 14.05 137.311C14.4 137.481 14.7 137.676 14.95 137.896C15.2 138.106 15.39 138.361 15.52 138.661C15.66 138.951 15.73 139.296 15.73 139.696ZM13 127.575L2.71 130.47L2.71 129.21L9.805 127.29C9.925 127.26 10.095 127.22 10.315 127.17C10.535 127.11 10.76 127.055 10.99 127.005C11.22 126.945 11.43 126.895 11.62 126.855L11.62 126.735C11.48 126.705 11.325 126.675 11.155 126.645C10.985 126.605 10.815 126.57 10.645 126.54C10.475 126.5 10.315 126.465 10.165 126.435C10.015 126.395 9.895 126.365 9.805 126.345L2.71 124.575L2.71 123.03L9.805 121.26C9.925 121.22 10.095 121.175 10.315 121.125C10.535 121.075 10.76 121.025 10.99 120.975C11.22 120.915 11.43 120.87 11.62 120.84L11.62 120.72C11.48 120.69 11.325 120.655 11.155 120.615C10.985 120.575 10.82 120.535 10.66 120.495C10.49 120.455 10.33 120.42 10.18 120.39C10.02 120.35 9.895 120.315 9.805 120.285L2.71 118.365L2.71 117.225L13 120.12L13 121.59L5.905 123.42C5.755 123.46 5.57 123.505 5.35 123.555C5.13 123.595 4.905 123.64 4.675 123.69C4.435 123.73 4.225 123.765 4.045 123.795L4.045 123.9C4.225 123.93 4.435 123.97 4.675 124.02C4.905 124.06 5.13 124.105 5.35 124.155C5.57 124.205 5.755 124.25 5.905 124.29L13 126.075L13 127.575ZM13.18 113.502C13.18 114.262 13.035 114.912 12.745 115.452C12.445 115.982 11.99 116.387 11.38 116.667C10.77 116.937 9.995 117.072 9.055 117.072C8.105 117.072 7.33 116.937 6.73 116.667C6.12 116.387 5.67 115.982 5.38 115.452C5.08 114.912 4.93 114.262 4.93 113.502C4.93 112.722 5.08 112.072 5.38 111.552C5.67 111.022 6.12 110.622 6.73 110.352C7.33 110.072 8.105 109.932 9.055 109.932C9.995 109.932 10.77 110.072 11.38 110.352C11.99 110.622 12.445 111.022 12.745 111.552C13.035 112.072 13.18 112.722 13.18 113.502ZM12.265 113.502C12.265 112.972 12.16 112.527 11.95 112.167C11.74 111.807 11.415 111.532 10.975 111.342C10.525 111.152 9.945 111.057 9.235 111.057L8.875 111.057C8.165 111.057 7.59 111.152 7.15 111.342C6.7 111.532 6.37 111.807 6.16 112.167C5.95 112.527 5.845 112.972 5.845 113.502C5.845 114.032 5.95 114.477 6.16 114.837C6.37 115.197 6.7 115.472 7.15 115.662C7.59 115.852 8.165 115.947 8.875 115.947L9.235 115.947C9.945 115.947 10.525 115.852 10.975 115.662C11.415 115.472 11.74 115.197 11.95 114.837C12.16 114.477 12.265 114.032 12.265 113.502ZM13 108.287L5.11 108.287L5.11 107.417L6.43 107.327L6.43 107.222C6.19 107.152 5.955 107.047 5.725 106.907C5.495 106.767 5.305 106.577 5.155 106.337C5.005 106.097 4.93 105.792 4.93 105.422C4.93 105.282 4.945 105.152 4.975 105.032C4.995 104.912 5.015 104.822 5.035 104.762L6.025 104.762L6.025 105.227C6.025 105.577 6.09 105.877 6.22 106.127C6.34 106.377 6.515 106.582 6.745 106.742C6.975 106.902 7.24 107.022 7.54 107.102C7.83 107.172 8.135 107.207 8.455 107.207L13 107.207L13 108.287ZM13 103.526L2.155 103.526L2.155 102.446L9.145 102.446L5.11 98.8612L5.11 97.5562L8.185 100.286L13 97.4062L13 98.6662L8.98 100.991L10.465 102.446L13 102.446L13 103.526ZM13.18 93.6502C13.18 94.1702 13.125 94.6302 13.015 95.0302C12.915 95.4302 12.765 95.7652 12.565 96.0352C12.355 96.2952 12.105 96.4952 11.815 96.6352C11.525 96.7652 11.19 96.8302 10.81 96.8302C10.77 96.8302 10.73 96.8302 10.69 96.8302C10.64 96.8302 10.595 96.8252 10.555 96.8152L10.555 95.7502C10.605 95.7602 10.65 95.7652 10.69 95.7652C10.72 95.7652 10.75 95.7652 10.78 95.7652C11.17 95.7552 11.475 95.6602 11.695 95.4802C11.905 95.3002 12.055 95.0452 12.145 94.7152C12.235 94.3852 12.28 94.0052 12.28 93.5752C12.28 93.2052 12.23 92.8752 12.13 92.5852C12.02 92.2852 11.865 92.0502 11.665 91.8802C11.465 91.7002 11.22 91.6102 10.93 91.6102C10.56 91.6102 10.28 91.7252 10.09 91.9552C9.9 92.1752 9.755 92.4652 9.655 92.8252C9.545 93.1852 9.43 93.5602 9.31 93.9502C9.22 94.2702 9.125 94.5852 9.025 94.8952C8.915 95.2052 8.78 95.4902 8.62 95.7502C8.46 96.0002 8.255 96.2002 8.005 96.3502C7.755 96.5002 7.44 96.5752 7.06 96.5752C6.73 96.5752 6.435 96.5102 6.175 96.3802C5.915 96.2402 5.695 96.0452 5.515 95.7952C5.325 95.5352 5.18 95.2202 5.08 94.8502C4.98 94.4802 4.93 94.0602 4.93 93.5902C4.93 93.0702 4.99 92.6252 5.11 92.2552C5.23 91.8852 5.395 91.5852 5.605 91.3552C5.805 91.1252 6.035 90.9552 6.295 90.8452C6.545 90.7352 6.81 90.6802 7.09 90.6802C7.13 90.6802 7.175 90.6852 7.225 90.6952C7.275 90.6952 7.32 90.6952 7.36 90.6952L7.36 91.7602L7.165 91.7602C6.955 91.7602 6.75 91.8152 6.55 91.9252C6.35 92.0252 6.18 92.2102 6.04 92.4802C5.9 92.7402 5.83 93.1302 5.83 93.6502C5.83 93.9602 5.86 94.2302 5.92 94.4602C5.97 94.6802 6.045 94.8702 6.145 95.0302C6.245 95.1802 6.37 95.2952 6.52 95.3752C6.66 95.4452 6.825 95.4802 7.015 95.4802C7.305 95.4802 7.53 95.3902 7.69 95.2102C7.84 95.0202 7.965 94.7752 8.065 94.4752C8.155 94.1752 8.255 93.8552 8.365 93.5152C8.465 93.1752 8.57 92.8302 8.68 92.4802C8.79 92.1202 8.925 91.7902 9.085 91.4902C9.245 91.1902 9.46 90.9502 9.73 90.7702C9.99 90.5902 10.335 90.5002 10.765 90.5002C11.165 90.5002 11.52 90.5802 11.83 90.7402C12.13 90.9002 12.38 91.1202 12.58 91.4002C12.78 91.6802 12.93 92.0152 13.03 92.4052C13.13 92.7852 13.18 93.2002 13.18 93.6502Z" fill="white"/>
<path d="M13 239.635L2.71 239.635L2.71 237.835L9.835 235.15C10.005 235.09 10.19 235.03 10.39 234.97C10.58 234.91 10.765 234.855 10.945 234.805C11.115 234.745 11.26 234.7 11.38 234.67L11.38 234.58C11.24 234.54 11.075 234.49 10.885 234.43C10.695 234.37 10.51 234.315 10.33 234.265C10.14 234.205 9.975 234.15 9.835 234.1L2.71 231.415L2.71 229.63L13 229.63L13 230.815L6.595 230.815C6.345 230.815 6.065 230.81 5.755 230.8C5.435 230.79 5.125 230.785 4.825 230.785C4.525 230.775 4.295 230.77 4.135 230.77L4.135 230.875C4.285 230.915 4.465 230.97 4.675 231.04C4.875 231.1 5.08 231.165 5.29 231.235C5.5 231.295 5.695 231.355 5.875 231.415L13 234.175L13 235.135L5.875 237.88C5.715 237.94 5.54 238 5.35 238.06C5.16 238.12 4.96 238.18 4.75 238.24C4.54 238.3 4.335 238.36 4.135 238.42L4.135 238.525C4.335 238.515 4.585 238.51 4.885 238.51C5.185 238.5 5.485 238.495 5.785 238.495C6.085 238.485 6.355 238.48 6.595 238.48L13 238.48L13 239.635ZM15.73 226.696C15.73 226.886 15.715 227.056 15.685 227.206C15.665 227.346 15.65 227.461 15.64 227.551L14.83 227.551L14.83 226.966C14.83 226.706 14.785 226.456 14.695 226.216C14.605 225.976 14.425 225.751 14.155 225.541C13.895 225.331 13.51 225.141 13 224.971L5.11 228.031L5.11 226.891L9.31 225.271C9.5 225.191 9.74 225.106 10.03 225.016C10.31 224.916 10.6 224.816 10.9 224.716C11.19 224.606 11.45 224.516 11.68 224.446L11.68 224.356C11.52 224.316 11.335 224.266 11.125 224.206C10.915 224.136 10.7 224.066 10.48 223.996C10.26 223.926 10.05 223.861 9.85 223.801C9.65 223.731 9.475 223.671 9.325 223.621L5.11 222.226L5.11 221.131L12.865 223.831C13.305 223.981 13.7 224.141 14.05 224.311C14.4 224.481 14.7 224.676 14.95 224.896C15.2 225.106 15.39 225.361 15.52 225.661C15.66 225.951 15.73 226.296 15.73 226.696ZM13 214.575L2.71 217.47L2.71 216.21L9.805 214.29C9.925 214.26 10.095 214.22 10.315 214.17C10.535 214.11 10.76 214.055 10.99 214.005C11.22 213.945 11.43 213.895 11.62 213.855L11.62 213.735C11.48 213.705 11.325 213.675 11.155 213.645C10.985 213.605 10.815 213.57 10.645 213.54C10.475 213.5 10.315 213.465 10.165 213.435C10.015 213.395 9.895 213.365 9.805 213.345L2.71 211.575L2.71 210.03L9.805 208.26C9.925 208.22 10.095 208.175 10.315 208.125C10.535 208.075 10.76 208.025 10.99 207.975C11.22 207.915 11.43 207.87 11.62 207.84L11.62 207.72C11.48 207.69 11.325 207.655 11.155 207.615C10.985 207.575 10.82 207.535 10.66 207.495C10.49 207.455 10.33 207.42 10.18 207.39C10.02 207.35 9.895 207.315 9.805 207.285L2.71 205.365L2.71 204.225L13 207.12L13 208.59L5.905 210.42C5.755 210.46 5.57 210.505 5.35 210.555C5.13 210.595 4.905 210.64 4.675 210.69C4.435 210.73 4.225 210.765 4.045 210.795L4.045 210.9C4.225 210.93 4.435 210.97 4.675 211.02C4.905 211.06 5.13 211.105 5.35 211.155C5.57 211.205 5.755 211.25 5.905 211.29L13 213.075L13 214.575ZM13.18 200.502C13.18 201.262 13.035 201.912 12.745 202.452C12.445 202.982 11.99 203.387 11.38 203.667C10.77 203.937 9.995 204.072 9.055 204.072C8.105 204.072 7.33 203.937 6.73 203.667C6.12 203.387 5.67 202.982 5.38 202.452C5.08 201.912 4.93 201.262 4.93 200.502C4.93 199.722 5.08 199.072 5.38 198.552C5.67 198.022 6.12 197.622 6.73 197.352C7.33 197.072 8.105 196.932 9.055 196.932C9.995 196.932 10.77 197.072 11.38 197.352C11.99 197.622 12.445 198.022 12.745 198.552C13.035 199.072 13.18 199.722 13.18 200.502ZM12.265 200.502C12.265 199.972 12.16 199.527 11.95 199.167C11.74 198.807 11.415 198.532 10.975 198.342C10.525 198.152 9.945 198.057 9.235 198.057L8.875 198.057C8.165 198.057 7.59 198.152 7.15 198.342C6.7 198.532 6.37 198.807 6.16 199.167C5.95 199.527 5.845 199.972 5.845 200.502C5.845 201.032 5.95 201.477 6.16 201.837C6.37 202.197 6.7 202.472 7.15 202.662C7.59 202.852 8.165 202.947 8.875 202.947L9.235 202.947C9.945 202.947 10.525 202.852 10.975 202.662C11.415 202.472 11.74 202.197 11.95 201.837C12.16 201.477 12.265 201.032 12.265 200.502ZM13 195.287L5.11 195.287L5.11 194.417L6.43 194.327L6.43 194.222C6.19 194.152 5.955 194.047 5.725 193.907C5.495 193.767 5.305 193.577 5.155 193.337C5.005 193.097 4.93 192.792 4.93 192.422C4.93 192.282 4.945 192.152 4.975 192.032C4.995 191.912 5.015 191.822 5.035 191.762L6.025 191.762L6.025 192.227C6.025 192.577 6.09 192.877 6.22 193.127C6.34 193.377 6.515 193.582 6.745 193.742C6.975 193.902 7.24 194.022 7.54 194.102C7.83 194.172 8.135 194.207 8.455 194.207L13 194.207L13 195.287ZM13 190.526L2.155 190.526L2.155 189.446L9.145 189.446L5.11 185.861L5.11 184.556L8.185 187.286L13 184.406L13 185.666L8.98 187.991L10.465 189.446L13 189.446L13 190.526ZM13.18 180.65C13.18 181.17 13.125 181.63 13.015 182.03C12.915 182.43 12.765 182.765 12.565 183.035C12.355 183.295 12.105 183.495 11.815 183.635C11.525 183.765 11.19 183.83 10.81 183.83C10.77 183.83 10.73 183.83 10.69 183.83C10.64 183.83 10.595 183.825 10.555 183.815L10.555 182.75C10.605 182.76 10.65 182.765 10.69 182.765C10.72 182.765 10.75 182.765 10.78 182.765C11.17 182.755 11.475 182.66 11.695 182.48C11.905 182.3 12.055 182.045 12.145 181.715C12.235 181.385 12.28 181.005 12.28 180.575C12.28 180.205 12.23 179.875 12.13 179.585C12.02 179.285 11.865 179.05 11.665 178.88C11.465 178.7 11.22 178.61 10.93 178.61C10.56 178.61 10.28 178.725 10.09 178.955C9.9 179.175 9.755 179.465 9.655 179.825C9.545 180.185 9.43 180.56 9.31 180.95C9.22 181.27 9.125 181.585 9.025 181.895C8.915 182.205 8.78 182.49 8.62 182.75C8.46 183 8.255 183.2 8.005 183.35C7.755 183.5 7.44 183.575 7.06 183.575C6.73 183.575 6.435 183.51 6.175 183.38C5.915 183.24 5.695 183.045 5.515 182.795C5.325 182.535 5.18 182.22 5.08 181.85C4.98 181.48 4.93 181.06 4.93 180.59C4.93 180.07 4.99 179.625 5.11 179.255C5.23 178.885 5.395 178.585 5.605 178.355C5.805 178.125 6.035 177.955 6.295 177.845C6.545 177.735 6.81 177.68 7.09 177.68C7.13 177.68 7.175 177.685 7.225 177.695C7.275 177.695 7.32 177.695 7.36 177.695L7.36 178.76L7.165 178.76C6.955 178.76 6.75 178.815 6.55 178.925C6.35 179.025 6.18 179.21 6.04 179.48C5.9 179.74 5.83 180.13 5.83 180.65C5.83 180.96 5.86 181.23 5.92 181.46C5.97 181.68 6.045 181.87 6.145 182.03C6.245 182.18 6.37 182.295 6.52 182.375C6.66 182.445 6.825 182.48 7.015 182.48C7.305 182.48 7.53 182.39 7.69 182.21C7.84 182.02 7.965 181.775 8.065 181.475C8.155 181.175 8.255 180.855 8.365 180.515C8.465 180.175 8.57 179.83 8.68 179.48C8.79 179.12 8.925 178.79 9.085 178.49C9.245 178.19 9.46 177.95 9.73 177.77C9.99 177.59 10.335 177.5 10.765 177.5C11.165 177.5 11.52 177.58 11.83 177.74C12.13 177.9 12.38 178.12 12.58 178.4C12.78 178.68 12.93 179.015 13.03 179.405C13.13 179.785 13.18 180.2 13.18 180.65Z" fill="white"/>
<path d="M13 326.635L2.71 326.635L2.71 324.835L9.835 322.15C10.005 322.09 10.19 322.03 10.39 321.97C10.58 321.91 10.765 321.855 10.945 321.805C11.115 321.745 11.26 321.7 11.38 321.67L11.38 321.58C11.24 321.54 11.075 321.49 10.885 321.43C10.695 321.37 10.51 321.315 10.33 321.265C10.14 321.205 9.975 321.15 9.835 321.1L2.71 318.415L2.71 316.63L13 316.63L13 317.815L6.595 317.815C6.345 317.815 6.065 317.81 5.755 317.8C5.435 317.79 5.125 317.785 4.825 317.785C4.525 317.775 4.295 317.77 4.135 317.77L4.135 317.875C4.285 317.915 4.465 317.97 4.675 318.04C4.875 318.1 5.08 318.165 5.29 318.235C5.5 318.295 5.695 318.355 5.875 318.415L13 321.175L13 322.135L5.875 324.88C5.715 324.94 5.54 325 5.35 325.06C5.16 325.12 4.96 325.18 4.75 325.24C4.54 325.3 4.335 325.36 4.135 325.42L4.135 325.525C4.335 325.515 4.585 325.51 4.885 325.51C5.185 325.5 5.485 325.495 5.785 325.495C6.085 325.485 6.355 325.48 6.595 325.48L13 325.48L13 326.635ZM15.73 313.696C15.73 313.886 15.715 314.056 15.685 314.206C15.665 314.346 15.65 314.461 15.64 314.551L14.83 314.551L14.83 313.966C14.83 313.706 14.785 313.456 14.695 313.216C14.605 312.976 14.425 312.751 14.155 312.541C13.895 312.331 13.51 312.141 13 311.971L5.11 315.031L5.11 313.891L9.31 312.271C9.5 312.191 9.74 312.106 10.03 312.016C10.31 311.916 10.6 311.816 10.9 311.716C11.19 311.606 11.45 311.516 11.68 311.446L11.68 311.356C11.52 311.316 11.335 311.266 11.125 311.206C10.915 311.136 10.7 311.066 10.48 310.996C10.26 310.926 10.05 310.861 9.85 310.801C9.65 310.731 9.475 310.671 9.325 310.621L5.11 309.226L5.11 308.131L12.865 310.831C13.305 310.981 13.7 311.141 14.05 311.311C14.4 311.481 14.7 311.676 14.95 311.896C15.2 312.106 15.39 312.361 15.52 312.661C15.66 312.951 15.73 313.296 15.73 313.696ZM13 301.575L2.71 304.47L2.71 303.21L9.805 301.29C9.925 301.26 10.095 301.22 10.315 301.17C10.535 301.11 10.76 301.055 10.99 301.005C11.22 300.945 11.43 300.895 11.62 300.855L11.62 300.735C11.48 300.705 11.325 300.675 11.155 300.645C10.985 300.605 10.815 300.57 10.645 300.54C10.475 300.5 10.315 300.465 10.165 300.435C10.015 300.395 9.895 300.365 9.805 300.345L2.71 298.575L2.71 297.03L9.805 295.26C9.925 295.22 10.095 295.175 10.315 295.125C10.535 295.075 10.76 295.025 10.99 294.975C11.22 294.915 11.43 294.87 11.62 294.84L11.62 294.72C11.48 294.69 11.325 294.655 11.155 294.615C10.985 294.575 10.82 294.535 10.66 294.495C10.49 294.455 10.33 294.42 10.18 294.39C10.02 294.35 9.895 294.315 9.805 294.285L2.71 292.365L2.71 291.225L13 294.12L13 295.59L5.905 297.42C5.755 297.46 5.57 297.505 5.35 297.555C5.13 297.595 4.905 297.64 4.675 297.69C4.435 297.73 4.225 297.765 4.045 297.795L4.045 297.9C4.225 297.93 4.435 297.97 4.675 298.02C4.905 298.06 5.13 298.105 5.35 298.155C5.57 298.205 5.755 298.25 5.905 298.29L13 300.075L13 301.575ZM13.18 287.502C13.18 288.262 13.035 288.912 12.745 289.452C12.445 289.982 11.99 290.387 11.38 290.667C10.77 290.937 9.995 291.072 9.055 291.072C8.105 291.072 7.33 290.937 6.73 290.667C6.12 290.387 5.67 289.982 5.38 289.452C5.08 288.912 4.93 288.262 4.93 287.502C4.93 286.722 5.08 286.072 5.38 285.552C5.67 285.022 6.12 284.622 6.73 284.352C7.33 284.072 8.105 283.932 9.055 283.932C9.995 283.932 10.77 284.072 11.38 284.352C11.99 284.622 12.445 285.022 12.745 285.552C13.035 286.072 13.18 286.722 13.18 287.502ZM12.265 287.502C12.265 286.972 12.16 286.527 11.95 286.167C11.74 285.807 11.415 285.532 10.975 285.342C10.525 285.152 9.945 285.057 9.235 285.057L8.875 285.057C8.165 285.057 7.59 285.152 7.15 285.342C6.7 285.532 6.37 285.807 6.16 286.167C5.95 286.527 5.845 286.972 5.845 287.502C5.845 288.032 5.95 288.477 6.16 288.837C6.37 289.197 6.7 289.472 7.15 289.662C7.59 289.852 8.165 289.947 8.875 289.947L9.235 289.947C9.945 289.947 10.525 289.852 10.975 289.662C11.415 289.472 11.74 289.197 11.95 288.837C12.16 288.477 12.265 288.032 12.265 287.502ZM13 282.287L5.11 282.287L5.11 281.417L6.43 281.327L6.43 281.222C6.19 281.152 5.955 281.047 5.725 280.907C5.495 280.767 5.305 280.577 5.155 280.337C5.005 280.097 4.93 279.792 4.93 279.422C4.93 279.282 4.945 279.152 4.975 279.032C4.995 278.912 5.015 278.822 5.035 278.762L6.025 278.762L6.025 279.227C6.025 279.577 6.09 279.877 6.22 280.127C6.34 280.377 6.515 280.582 6.745 280.742C6.975 280.902 7.24 281.022 7.54 281.102C7.83 281.172 8.135 281.207 8.455 281.207L13 281.207L13 282.287ZM13 277.526L2.155 277.526L2.155 276.446L9.145 276.446L5.11 272.861L5.11 271.556L8.185 274.286L13 271.406L13 272.666L8.98 274.991L10.465 276.446L13 276.446L13 277.526ZM13.18 267.65C13.18 268.17 13.125 268.63 13.015 269.03C12.915 269.43 12.765 269.765 12.565 270.035C12.355 270.295 12.105 270.495 11.815 270.635C11.525 270.765 11.19 270.83 10.81 270.83C10.77 270.83 10.73 270.83 10.69 270.83C10.64 270.83 10.595 270.825 10.555 270.815L10.555 269.75C10.605 269.76 10.65 269.765 10.69 269.765C10.72 269.765 10.75 269.765 10.78 269.765C11.17 269.755 11.475 269.66 11.695 269.48C11.905 269.3 12.055 269.045 12.145 268.715C12.235 268.385 12.28 268.005 12.28 267.575C12.28 267.205 12.23 266.875 12.13 266.585C12.02 266.285 11.865 266.05 11.665 265.88C11.465 265.7 11.22 265.61 10.93 265.61C10.56 265.61 10.28 265.725 10.09 265.955C9.9 266.175 9.755 266.465 9.655 266.825C9.545 267.185 9.43 267.56 9.31 267.95C9.22 268.27 9.125 268.585 9.025 268.895C8.915 269.205 8.78 269.49 8.62 269.75C8.46 270 8.255 270.2 8.005 270.35C7.755 270.5 7.44 270.575 7.06 270.575C6.73 270.575 6.435 270.51 6.175 270.38C5.915 270.24 5.695 270.045 5.515 269.795C5.325 269.535 5.18 269.22 5.08 268.85C4.98 268.48 4.93 268.06 4.93 267.59C4.93 267.07 4.99 266.625 5.11 266.255C5.23 265.885 5.395 265.585 5.605 265.355C5.805 265.125 6.035 264.955 6.295 264.845C6.545 264.735 6.81 264.68 7.09 264.68C7.13 264.68 7.175 264.685 7.225 264.695C7.275 264.695 7.32 264.695 7.36 264.695L7.36 265.76L7.165 265.76C6.955 265.76 6.75 265.815 6.55 265.925C6.35 266.025 6.18 266.21 6.04 266.48C5.9 266.74 5.83 267.13 5.83 267.65C5.83 267.96 5.86 268.23 5.92 268.46C5.97 268.68 6.045 268.87 6.145 269.03C6.245 269.18 6.37 269.295 6.52 269.375C6.66 269.445 6.825 269.48 7.015 269.48C7.305 269.48 7.53 269.39 7.69 269.21C7.84 269.02 7.965 268.775 8.065 268.475C8.155 268.175 8.255 267.855 8.365 267.515C8.465 267.175 8.57 266.83 8.68 266.48C8.79 266.12 8.925 265.79 9.085 265.49C9.245 265.19 9.46 264.95 9.73 264.77C9.99 264.59 10.335 264.5 10.765 264.5C11.165 264.5 11.52 264.58 11.83 264.74C12.13 264.9 12.38 265.12 12.58 265.4C12.78 265.68 12.93 266.015 13.03 266.405C13.13 266.785 13.18 267.2 13.18 267.65Z" fill="white"/>
<path d="M13 413.635L2.71 413.635L2.71 411.835L9.835 409.15C10.005 409.09 10.19 409.03 10.39 408.97C10.58 408.91 10.765 408.855 10.945 408.805C11.115 408.745 11.26 408.7 11.38 408.67L11.38 408.58C11.24 408.54 11.075 408.49 10.885 408.43C10.695 408.37 10.51 408.315 10.33 408.265C10.14 408.205 9.975 408.15 9.835 408.1L2.71 405.415L2.71 403.63L13 403.63L13 404.815L6.595 404.815C6.345 404.815 6.065 404.81 5.755 404.8C5.435 404.79 5.125 404.785 4.825 404.785C4.525 404.775 4.295 404.77 4.135 404.77L4.135 404.875C4.285 404.915 4.465 404.97 4.675 405.04C4.875 405.1 5.08 405.165 5.29 405.235C5.5 405.295 5.695 405.355 5.875 405.415L13 408.175L13 409.135L5.875 411.88C5.715 411.94 5.54 412 5.35 412.06C5.16 412.12 4.96 412.18 4.75 412.24C4.54 412.3 4.335 412.36 4.135 412.42L4.135 412.525C4.335 412.515 4.585 412.51 4.885 412.51C5.185 412.5 5.485 412.495 5.785 412.495C6.085 412.485 6.355 412.48 6.595 412.48L13 412.48L13 413.635ZM15.73 400.696C15.73 400.886 15.715 401.056 15.685 401.206C15.665 401.346 15.65 401.461 15.64 401.551L14.83 401.551L14.83 400.966C14.83 400.706 14.785 400.456 14.695 400.216C14.605 399.976 14.425 399.751 14.155 399.541C13.895 399.331 13.51 399.141 13 398.971L5.11 402.031L5.11 400.891L9.31 399.271C9.5 399.191 9.74 399.106 10.03 399.016C10.31 398.916 10.6 398.816 10.9 398.716C11.19 398.606 11.45 398.516 11.68 398.446L11.68 398.356C11.52 398.316 11.335 398.266 11.125 398.206C10.915 398.136 10.7 398.066 10.48 397.996C10.26 397.926 10.05 397.861 9.85 397.801C9.65 397.731 9.475 397.671 9.325 397.621L5.11 396.226L5.11 395.131L12.865 397.831C13.305 397.981 13.7 398.141 14.05 398.311C14.4 398.481 14.7 398.676 14.95 398.896C15.2 399.106 15.39 399.361 15.52 399.661C15.66 399.951 15.73 400.296 15.73 400.696ZM13 388.575L2.71 391.47L2.71 390.21L9.805 388.29C9.925 388.26 10.095 388.22 10.315 388.17C10.535 388.11 10.76 388.055 10.99 388.005C11.22 387.945 11.43 387.895 11.62 387.855L11.62 387.735C11.48 387.705 11.325 387.675 11.155 387.645C10.985 387.605 10.815 387.57 10.645 387.54C10.475 387.5 10.315 387.465 10.165 387.435C10.015 387.395 9.895 387.365 9.805 387.345L2.71 385.575L2.71 384.03L9.805 382.26C9.925 382.22 10.095 382.175 10.315 382.125C10.535 382.075 10.76 382.025 10.99 381.975C11.22 381.915 11.43 381.87 11.62 381.84L11.62 381.72C11.48 381.69 11.325 381.655 11.155 381.615C10.985 381.575 10.82 381.535 10.66 381.495C10.49 381.455 10.33 381.42 10.18 381.39C10.02 381.35 9.895 381.315 9.805 381.285L2.71 379.365L2.71 378.225L13 381.12L13 382.59L5.905 384.42C5.755 384.46 5.57 384.505 5.35 384.555C5.13 384.595 4.905 384.64 4.675 384.69C4.435 384.73 4.225 384.765 4.045 384.795L4.045 384.9C4.225 384.93 4.435 384.97 4.675 385.02C4.905 385.06 5.13 385.105 5.35 385.155C5.57 385.205 5.755 385.25 5.905 385.29L13 387.075L13 388.575ZM13.18 374.502C13.18 375.262 13.035 375.912 12.745 376.452C12.445 376.982 11.99 377.387 11.38 377.667C10.77 377.937 9.995 378.072 9.055 378.072C8.105 378.072 7.33 377.937 6.73 377.667C6.12 377.387 5.67 376.982 5.38 376.452C5.08 375.912 4.93 375.262 4.93 374.502C4.93 373.722 5.08 373.072 5.38 372.552C5.67 372.022 6.12 371.622 6.73 371.352C7.33 371.072 8.105 370.932 9.055 370.932C9.995 370.932 10.77 371.072 11.38 371.352C11.99 371.622 12.445 372.022 12.745 372.552C13.035 373.072 13.18 373.722 13.18 374.502ZM12.265 374.502C12.265 373.972 12.16 373.527 11.95 373.167C11.74 372.807 11.415 372.532 10.975 372.342C10.525 372.152 9.945 372.057 9.235 372.057L8.875 372.057C8.165 372.057 7.59 372.152 7.15 372.342C6.7 372.532 6.37 372.807 6.16 373.167C5.95 373.527 5.845 373.972 5.845 374.502C5.845 375.032 5.95 375.477 6.16 375.837C6.37 376.197 6.7 376.472 7.15 376.662C7.59 376.852 8.165 376.947 8.875 376.947L9.235 376.947C9.945 376.947 10.525 376.852 10.975 376.662C11.415 376.472 11.74 376.197 11.95 375.837C12.16 375.477 12.265 375.032 12.265 374.502ZM13 369.287L5.11 369.287L5.11 368.417L6.43 368.327L6.43 368.222C6.19 368.152 5.955 368.047 5.725 367.907C5.495 367.767 5.305 367.577 5.155 367.337C5.005 367.097 4.93 366.792 4.93 366.422C4.93 366.282 4.945 366.152 4.975 366.032C4.995 365.912 5.015 365.822 5.035 365.762L6.025 365.762L6.025 366.227C6.025 366.577 6.09 366.877 6.22 367.127C6.34 367.377 6.515 367.582 6.745 367.742C6.975 367.902 7.24 368.022 7.54 368.102C7.83 368.172 8.135 368.207 8.455 368.207L13 368.207L13 369.287ZM13 364.526L2.155 364.526L2.155 363.446L9.145 363.446L5.11 359.861L5.11 358.556L8.185 361.286L13 358.406L13 359.666L8.98 361.991L10.465 363.446L13 363.446L13 364.526ZM13.18 354.65C13.18 355.17 13.125 355.63 13.015 356.03C12.915 356.43 12.765 356.765 12.565 357.035C12.355 357.295 12.105 357.495 11.815 357.635C11.525 357.765 11.19 357.83 10.81 357.83C10.77 357.83 10.73 357.83 10.69 357.83C10.64 357.83 10.595 357.825 10.555 357.815L10.555 356.75C10.605 356.76 10.65 356.765 10.69 356.765C10.72 356.765 10.75 356.765 10.78 356.765C11.17 356.755 11.475 356.66 11.695 356.48C11.905 356.3 12.055 356.045 12.145 355.715C12.235 355.385 12.28 355.005 12.28 354.575C12.28 354.205 12.23 353.875 12.13 353.585C12.02 353.285 11.865 353.05 11.665 352.88C11.465 352.7 11.22 352.61 10.93 352.61C10.56 352.61 10.28 352.725 10.09 352.955C9.9 353.175 9.755 353.465 9.655 353.825C9.545 354.185 9.43 354.56 9.31 354.95C9.22 355.27 9.125 355.585 9.025 355.895C8.915 356.205 8.78 356.49 8.62 356.75C8.46 357 8.255 357.2 8.005 357.35C7.755 357.5 7.44 357.575 7.06 357.575C6.73 357.575 6.435 357.51 6.175 357.38C5.915 357.24 5.695 357.045 5.515 356.795C5.325 356.535 5.18 356.22 5.08 355.85C4.98 355.48 4.93 355.06 4.93 354.59C4.93 354.07 4.99 353.625 5.11 353.255C5.23 352.885 5.395 352.585 5.605 352.355C5.805 352.125 6.035 351.955 6.295 351.845C6.545 351.735 6.81 351.68 7.09 351.68C7.13 351.68 7.175 351.685 7.225 351.695C7.275 351.695 7.32 351.695 7.36 351.695L7.36 352.76L7.165 352.76C6.955 352.76 6.75 352.815 6.55 352.925C6.35 353.025 6.18 353.21 6.04 353.48C5.9 353.74 5.83 354.13 5.83 354.65C5.83 354.96 5.86 355.23 5.92 355.46C5.97 355.68 6.045 355.87 6.145 356.03C6.245 356.18 6.37 356.295 6.52 356.375C6.66 356.445 6.825 356.48 7.015 356.48C7.305 356.48 7.53 356.39 7.69 356.21C7.84 356.02 7.965 355.775 8.065 355.475C8.155 355.175 8.255 354.855 8.365 354.515C8.465 354.175 8.57 353.83 8.68 353.48C8.79 353.12 8.925 352.79 9.085 352.49C9.245 352.19 9.46 351.95 9.73 351.77C9.99 351.59 10.335 351.5 10.765 351.5C11.165 351.5 11.52 351.58 11.83 351.74C12.13 351.9 12.38 352.12 12.58 352.4C12.78 352.68 12.93 353.015 13.03 353.405C13.13 353.785 13.18 354.2 13.18 354.65Z" fill="white"/>
<path d="M13 500.635L2.71 500.635L2.71 498.835L9.835 496.15C10.005 496.09 10.19 496.03 10.39 495.97C10.58 495.91 10.765 495.855 10.945 495.805C11.115 495.745 11.26 495.7 11.38 495.67L11.38 495.58C11.24 495.54 11.075 495.49 10.885 495.43C10.695 495.37 10.51 495.315 10.33 495.265C10.14 495.205 9.975 495.15 9.835 495.1L2.71 492.415L2.71 490.63L13 490.63L13 491.815L6.595 491.815C6.345 491.815 6.065 491.81 5.755 491.8C5.435 491.79 5.125 491.785 4.825 491.785C4.525 491.775 4.295 491.77 4.135 491.77L4.135 491.875C4.285 491.915 4.465 491.97 4.675 492.04C4.875 492.1 5.08 492.165 5.29 492.235C5.5 492.295 5.695 492.355 5.875 492.415L13 495.175L13 496.135L5.875 498.88C5.715 498.94 5.54 499 5.35 499.06C5.16 499.12 4.96 499.18 4.75 499.24C4.54 499.3 4.335 499.36 4.135 499.42L4.135 499.525C4.335 499.515 4.585 499.51 4.885 499.51C5.185 499.5 5.485 499.495 5.785 499.495C6.085 499.485 6.355 499.48 6.595 499.48L13 499.48L13 500.635ZM15.73 487.696C15.73 487.886 15.715 488.056 15.685 488.206C15.665 488.346 15.65 488.461 15.64 488.551L14.83 488.551L14.83 487.966C14.83 487.706 14.785 487.456 14.695 487.216C14.605 486.976 14.425 486.751 14.155 486.541C13.895 486.331 13.51 486.141 13 485.971L5.11 489.031L5.11 487.891L9.31 486.271C9.5 486.191 9.74 486.106 10.03 486.016C10.31 485.916 10.6 485.816 10.9 485.716C11.19 485.606 11.45 485.516 11.68 485.446L11.68 485.356C11.52 485.316 11.335 485.266 11.125 485.206C10.915 485.136 10.7 485.066 10.48 484.996C10.26 484.926 10.05 484.861 9.85 484.801C9.65 484.731 9.475 484.671 9.325 484.621L5.11 483.226L5.11 482.131L12.865 484.831C13.305 484.981 13.7 485.141 14.05 485.311C14.4 485.481 14.7 485.676 14.95 485.896C15.2 486.106 15.39 486.361 15.52 486.661C15.66 486.951 15.73 487.296 15.73 487.696ZM13 475.575L2.71 478.47L2.71 477.21L9.805 475.29C9.925 475.26 10.095 475.22 10.315 475.17C10.535 475.11 10.76 475.055 10.99 475.005C11.22 474.945 11.43 474.895 11.62 474.855L11.62 474.735C11.48 474.705 11.325 474.675 11.155 474.645C10.985 474.605 10.815 474.57 10.645 474.54C10.475 474.5 10.315 474.465 10.165 474.435C10.015 474.395 9.895 474.365 9.805 474.345L2.71 472.575L2.71 471.03L9.805 469.26C9.925 469.22 10.095 469.175 10.315 469.125C10.535 469.075 10.76 469.025 10.99 468.975C11.22 468.915 11.43 468.87 11.62 468.84L11.62 468.72C11.48 468.69 11.325 468.655 11.155 468.615C10.985 468.575 10.82 468.535 10.66 468.495C10.49 468.455 10.33 468.42 10.18 468.39C10.02 468.35 9.895 468.315 9.805 468.285L2.71 466.365L2.71 465.225L13 468.12L13 469.59L5.905 471.42C5.755 471.46 5.57 471.505 5.35 471.555C5.13 471.595 4.905 471.64 4.675 471.69C4.435 471.73 4.225 471.765 4.045 471.795L4.045 471.9C4.225 471.93 4.435 471.97 4.675 472.02C4.905 472.06 5.13 472.105 5.35 472.155C5.57 472.205 5.755 472.25 5.905 472.29L13 474.075L13 475.575ZM13.18 461.502C13.18 462.262 13.035 462.912 12.745 463.452C12.445 463.982 11.99 464.387 11.38 464.667C10.77 464.937 9.995 465.072 9.055 465.072C8.105 465.072 7.33 464.937 6.73 464.667C6.12 464.387 5.67 463.982 5.38 463.452C5.08 462.912 4.93 462.262 4.93 461.502C4.93 460.722 5.08 460.072 5.38 459.552C5.67 459.022 6.12 458.622 6.73 458.352C7.33 458.072 8.105 457.932 9.055 457.932C9.995 457.932 10.77 458.072 11.38 458.352C11.99 458.622 12.445 459.022 12.745 459.552C13.035 460.072 13.18 460.722 13.18 461.502ZM12.265 461.502C12.265 460.972 12.16 460.527 11.95 460.167C11.74 459.807 11.415 459.532 10.975 459.342C10.525 459.152 9.945 459.057 9.235 459.057L8.875 459.057C8.165 459.057 7.59 459.152 7.15 459.342C6.7 459.532 6.37 459.807 6.16 460.167C5.95 460.527 5.845 460.972 5.845 461.502C5.845 462.032 5.95 462.477 6.16 462.837C6.37 463.197 6.7 463.472 7.15 463.662C7.59 463.852 8.165 463.947 8.875 463.947L9.235 463.947C9.945 463.947 10.525 463.852 10.975 463.662C11.415 463.472 11.74 463.197 11.95 462.837C12.16 462.477 12.265 462.032 12.265 461.502ZM13 456.287L5.11 456.287L5.11 455.417L6.43 455.327L6.43 455.222C6.19 455.152 5.955 455.047 5.725 454.907C5.495 454.767 5.305 454.577 5.155 454.337C5.005 454.097 4.93 453.792 4.93 453.422C4.93 453.282 4.945 453.152 4.975 453.032C4.995 452.912 5.015 452.822 5.035 452.762L6.025 452.762L6.025 453.227C6.025 453.577 6.09 453.877 6.22 454.127C6.34 454.377 6.515 454.582 6.745 454.742C6.975 454.902 7.24 455.022 7.54 455.102C7.83 455.172 8.135 455.207 8.455 455.207L13 455.207L13 456.287ZM13 451.526L2.155 451.526L2.155 450.446L9.145 450.446L5.11 446.861L5.11 445.556L8.185 448.286L13 445.406L13 446.666L8.98 448.991L10.465 450.446L13 450.446L13 451.526ZM13.18 441.65C13.18 442.17 13.125 442.63 13.015 443.03C12.915 443.43 12.765 443.765 12.565 444.035C12.355 444.295 12.105 444.495 11.815 444.635C11.525 444.765 11.19 444.83 10.81 444.83C10.77 444.83 10.73 444.83 10.69 444.83C10.64 444.83 10.595 444.825 10.555 444.815L10.555 443.75C10.605 443.76 10.65 443.765 10.69 443.765C10.72 443.765 10.75 443.765 10.78 443.765C11.17 443.755 11.475 443.66 11.695 443.48C11.905 443.3 12.055 443.045 12.145 442.715C12.235 442.385 12.28 442.005 12.28 441.575C12.28 441.205 12.23 440.875 12.13 440.585C12.02 440.285 11.865 440.05 11.665 439.88C11.465 439.7 11.22 439.61 10.93 439.61C10.56 439.61 10.28 439.725 10.09 439.955C9.9 440.175 9.755 440.465 9.655 440.825C9.545 441.185 9.43 441.56 9.31 441.95C9.22 442.27 9.125 442.585 9.025 442.895C8.915 443.205 8.78 443.49 8.62 443.75C8.46 444 8.255 444.2 8.005 444.35C7.755 444.5 7.44 444.575 7.06 444.575C6.73 444.575 6.435 444.51 6.175 444.38C5.915 444.24 5.695 444.045 5.515 443.795C5.325 443.535 5.18 443.22 5.08 442.85C4.98 442.48 4.93 442.06 4.93 441.59C4.93 441.07 4.99 440.625 5.11 440.255C5.23 439.885 5.395 439.585 5.605 439.355C5.805 439.125 6.035 438.955 6.295 438.845C6.545 438.735 6.81 438.68 7.09 438.68C7.13 438.68 7.175 438.685 7.225 438.695C7.275 438.695 7.32 438.695 7.36 438.695L7.36 439.76L7.165 439.76C6.955 439.76 6.75 439.815 6.55 439.925C6.35 440.025 6.18 440.21 6.04 440.48C5.9 440.74 5.83 441.13 5.83 441.65C5.83 441.96 5.86 442.23 5.92 442.46C5.97 442.68 6.045 442.87 6.145 443.03C6.245 443.18 6.37 443.295 6.52 443.375C6.66 443.445 6.825 443.48 7.015 443.48C7.305 443.48 7.53 443.39 7.69 443.21C7.84 443.02 7.965 442.775 8.065 442.475C8.155 442.175 8.255 441.855 8.365 441.515C8.465 441.175 8.57 440.83 8.68 440.48C8.79 440.12 8.925 439.79 9.085 439.49C9.245 439.19 9.46 438.95 9.73 438.77C9.99 438.59 10.335 438.5 10.765 438.5C11.165 438.5 11.52 438.58 11.83 438.74C12.13 438.9 12.38 439.12 12.58 439.4C12.78 439.68 12.93 440.015 13.03 440.405C13.13 440.785 13.18 441.2 13.18 441.65Z" fill="white"/>
<path d="M13 587.635L2.71 587.635L2.71 585.835L9.835 583.15C10.005 583.09 10.19 583.03 10.39 582.97C10.58 582.91 10.765 582.855 10.945 582.805C11.115 582.745 11.26 582.7 11.38 582.67L11.38 582.58C11.24 582.54 11.075 582.49 10.885 582.43C10.695 582.37 10.51 582.315 10.33 582.265C10.14 582.205 9.975 582.15 9.835 582.1L2.71 579.415L2.71 577.63L13 577.63L13 578.815L6.595 578.815C6.345 578.815 6.065 578.81 5.755 578.8C5.435 578.79 5.125 578.785 4.825 578.785C4.525 578.775 4.295 578.77 4.135 578.77L4.135 578.875C4.285 578.915 4.465 578.97 4.675 579.04C4.875 579.1 5.08 579.165 5.29 579.235C5.5 579.295 5.695 579.355 5.875 579.415L13 582.175L13 583.135L5.875 585.88C5.715 585.94 5.54 586 5.35 586.06C5.16 586.12 4.96 586.18 4.75 586.24C4.54 586.3 4.335 586.36 4.135 586.42L4.135 586.525C4.335 586.515 4.585 586.51 4.885 586.51C5.185 586.5 5.485 586.495 5.785 586.495C6.085 586.485 6.355 586.48 6.595 586.48L13 586.48L13 587.635ZM15.73 574.696C15.73 574.886 15.715 575.056 15.685 575.206C15.665 575.346 15.65 575.461 15.64 575.551L14.83 575.551L14.83 574.966C14.83 574.706 14.785 574.456 14.695 574.216C14.605 573.976 14.425 573.751 14.155 573.541C13.895 573.331 13.51 573.141 13 572.971L5.11 576.031L5.11 574.891L9.31 573.271C9.5 573.191 9.74 573.106 10.03 573.016C10.31 572.916 10.6 572.816 10.9 572.716C11.19 572.606 11.45 572.516 11.68 572.446L11.68 572.356C11.52 572.316 11.335 572.266 11.125 572.206C10.915 572.136 10.7 572.066 10.48 571.996C10.26 571.926 10.05 571.861 9.85 571.801C9.65 571.731 9.475 571.671 9.325 571.621L5.11 570.226L5.11 569.131L12.865 571.831C13.305 571.981 13.7 572.141 14.05 572.311C14.4 572.481 14.7 572.676 14.95 572.896C15.2 573.106 15.39 573.361 15.52 573.661C15.66 573.951 15.73 574.296 15.73 574.696ZM13 562.575L2.71 565.47L2.71 564.21L9.805 562.29C9.925 562.26 10.095 562.22 10.315 562.17C10.535 562.11 10.76 562.055 10.99 562.005C11.22 561.945 11.43 561.895 11.62 561.855L11.62 561.735C11.48 561.705 11.325 561.675 11.155 561.645C10.985 561.605 10.815 561.57 10.645 561.54C10.475 561.5 10.315 561.465 10.165 561.435C10.015 561.395 9.895 561.365 9.805 561.345L2.71 559.575L2.71 558.03L9.805 556.26C9.925 556.22 10.095 556.175 10.315 556.125C10.535 556.075 10.76 556.025 10.99 555.975C11.22 555.915 11.43 555.87 11.62 555.84L11.62 555.72C11.48 555.69 11.325 555.655 11.155 555.615C10.985 555.575 10.82 555.535 10.66 555.495C10.49 555.455 10.33 555.42 10.18 555.39C10.02 555.35 9.895 555.315 9.805 555.285L2.71 553.365L2.71 552.225L13 555.12L13 556.59L5.905 558.42C5.755 558.46 5.57 558.505 5.35 558.555C5.13 558.595 4.905 558.64 4.675 558.69C4.435 558.73 4.225 558.765 4.045 558.795L4.045 558.9C4.225 558.93 4.435 558.97 4.675 559.02C4.905 559.06 5.13 559.105 5.35 559.155C5.57 559.205 5.755 559.25 5.905 559.29L13 561.075L13 562.575ZM13.18 548.502C13.18 549.262 13.035 549.912 12.745 550.452C12.445 550.982 11.99 551.387 11.38 551.667C10.77 551.937 9.995 552.072 9.055 552.072C8.105 552.072 7.33 551.937 6.73 551.667C6.12 551.387 5.67 550.982 5.38 550.452C5.08 549.912 4.93 549.262 4.93 548.502C4.93 547.722 5.08 547.072 5.38 546.552C5.67 546.022 6.12 545.622 6.73 545.352C7.33 545.072 8.105 544.932 9.055 544.932C9.995 544.932 10.77 545.072 11.38 545.352C11.99 545.622 12.445 546.022 12.745 546.552C13.035 547.072 13.18 547.722 13.18 548.502ZM12.265 548.502C12.265 547.972 12.16 547.527 11.95 547.167C11.74 546.807 11.415 546.532 10.975 546.342C10.525 546.152 9.945 546.057 9.235 546.057L8.875 546.057C8.165 546.057 7.59 546.152 7.15 546.342C6.7 546.532 6.37 546.807 6.16 547.167C5.95 547.527 5.845 547.972 5.845 548.502C5.845 549.032 5.95 549.477 6.16 549.837C6.37 550.197 6.7 550.472 7.15 550.662C7.59 550.852 8.165 550.947 8.875 550.947L9.235 550.947C9.945 550.947 10.525 550.852 10.975 550.662C11.415 550.472 11.74 550.197 11.95 549.837C12.16 549.477 12.265 549.032 12.265 548.502ZM13 543.287L5.11 543.287L5.11 542.417L6.43 542.327L6.43 542.222C6.19 542.152 5.955 542.047 5.725 541.907C5.495 541.767 5.305 541.577 5.155 541.337C5.005 541.097 4.93 540.792 4.93 540.422C4.93 540.282 4.945 540.152 4.975 540.032C4.995 539.912 5.015 539.822 5.035 539.762L6.025 539.762L6.025 540.227C6.025 540.577 6.09 540.877 6.22 541.127C6.34 541.377 6.515 541.582 6.745 541.742C6.975 541.902 7.24 542.022 7.54 542.102C7.83 542.172 8.135 542.207 8.455 542.207L13 542.207L13 543.287ZM13 538.526L2.155 538.526L2.155 537.446L9.145 537.446L5.11 533.861L5.11 532.556L8.185 535.286L13 532.406L13 533.666L8.98 535.991L10.465 537.446L13 537.446L13 538.526ZM13.18 528.65C13.18 529.17 13.125 529.63 13.015 530.03C12.915 530.43 12.765 530.765 12.565 531.035C12.355 531.295 12.105 531.495 11.815 531.635C11.525 531.765 11.19 531.83 10.81 531.83C10.77 531.83 10.73 531.83 10.69 531.83C10.64 531.83 10.595 531.825 10.555 531.815L10.555 530.75C10.605 530.76 10.65 530.765 10.69 530.765C10.72 530.765 10.75 530.765 10.78 530.765C11.17 530.755 11.475 530.66 11.695 530.48C11.905 530.3 12.055 530.045 12.145 529.715C12.235 529.385 12.28 529.005 12.28 528.575C12.28 528.205 12.23 527.875 12.13 527.585C12.02 527.285 11.865 527.05 11.665 526.88C11.465 526.7 11.22 526.61 10.93 526.61C10.56 526.61 10.28 526.725 10.09 526.955C9.9 527.175 9.755 527.465 9.655 527.825C9.545 528.185 9.43 528.56 9.31 528.95C9.22 529.27 9.125 529.585 9.025 529.895C8.915 530.205 8.78 530.49 8.62 530.75C8.46 531 8.255 531.2 8.005 531.35C7.755 531.5 7.44 531.575 7.06 531.575C6.73 531.575 6.435 531.51 6.175 531.38C5.915 531.24 5.695 531.045 5.515 530.795C5.325 530.535 5.18 530.22 5.08 529.85C4.98 529.48 4.93 529.06 4.93 528.59C4.93 528.07 4.99 527.625 5.11 527.255C5.23 526.885 5.395 526.585 5.605 526.355C5.805 526.125 6.035 525.955 6.295 525.845C6.545 525.735 6.81 525.68 7.09 525.68C7.13 525.68 7.175 525.685 7.225 525.695C7.275 525.695 7.32 525.695 7.36 525.695L7.36 526.76L7.165 526.76C6.955 526.76 6.75 526.815 6.55 526.925C6.35 527.025 6.18 527.21 6.04 527.48C5.9 527.74 5.83 528.13 5.83 528.65C5.83 528.96 5.86 529.23 5.92 529.46C5.97 529.68 6.045 529.87 6.145 530.03C6.245 530.18 6.37 530.295 6.52 530.375C6.66 530.445 6.825 530.48 7.015 530.48C7.305 530.48 7.53 530.39 7.69 530.21C7.84 530.02 7.965 529.775 8.065 529.475C8.155 529.175 8.255 528.855 8.365 528.515C8.465 528.175 8.57 527.83 8.68 527.48C8.79 527.12 8.925 526.79 9.085 526.49C9.245 526.19 9.46 525.95 9.73 525.77C9.99 525.59 10.335 525.5 10.765 525.5C11.165 525.5 11.52 525.58 11.83 525.74C12.13 525.9 12.38 526.12 12.58 526.4C12.78 526.68 12.93 527.015 13.03 527.405C13.13 527.785 13.18 528.2 13.18 528.65Z" fill="white"/>
<path d="M13 674.635L2.71 674.635L2.71 672.835L9.835 670.15C10.005 670.09 10.19 670.03 10.39 669.97C10.58 669.91 10.765 669.855 10.945 669.805C11.115 669.745 11.26 669.7 11.38 669.67L11.38 669.58C11.24 669.54 11.075 669.49 10.885 669.43C10.695 669.37 10.51 669.315 10.33 669.265C10.14 669.205 9.975 669.15 9.835 669.1L2.71 666.415L2.71 664.63L13 664.63L13 665.815L6.595 665.815C6.345 665.815 6.065 665.81 5.755 665.8C5.435 665.79 5.125 665.785 4.825 665.785C4.525 665.775 4.295 665.77 4.135 665.77L4.135 665.875C4.285 665.915 4.465 665.97 4.675 666.04C4.875 666.1 5.08 666.165 5.29 666.235C5.5 666.295 5.695 666.355 5.875 666.415L13 669.175L13 670.135L5.875 672.88C5.715 672.94 5.54 673 5.35 673.06C5.16 673.12 4.96 673.18 4.75 673.24C4.54 673.3 4.335 673.36 4.135 673.42L4.135 673.525C4.335 673.515 4.585 673.51 4.885 673.51C5.185 673.5 5.485 673.495 5.785 673.495C6.085 673.485 6.355 673.48 6.595 673.48L13 673.48L13 674.635ZM15.73 661.696C15.73 661.886 15.715 662.056 15.685 662.206C15.665 662.346 15.65 662.461 15.64 662.551L14.83 662.551L14.83 661.966C14.83 661.706 14.785 661.456 14.695 661.216C14.605 660.976 14.425 660.751 14.155 660.541C13.895 660.331 13.51 660.141 13 659.971L5.11 663.031L5.11 661.891L9.31 660.271C9.5 660.191 9.74 660.106 10.03 660.016C10.31 659.916 10.6 659.816 10.9 659.716C11.19 659.606 11.45 659.516 11.68 659.446L11.68 659.356C11.52 659.316 11.335 659.266 11.125 659.206C10.915 659.136 10.7 659.066 10.48 658.996C10.26 658.926 10.05 658.861 9.85 658.801C9.65 658.731 9.475 658.671 9.325 658.621L5.11 657.226L5.11 656.131L12.865 658.831C13.305 658.981 13.7 659.141 14.05 659.311C14.4 659.481 14.7 659.676 14.95 659.896C15.2 660.106 15.39 660.361 15.52 660.661C15.66 660.951 15.73 661.296 15.73 661.696ZM13 649.575L2.71 652.47L2.71 651.21L9.805 649.29C9.925 649.26 10.095 649.22 10.315 649.17C10.535 649.11 10.76 649.055 10.99 649.005C11.22 648.945 11.43 648.895 11.62 648.855L11.62 648.735C11.48 648.705 11.325 648.675 11.155 648.645C10.985 648.605 10.815 648.57 10.645 648.54C10.475 648.5 10.315 648.465 10.165 648.435C10.015 648.395 9.895 648.365 9.805 648.345L2.71 646.575L2.71 645.03L9.805 643.26C9.925 643.22 10.095 643.175 10.315 643.125C10.535 643.075 10.76 643.025 10.99 642.975C11.22 642.915 11.43 642.87 11.62 642.84L11.62 642.72C11.48 642.69 11.325 642.655 11.155 642.615C10.985 642.575 10.82 642.535 10.66 642.495C10.49 642.455 10.33 642.42 10.18 642.39C10.02 642.35 9.895 642.315 9.805 642.285L2.71 640.365L2.71 639.225L13 642.12L13 643.59L5.905 645.42C5.755 645.46 5.57 645.505 5.35 645.555C5.13 645.595 4.905 645.64 4.675 645.69C4.435 645.73 4.225 645.765 4.045 645.795L4.045 645.9C4.225 645.93 4.435 645.97 4.675 646.02C4.905 646.06 5.13 646.105 5.35 646.155C5.57 646.205 5.755 646.25 5.905 646.29L13 648.075L13 649.575ZM13.18 635.502C13.18 636.262 13.035 636.912 12.745 637.452C12.445 637.982 11.99 638.387 11.38 638.667C10.77 638.937 9.995 639.072 9.055 639.072C8.105 639.072 7.33 638.937 6.73 638.667C6.12 638.387 5.67 637.982 5.38 637.452C5.08 636.912 4.93 636.262 4.93 635.502C4.93 634.722 5.08 634.072 5.38 633.552C5.67 633.022 6.12 632.622 6.73 632.352C7.33 632.072 8.105 631.932 9.055 631.932C9.995 631.932 10.77 632.072 11.38 632.352C11.99 632.622 12.445 633.022 12.745 633.552C13.035 634.072 13.18 634.722 13.18 635.502ZM12.265 635.502C12.265 634.972 12.16 634.527 11.95 634.167C11.74 633.807 11.415 633.532 10.975 633.342C10.525 633.152 9.945 633.057 9.235 633.057L8.875 633.057C8.165 633.057 7.59 633.152 7.15 633.342C6.7 633.532 6.37 633.807 6.16 634.167C5.95 634.527 5.845 634.972 5.845 635.502C5.845 636.032 5.95 636.477 6.16 636.837C6.37 637.197 6.7 637.472 7.15 637.662C7.59 637.852 8.165 637.947 8.875 637.947L9.235 637.947C9.945 637.947 10.525 637.852 10.975 637.662C11.415 637.472 11.74 637.197 11.95 636.837C12.16 636.477 12.265 636.032 12.265 635.502ZM13 630.287L5.11 630.287L5.11 629.417L6.43 629.327L6.43 629.222C6.19 629.152 5.955 629.047 5.725 628.907C5.495 628.767 5.305 628.577 5.155 628.337C5.005 628.097 4.93 627.792 4.93 627.422C4.93 627.282 4.945 627.152 4.975 627.032C4.995 626.912 5.015 626.822 5.035 626.762L6.025 626.762L6.025 627.227C6.025 627.577 6.09 627.877 6.22 628.127C6.34 628.377 6.515 628.582 6.745 628.742C6.975 628.902 7.24 629.022 7.54 629.102C7.83 629.172 8.135 629.207 8.455 629.207L13 629.207L13 630.287ZM13 625.526L2.155 625.526L2.155 624.446L9.145 624.446L5.11 620.861L5.11 619.556L8.185 622.286L13 619.406L13 620.666L8.98 622.991L10.465 624.446L13 624.446L13 625.526ZM13.18 615.65C13.18 616.17 13.125 616.63 13.015 617.03C12.915 617.43 12.765 617.765 12.565 618.035C12.355 618.295 12.105 618.495 11.815 618.635C11.525 618.765 11.19 618.83 10.81 618.83C10.77 618.83 10.73 618.83 10.69 618.83C10.64 618.83 10.595 618.825 10.555 618.815L10.555 617.75C10.605 617.76 10.65 617.765 10.69 617.765C10.72 617.765 10.75 617.765 10.78 617.765C11.17 617.755 11.475 617.66 11.695 617.48C11.905 617.3 12.055 617.045 12.145 616.715C12.235 616.385 12.28 616.005 12.28 615.575C12.28 615.205 12.23 614.875 12.13 614.585C12.02 614.285 11.865 614.05 11.665 613.88C11.465 613.7 11.22 613.61 10.93 613.61C10.56 613.61 10.28 613.725 10.09 613.955C9.9 614.175 9.755 614.465 9.655 614.825C9.545 615.185 9.43 615.56 9.31 615.95C9.22 616.27 9.125 616.585 9.025 616.895C8.915 617.205 8.78 617.49 8.62 617.75C8.46 618 8.255 618.2 8.005 618.35C7.755 618.5 7.44 618.575 7.06 618.575C6.73 618.575 6.435 618.51 6.175 618.38C5.915 618.24 5.695 618.045 5.515 617.795C5.325 617.535 5.18 617.22 5.08 616.85C4.98 616.48 4.93 616.06 4.93 615.59C4.93 615.07 4.99 614.625 5.11 614.255C5.23 613.885 5.395 613.585 5.605 613.355C5.805 613.125 6.035 612.955 6.295 612.845C6.545 612.735 6.81 612.68 7.09 612.68C7.13 612.68 7.175 612.685 7.225 612.695C7.275 612.695 7.32 612.695 7.36 612.695L7.36 613.76L7.165 613.76C6.955 613.76 6.75 613.815 6.55 613.925C6.35 614.025 6.18 614.21 6.04 614.48C5.9 614.74 5.83 615.13 5.83 615.65C5.83 615.96 5.86 616.23 5.92 616.46C5.97 616.68 6.045 616.87 6.145 617.03C6.245 617.18 6.37 617.295 6.52 617.375C6.66 617.445 6.825 617.48 7.015 617.48C7.305 617.48 7.53 617.39 7.69 617.21C7.84 617.02 7.965 616.775 8.065 616.475C8.155 616.175 8.255 615.855 8.365 615.515C8.465 615.175 8.57 614.83 8.68 614.48C8.79 614.12 8.925 613.79 9.085 613.49C9.245 613.19 9.46 612.95 9.73 612.77C9.99 612.59 10.335 612.5 10.765 612.5C11.165 612.5 11.52 612.58 11.83 612.74C12.13 612.9 12.38 613.12 12.58 613.4C12.78 613.68 12.93 614.015 13.03 614.405C13.13 614.785 13.18 615.2 13.18 615.65Z" fill="white"/>
<path d="M13 761.635L2.71 761.635L2.71 759.835L9.835 757.15C10.005 757.09 10.19 757.03 10.39 756.97C10.58 756.91 10.765 756.855 10.945 756.805C11.115 756.745 11.26 756.7 11.38 756.67L11.38 756.58C11.24 756.54 11.075 756.49 10.885 756.43C10.695 756.37 10.51 756.315 10.33 756.265C10.14 756.205 9.975 756.15 9.835 756.1L2.71 753.415L2.71 751.63L13 751.63L13 752.815L6.595 752.815C6.345 752.815 6.065 752.81 5.755 752.8C5.435 752.79 5.125 752.785 4.825 752.785C4.525 752.775 4.295 752.77 4.135 752.77L4.135 752.875C4.285 752.915 4.465 752.97 4.675 753.04C4.875 753.1 5.08 753.165 5.29 753.235C5.5 753.295 5.695 753.355 5.875 753.415L13 756.175L13 757.135L5.875 759.88C5.715 759.94 5.54 760 5.35 760.06C5.16 760.12 4.96 760.18 4.75 760.24C4.54 760.3 4.335 760.36 4.135 760.42L4.135 760.525C4.335 760.515 4.585 760.51 4.885 760.51C5.185 760.5 5.485 760.495 5.785 760.495C6.085 760.485 6.355 760.48 6.595 760.48L13 760.48L13 761.635ZM15.73 748.696C15.73 748.886 15.715 749.056 15.685 749.206C15.665 749.346 15.65 749.461 15.64 749.551L14.83 749.551L14.83 748.966C14.83 748.706 14.785 748.456 14.695 748.216C14.605 747.976 14.425 747.751 14.155 747.541C13.895 747.331 13.51 747.141 13 746.971L5.11 750.031L5.11 748.891L9.31 747.271C9.5 747.191 9.74 747.106 10.03 747.016C10.31 746.916 10.6 746.816 10.9 746.716C11.19 746.606 11.45 746.516 11.68 746.446L11.68 746.356C11.52 746.316 11.335 746.266 11.125 746.206C10.915 746.136 10.7 746.066 10.48 745.996C10.26 745.926 10.05 745.861 9.85 745.801C9.65 745.731 9.475 745.671 9.325 745.621L5.11 744.226L5.11 743.131L12.865 745.831C13.305 745.981 13.7 746.141 14.05 746.311C14.4 746.481 14.7 746.676 14.95 746.896C15.2 747.106 15.39 747.361 15.52 747.661C15.66 747.951 15.73 748.296 15.73 748.696ZM13 736.575L2.71 739.47L2.71 738.21L9.805 736.29C9.925 736.26 10.095 736.22 10.315 736.17C10.535 736.11 10.76 736.055 10.99 736.005C11.22 735.945 11.43 735.895 11.62 735.855L11.62 735.735C11.48 735.705 11.325 735.675 11.155 735.645C10.985 735.605 10.815 735.57 10.645 735.54C10.475 735.5 10.315 735.465 10.165 735.435C10.015 735.395 9.895 735.365 9.805 735.345L2.71 733.575L2.71 732.03L9.805 730.26C9.925 730.22 10.095 730.175 10.315 730.125C10.535 730.075 10.76 730.025 10.99 729.975C11.22 729.915 11.43 729.87 11.62 729.84L11.62 729.72C11.48 729.69 11.325 729.655 11.155 729.615C10.985 729.575 10.82 729.535 10.66 729.495C10.49 729.455 10.33 729.42 10.18 729.39C10.02 729.35 9.895 729.315 9.805 729.285L2.71 727.365L2.71 726.225L13 729.12L13 730.59L5.905 732.42C5.755 732.46 5.57 732.505 5.35 732.555C5.13 732.595 4.905 732.64 4.675 732.69C4.435 732.73 4.225 732.765 4.045 732.795L4.045 732.9C4.225 732.93 4.435 732.97 4.675 733.02C4.905 733.06 5.13 733.105 5.35 733.155C5.57 733.205 5.755 733.25 5.905 733.29L13 735.075L13 736.575ZM13.18 722.502C13.18 723.262 13.035 723.912 12.745 724.452C12.445 724.982 11.99 725.387 11.38 725.667C10.77 725.937 9.995 726.072 9.055 726.072C8.105 726.072 7.33 725.937 6.73 725.667C6.12 725.387 5.67 724.982 5.38 724.452C5.08 723.912 4.93 723.262 4.93 722.502C4.93 721.722 5.08 721.072 5.38 720.552C5.67 720.022 6.12 719.622 6.73 719.352C7.33 719.072 8.105 718.932 9.055 718.932C9.995 718.932 10.77 719.072 11.38 719.352C11.99 719.622 12.445 720.022 12.745 720.552C13.035 721.072 13.18 721.722 13.18 722.502ZM12.265 722.502C12.265 721.972 12.16 721.527 11.95 721.167C11.74 720.807 11.415 720.532 10.975 720.342C10.525 720.152 9.945 720.057 9.235 720.057L8.875 720.057C8.165 720.057 7.59 720.152 7.15 720.342C6.7 720.532 6.37 720.807 6.16 721.167C5.95 721.527 5.845 721.972 5.845 722.502C5.845 723.032 5.95 723.477 6.16 723.837C6.37 724.197 6.7 724.472 7.15 724.662C7.59 724.852 8.165 724.947 8.875 724.947L9.235 724.947C9.945 724.947 10.525 724.852 10.975 724.662C11.415 724.472 11.74 724.197 11.95 723.837C12.16 723.477 12.265 723.032 12.265 722.502ZM13 717.287L5.11 717.287L5.11 716.417L6.43 716.327L6.43 716.222C6.19 716.152 5.955 716.047 5.725 715.907C5.495 715.767 5.305 715.577 5.155 715.337C5.005 715.097 4.93 714.792 4.93 714.422C4.93 714.282 4.945 714.152 4.975 714.032C4.995 713.912 5.015 713.822 5.035 713.762L6.025 713.762L6.025 714.227C6.025 714.577 6.09 714.877 6.22 715.127C6.34 715.377 6.515 715.582 6.745 715.742C6.975 715.902 7.24 716.022 7.54 716.102C7.83 716.172 8.135 716.207 8.455 716.207L13 716.207L13 717.287ZM13 712.526L2.155 712.526L2.155 711.446L9.145 711.446L5.11 707.861L5.11 706.556L8.185 709.286L13 706.406L13 707.666L8.98 709.991L10.465 711.446L13 711.446L13 712.526ZM13.18 702.65C13.18 703.17 13.125 703.63 13.015 704.03C12.915 704.43 12.765 704.765 12.565 705.035C12.355 705.295 12.105 705.495 11.815 705.635C11.525 705.765 11.19 705.83 10.81 705.83C10.77 705.83 10.73 705.83 10.69 705.83C10.64 705.83 10.595 705.825 10.555 705.815L10.555 704.75C10.605 704.76 10.65 704.765 10.69 704.765C10.72 704.765 10.75 704.765 10.78 704.765C11.17 704.755 11.475 704.66 11.695 704.48C11.905 704.3 12.055 704.045 12.145 703.715C12.235 703.385 12.28 703.005 12.28 702.575C12.28 702.205 12.23 701.875 12.13 701.585C12.02 701.285 11.865 701.05 11.665 700.88C11.465 700.7 11.22 700.61 10.93 700.61C10.56 700.61 10.28 700.725 10.09 700.955C9.9 701.175 9.755 701.465 9.655 701.825C9.545 702.185 9.43 702.56 9.31 702.95C9.22 703.27 9.125 703.585 9.025 703.895C8.915 704.205 8.78 704.49 8.62 704.75C8.46 705 8.255 705.2 8.005 705.35C7.755 705.5 7.44 705.575 7.06 705.575C6.73 705.575 6.435 705.51 6.175 705.38C5.915 705.24 5.695 705.045 5.515 704.795C5.325 704.535 5.18 704.22 5.08 703.85C4.98 703.48 4.93 703.06 4.93 702.59C4.93 702.07 4.99 701.625 5.11 701.255C5.23 700.885 5.395 700.585 5.605 700.355C5.805 700.125 6.035 699.955 6.295 699.845C6.545 699.735 6.81 699.68 7.09 699.68C7.13 699.68 7.175 699.685 7.225 699.695C7.275 699.695 7.32 699.695 7.36 699.695L7.36 700.76L7.165 700.76C6.955 700.76 6.75 700.815 6.55 700.925C6.35 701.025 6.18 701.21 6.04 701.48C5.9 701.74 5.83 702.13 5.83 702.65C5.83 702.96 5.86 703.23 5.92 703.46C5.97 703.68 6.045 703.87 6.145 704.03C6.245 704.18 6.37 704.295 6.52 704.375C6.66 704.445 6.825 704.48 7.015 704.48C7.305 704.48 7.53 704.39 7.69 704.21C7.84 704.02 7.965 703.775 8.065 703.475C8.155 703.175 8.255 702.855 8.365 702.515C8.465 702.175 8.57 701.83 8.68 701.48C8.79 701.12 8.925 700.79 9.085 700.49C9.245 700.19 9.46 699.95 9.73 699.77C9.99 699.59 10.335 699.5 10.765 699.5C11.165 699.5 11.52 699.58 11.83 699.74C12.13 699.9 12.38 700.12 12.58 700.4C12.78 700.68 12.93 701.015 13.03 701.405C13.13 701.785 13.18 702.2 13.18 702.65Z" fill="white"/>
<path d="M13 848.635L2.71 848.635L2.71 846.835L9.835 844.15C10.005 844.09 10.19 844.03 10.39 843.97C10.58 843.91 10.765 843.855 10.945 843.805C11.115 843.745 11.26 843.7 11.38 843.67L11.38 843.58C11.24 843.54 11.075 843.49 10.885 843.43C10.695 843.37 10.51 843.315 10.33 843.265C10.14 843.205 9.975 843.15 9.835 843.1L2.71 840.415L2.71 838.63L13 838.63L13 839.815L6.595 839.815C6.345 839.815 6.065 839.81 5.755 839.8C5.435 839.79 5.125 839.785 4.825 839.785C4.525 839.775 4.295 839.77 4.135 839.77L4.135 839.875C4.285 839.915 4.465 839.97 4.675 840.04C4.875 840.1 5.08 840.165 5.29 840.235C5.5 840.295 5.695 840.355 5.875 840.415L13 843.175L13 844.135L5.875 846.88C5.715 846.94 5.54 847 5.35 847.06C5.16 847.12 4.96 847.18 4.75 847.24C4.54 847.3 4.335 847.36 4.135 847.42L4.135 847.525C4.335 847.515 4.585 847.51 4.885 847.51C5.185 847.5 5.485 847.495 5.785 847.495C6.085 847.485 6.355 847.48 6.595 847.48L13 847.48L13 848.635ZM15.73 835.696C15.73 835.886 15.715 836.056 15.685 836.206C15.665 836.346 15.65 836.461 15.64 836.551L14.83 836.551L14.83 835.966C14.83 835.706 14.785 835.456 14.695 835.216C14.605 834.976 14.425 834.751 14.155 834.541C13.895 834.331 13.51 834.141 13 833.971L5.11 837.031L5.11 835.891L9.31 834.271C9.5 834.191 9.74 834.106 10.03 834.016C10.31 833.916 10.6 833.816 10.9 833.716C11.19 833.606 11.45 833.516 11.68 833.446L11.68 833.356C11.52 833.316 11.335 833.266 11.125 833.206C10.915 833.136 10.7 833.066 10.48 832.996C10.26 832.926 10.05 832.861 9.85 832.801C9.65 832.731 9.475 832.671 9.325 832.621L5.11 831.226L5.11 830.131L12.865 832.831C13.305 832.981 13.7 833.141 14.05 833.311C14.4 833.481 14.7 833.676 14.95 833.896C15.2 834.106 15.39 834.361 15.52 834.661C15.66 834.951 15.73 835.296 15.73 835.696ZM13 823.575L2.71 826.47L2.71 825.21L9.805 823.29C9.925 823.26 10.095 823.22 10.315 823.17C10.535 823.11 10.76 823.055 10.99 823.005C11.22 822.945 11.43 822.895 11.62 822.855L11.62 822.735C11.48 822.705 11.325 822.675 11.155 822.645C10.985 822.605 10.815 822.57 10.645 822.54C10.475 822.5 10.315 822.465 10.165 822.435C10.015 822.395 9.895 822.365 9.805 822.345L2.71 820.575L2.71 819.03L9.805 817.26C9.925 817.22 10.095 817.175 10.315 817.125C10.535 817.075 10.76 817.025 10.99 816.975C11.22 816.915 11.43 816.87 11.62 816.84L11.62 816.72C11.48 816.69 11.325 816.655 11.155 816.615C10.985 816.575 10.82 816.535 10.66 816.495C10.49 816.455 10.33 816.42 10.18 816.39C10.02 816.35 9.895 816.315 9.805 816.285L2.71 814.365L2.71 813.225L13 816.12L13 817.59L5.905 819.42C5.755 819.46 5.57 819.505 5.35 819.555C5.13 819.595 4.905 819.64 4.675 819.69C4.435 819.73 4.225 819.765 4.045 819.795L4.045 819.9C4.225 819.93 4.435 819.97 4.675 820.02C4.905 820.06 5.13 820.105 5.35 820.155C5.57 820.205 5.755 820.25 5.905 820.29L13 822.075L13 823.575ZM13.18 809.502C13.18 810.262 13.035 810.912 12.745 811.452C12.445 811.982 11.99 812.387 11.38 812.667C10.77 812.937 9.995 813.072 9.055 813.072C8.105 813.072 7.33 812.937 6.73 812.667C6.12 812.387 5.67 811.982 5.38 811.452C5.08 810.912 4.93 810.262 4.93 809.502C4.93 808.722 5.08 808.072 5.38 807.552C5.67 807.022 6.12 806.622 6.73 806.352C7.33 806.072 8.105 805.932 9.055 805.932C9.995 805.932 10.77 806.072 11.38 806.352C11.99 806.622 12.445 807.022 12.745 807.552C13.035 808.072 13.18 808.722 13.18 809.502ZM12.265 809.502C12.265 808.972 12.16 808.527 11.95 808.167C11.74 807.807 11.415 807.532 10.975 807.342C10.525 807.152 9.945 807.057 9.235 807.057L8.875 807.057C8.165 807.057 7.59 807.152 7.15 807.342C6.7 807.532 6.37 807.807 6.16 808.167C5.95 808.527 5.845 808.972 5.845 809.502C5.845 810.032 5.95 810.477 6.16 810.837C6.37 811.197 6.7 811.472 7.15 811.662C7.59 811.852 8.165 811.947 8.875 811.947L9.235 811.947C9.945 811.947 10.525 811.852 10.975 811.662C11.415 811.472 11.74 811.197 11.95 810.837C12.16 810.477 12.265 810.032 12.265 809.502ZM13 804.287L5.11 804.287L5.11 803.417L6.43 803.327L6.43 803.222C6.19 803.152 5.955 803.047 5.725 802.907C5.495 802.767 5.305 802.577 5.155 802.337C5.005 802.097 4.93 801.792 4.93 801.422C4.93 801.282 4.945 801.152 4.975 801.032C4.995 800.912 5.015 800.822 5.035 800.762L6.025 800.762L6.025 801.227C6.025 801.577 6.09 801.877 6.22 802.127C6.34 802.377 6.515 802.582 6.745 802.742C6.975 802.902 7.24 803.022 7.54 803.102C7.83 803.172 8.135 803.207 8.455 803.207L13 803.207L13 804.287ZM13 799.526L2.155 799.526L2.155 798.446L9.145 798.446L5.11 794.861L5.11 793.556L8.185 796.286L13 793.406L13 794.666L8.98 796.991L10.465 798.446L13 798.446L13 799.526ZM13.18 789.65C13.18 790.17 13.125 790.63 13.015 791.03C12.915 791.43 12.765 791.765 12.565 792.035C12.355 792.295 12.105 792.495 11.815 792.635C11.525 792.765 11.19 792.83 10.81 792.83C10.77 792.83 10.73 792.83 10.69 792.83C10.64 792.83 10.595 792.825 10.555 792.815L10.555 791.75C10.605 791.76 10.65 791.765 10.69 791.765C10.72 791.765 10.75 791.765 10.78 791.765C11.17 791.755 11.475 791.66 11.695 791.48C11.905 791.3 12.055 791.045 12.145 790.715C12.235 790.385 12.28 790.005 12.28 789.575C12.28 789.205 12.23 788.875 12.13 788.585C12.02 788.285 11.865 788.05 11.665 787.88C11.465 787.7 11.22 787.61 10.93 787.61C10.56 787.61 10.28 787.725 10.09 787.955C9.9 788.175 9.755 788.465 9.655 788.825C9.545 789.185 9.43 789.56 9.31 789.95C9.22 790.27 9.125 790.585 9.025 790.895C8.915 791.205 8.78 791.49 8.62 791.75C8.46 792 8.255 792.2 8.005 792.35C7.755 792.5 7.44 792.575 7.06 792.575C6.73 792.575 6.435 792.51 6.175 792.38C5.915 792.24 5.695 792.045 5.515 791.795C5.325 791.535 5.18 791.22 5.08 790.85C4.98 790.48 4.93 790.06 4.93 789.59C4.93 789.07 4.99 788.625 5.11 788.255C5.23 787.885 5.395 787.585 5.605 787.355C5.805 787.125 6.035 786.955 6.295 786.845C6.545 786.735 6.81 786.68 7.09 786.68C7.13 786.68 7.175 786.685 7.225 786.695C7.275 786.695 7.32 786.695 7.36 786.695L7.36 787.76L7.165 787.76C6.955 787.76 6.75 787.815 6.55 787.925C6.35 788.025 6.18 788.21 6.04 788.48C5.9 788.74 5.83 789.13 5.83 789.65C5.83 789.96 5.86 790.23 5.92 790.46C5.97 790.68 6.045 790.87 6.145 791.03C6.245 791.18 6.37 791.295 6.52 791.375C6.66 791.445 6.825 791.48 7.015 791.48C7.305 791.48 7.53 791.39 7.69 791.21C7.84 791.02 7.965 790.775 8.065 790.475C8.155 790.175 8.255 789.855 8.365 789.515C8.465 789.175 8.57 788.83 8.68 788.48C8.79 788.12 8.925 787.79 9.085 787.49C9.245 787.19 9.46 786.95 9.73 786.77C9.99 786.59 10.335 786.5 10.765 786.5C11.165 786.5 11.52 786.58 11.83 786.74C12.13 786.9 12.38 787.12 12.58 787.4C12.78 787.68 12.93 788.015 13.03 788.405C13.13 788.785 13.18 789.2 13.18 789.65Z" fill="white"/>
<path d="M13 935.635L2.71 935.635L2.71 933.835L9.835 931.15C10.005 931.09 10.19 931.03 10.39 930.97C10.58 930.91 10.765 930.855 10.945 930.805C11.115 930.745 11.26 930.7 11.38 930.67L11.38 930.58C11.24 930.54 11.075 930.49 10.885 930.43C10.695 930.37 10.51 930.315 10.33 930.265C10.14 930.205 9.975 930.15 9.835 930.1L2.71 927.415L2.71 925.63L13 925.63L13 926.815L6.595 926.815C6.345 926.815 6.065 926.81 5.755 926.8C5.435 926.79 5.125 926.785 4.825 926.785C4.525 926.775 4.295 926.77 4.135 926.77L4.135 926.875C4.285 926.915 4.465 926.97 4.675 927.04C4.875 927.1 5.08 927.165 5.29 927.235C5.5 927.295 5.695 927.355 5.875 927.415L13 930.175L13 931.135L5.875 933.88C5.715 933.94 5.54 934 5.35 934.06C5.16 934.12 4.96 934.18 4.75 934.24C4.54 934.3 4.335 934.36 4.135 934.42L4.135 934.525C4.335 934.515 4.585 934.51 4.885 934.51C5.185 934.5 5.485 934.495 5.785 934.495C6.085 934.485 6.355 934.48 6.595 934.48L13 934.48L13 935.635ZM15.73 922.696C15.73 922.886 15.715 923.056 15.685 923.206C15.665 923.346 15.65 923.461 15.64 923.551L14.83 923.551L14.83 922.966C14.83 922.706 14.785 922.456 14.695 922.216C14.605 921.976 14.425 921.751 14.155 921.541C13.895 921.331 13.51 921.141 13 920.971L5.11 924.031L5.11 922.891L9.31 921.271C9.5 921.191 9.74 921.106 10.03 921.016C10.31 920.916 10.6 920.816 10.9 920.716C11.19 920.606 11.45 920.516 11.68 920.446L11.68 920.356C11.52 920.316 11.335 920.266 11.125 920.206C10.915 920.136 10.7 920.066 10.48 919.996C10.26 919.926 10.05 919.861 9.85 919.801C9.65 919.731 9.475 919.671 9.325 919.621L5.11 918.226L5.11 917.131L12.865 919.831C13.305 919.981 13.7 920.141 14.05 920.311C14.4 920.481 14.7 920.676 14.95 920.896C15.2 921.106 15.39 921.361 15.52 921.661C15.66 921.951 15.73 922.296 15.73 922.696ZM13 910.575L2.71 913.47L2.71 912.21L9.805 910.29C9.925 910.26 10.095 910.22 10.315 910.17C10.535 910.11 10.76 910.055 10.99 910.005C11.22 909.945 11.43 909.895 11.62 909.855L11.62 909.735C11.48 909.705 11.325 909.675 11.155 909.645C10.985 909.605 10.815 909.57 10.645 909.54C10.475 909.5 10.315 909.465 10.165 909.435C10.015 909.395 9.895 909.365 9.805 909.345L2.71 907.575L2.71 906.03L9.805 904.26C9.925 904.22 10.095 904.175 10.315 904.125C10.535 904.075 10.76 904.025 10.99 903.975C11.22 903.915 11.43 903.87 11.62 903.84L11.62 903.72C11.48 903.69 11.325 903.655 11.155 903.615C10.985 903.575 10.82 903.535 10.66 903.495C10.49 903.455 10.33 903.42 10.18 903.39C10.02 903.35 9.895 903.315 9.805 903.285L2.71 901.365L2.71 900.225L13 903.12L13 904.59L5.905 906.42C5.755 906.46 5.57 906.505 5.35 906.555C5.13 906.595 4.905 906.64 4.675 906.69C4.435 906.73 4.225 906.765 4.045 906.795L4.045 906.9C4.225 906.93 4.435 906.97 4.675 907.02C4.905 907.06 5.13 907.105 5.35 907.155C5.57 907.205 5.755 907.25 5.905 907.29L13 909.075L13 910.575ZM13.18 896.502C13.18 897.262 13.035 897.912 12.745 898.452C12.445 898.982 11.99 899.387 11.38 899.667C10.77 899.937 9.995 900.072 9.055 900.072C8.105 900.072 7.33 899.937 6.73 899.667C6.12 899.387 5.67 898.982 5.38 898.452C5.08 897.912 4.93 897.262 4.93 896.502C4.93 895.722 5.08 895.072 5.38 894.552C5.67 894.022 6.12 893.622 6.73 893.352C7.33 893.072 8.105 892.932 9.055 892.932C9.995 892.932 10.77 893.072 11.38 893.352C11.99 893.622 12.445 894.022 12.745 894.552C13.035 895.072 13.18 895.722 13.18 896.502ZM12.265 896.502C12.265 895.972 12.16 895.527 11.95 895.167C11.74 894.807 11.415 894.532 10.975 894.342C10.525 894.152 9.945 894.057 9.235 894.057L8.875 894.057C8.165 894.057 7.59 894.152 7.15 894.342C6.7 894.532 6.37 894.807 6.16 895.167C5.95 895.527 5.845 895.972 5.845 896.502C5.845 897.032 5.95 897.477 6.16 897.837C6.37 898.197 6.7 898.472 7.15 898.662C7.59 898.852 8.165 898.947 8.875 898.947L9.235 898.947C9.945 898.947 10.525 898.852 10.975 898.662C11.415 898.472 11.74 898.197 11.95 897.837C12.16 897.477 12.265 897.032 12.265 896.502ZM13 891.287L5.11 891.287L5.11 890.417L6.43 890.327L6.43 890.222C6.19 890.152 5.955 890.047 5.725 889.907C5.495 889.767 5.305 889.577 5.155 889.337C5.005 889.097 4.93 888.792 4.93 888.422C4.93 888.282 4.945 888.152 4.975 888.032C4.995 887.912 5.015 887.822 5.035 887.762L6.025 887.762L6.025 888.227C6.025 888.577 6.09 888.877 6.22 889.127C6.34 889.377 6.515 889.582 6.745 889.742C6.975 889.902 7.24 890.022 7.54 890.102C7.83 890.172 8.135 890.207 8.455 890.207L13 890.207L13 891.287ZM13 886.526L2.155 886.526L2.155 885.446L9.145 885.446L5.11 881.861L5.11 880.556L8.185 883.286L13 880.406L13 881.666L8.98 883.991L10.465 885.446L13 885.446L13 886.526ZM13.18 876.65C13.18 877.17 13.125 877.63 13.015 878.03C12.915 878.43 12.765 878.765 12.565 879.035C12.355 879.295 12.105 879.495 11.815 879.635C11.525 879.765 11.19 879.83 10.81 879.83C10.77 879.83 10.73 879.83 10.69 879.83C10.64 879.83 10.595 879.825 10.555 879.815L10.555 878.75C10.605 878.76 10.65 878.765 10.69 878.765C10.72 878.765 10.75 878.765 10.78 878.765C11.17 878.755 11.475 878.66 11.695 878.48C11.905 878.3 12.055 878.045 12.145 877.715C12.235 877.385 12.28 877.005 12.28 876.575C12.28 876.205 12.23 875.875 12.13 875.585C12.02 875.285 11.865 875.05 11.665 874.88C11.465 874.7 11.22 874.61 10.93 874.61C10.56 874.61 10.28 874.725 10.09 874.955C9.9 875.175 9.755 875.465 9.655 875.825C9.545 876.185 9.43 876.56 9.31 876.95C9.22 877.27 9.125 877.585 9.025 877.895C8.915 878.205 8.78 878.49 8.62 878.75C8.46 879 8.255 879.2 8.005 879.35C7.755 879.5 7.44 879.575 7.06 879.575C6.73 879.575 6.435 879.51 6.175 879.38C5.915 879.24 5.695 879.045 5.515 878.795C5.325 878.535 5.18 878.22 5.08 877.85C4.98 877.48 4.93 877.06 4.93 876.59C4.93 876.07 4.99 875.625 5.11 875.255C5.23 874.885 5.395 874.585 5.605 874.355C5.805 874.125 6.035 873.955 6.295 873.845C6.545 873.735 6.81 873.68 7.09 873.68C7.13 873.68 7.175 873.685 7.225 873.695C7.275 873.695 7.32 873.695 7.36 873.695L7.36 874.76L7.165 874.76C6.955 874.76 6.75 874.815 6.55 874.925C6.35 875.025 6.18 875.21 6.04 875.48C5.9 875.74 5.83 876.13 5.83 876.65C5.83 876.96 5.86 877.23 5.92 877.46C5.97 877.68 6.045 877.87 6.145 878.03C6.245 878.18 6.37 878.295 6.52 878.375C6.66 878.445 6.825 878.48 7.015 878.48C7.305 878.48 7.53 878.39 7.69 878.21C7.84 878.02 7.965 877.775 8.065 877.475C8.155 877.175 8.255 876.855 8.365 876.515C8.465 876.175 8.57 875.83 8.68 875.48C8.79 875.12 8.925 874.79 9.085 874.49C9.245 874.19 9.46 873.95 9.73 873.77C9.99 873.59 10.335 873.5 10.765 873.5C11.165 873.5 11.52 873.58 11.83 873.74C12.13 873.9 12.38 874.12 12.58 874.4C12.78 874.68 12.93 875.015 13.03 875.405C13.13 875.785 13.18 876.2 13.18 876.65Z" fill="white"/>
</svg>
