<svg width="98" height="46" viewBox="0 0 98 46" fill="none" xmlns="http://www.w3.org/2000/svg">
<path d="M70 8.85144C69.4111 7.00182 69.2386 5.80016 67.9213 4.30385C66.3114 2.47521 63.9447 1.56915 61.6577 1.13745C57.4906 0.350847 53.8586 3.0387 51.8475 6.69039C50.1057 9.8529 49.6342 14.2829 50.2702 17.8339C51.0243 22.0441 54.9401 23.7833 58.7857 22.7385C62.1264 21.8309 64.2067 18.7251 62.6606 15.297C61.4947 12.712 57.5851 11.71 55.5764 13.8688C54.3553 15.1812 53.6588 17.0293 53.0965 18.6889C51.8603 22.3378 51.2288 26.1638 51.2184 30.0297C51.2075 34.0927 52.2968 38.0622 53.0965 42" stroke="black" stroke-width="1.5" stroke-linecap="round"/>
<path d="M3.42 39V14.304H15.48C17.088 14.304 18.42 14.616 19.476 15.24C20.532 15.864 21.324 16.716 21.852 17.796C22.38 18.876 22.644 20.1 22.644 21.468C22.644 22.908 22.332 24.192 21.708 25.32C21.084 26.448 20.244 27.336 19.188 27.984C18.132 28.632 16.944 28.956 15.624 28.956H5.724V39H3.42ZM5.724 26.904H15.336C16.824 26.904 18.024 26.424 18.936 25.464C19.848 24.504 20.304 23.196 20.304 21.54C20.304 20.46 20.124 19.536 19.764 18.768C19.404 17.976 18.852 17.376 18.108 16.968C17.388 16.56 16.464 16.356 15.336 16.356H5.724V26.904ZM33.7821 39.432C32.1981 39.432 30.8421 39.084 29.7141 38.388C28.6101 37.692 27.7581 36.6 27.1581 35.112C26.5821 33.624 26.2941 31.692 26.2941 29.316C26.2941 27.084 26.5941 25.26 27.1941 23.844C27.7941 22.428 28.6461 21.372 29.7501 20.676C30.8781 19.98 32.2101 19.632 33.7461 19.632C34.5621 19.632 35.3181 19.728 36.0141 19.92C36.7341 20.112 37.3821 20.424 37.9581 20.856C38.5581 21.288 39.0861 21.876 39.5421 22.62H39.7941V12.972H41.8821V39H40.2981L40.0101 36.156H39.7581C39.0861 37.284 38.2221 38.112 37.1661 38.64C36.1101 39.168 34.9821 39.432 33.7821 39.432ZM33.9621 37.596C35.3541 37.596 36.4701 37.296 37.3101 36.696C38.1741 36.096 38.7981 35.22 39.1821 34.068C39.5901 32.916 39.7941 31.512 39.7941 29.856V29.172C39.7941 27.516 39.6141 26.184 39.2541 25.176C38.9181 24.168 38.4741 23.4 37.9221 22.872C37.3701 22.32 36.7581 21.948 36.0861 21.756C35.4381 21.564 34.8021 21.468 34.1781 21.468C32.9301 21.468 31.8861 21.732 31.0461 22.26C30.2061 22.764 29.5701 23.568 29.1381 24.672C28.7061 25.776 28.4901 27.228 28.4901 29.028V30.036C28.4901 31.932 28.7181 33.432 29.1741 34.536C29.6541 35.64 30.3021 36.432 31.1181 36.912C31.9581 37.368 32.9061 37.596 33.9621 37.596Z" fill="black"/>
<path d="M75 28C82.0043 28 89.0009 28 96 28" stroke="black" stroke-width="1.3" stroke-linecap="round"/>
<path d="M89.4287 22C91.6046 24.2795 93.2011 26.0409 96.0065 27.3216C96.9867 27.7691 97.2413 27.9515 96.3491 28.9204C94.3286 31.1145 90.4565 33.6661 90.4565 37.0056" stroke="black" stroke-width="1.3" stroke-linecap="round"/>
</svg>
