<svg width="226" height="21" viewBox="0 0 226 21" fill="none" xmlns="http://www.w3.org/2000/svg">
<rect width="226" height="21" rx="10.5" fill="#D9D9D9"/>
<rect width="186" height="21" rx="10.5" fill="#8EA8BE"/>
<path d="M146.448 17C146.448 15.8893 146.59 14.8353 146.873 13.838C147.168 12.8293 147.542 11.883 147.995 10.999C148.46 10.1037 148.958 9.282 149.491 8.534C150.035 7.786 150.556 7.106 151.055 6.494H144.595V5.338H152.755V6.086C152.313 6.58467 151.86 7.14 151.395 7.752C150.942 8.35267 150.5 8.99867 150.069 9.69C149.65 10.37 149.27 11.0783 148.93 11.815C148.59 12.5403 148.318 13.277 148.114 14.025C147.921 14.7617 147.825 15.4927 147.825 16.218V17H146.448ZM157.736 17.204C157.113 17.204 156.546 17.1077 156.036 16.915C155.537 16.7223 155.112 16.3993 154.761 15.946C154.421 15.4927 154.155 14.8807 153.962 14.11C153.781 13.328 153.69 12.3477 153.69 11.169C153.69 9.99033 153.781 9.01567 153.962 8.245C154.155 7.463 154.421 6.84533 154.761 6.392C155.112 5.93867 155.537 5.61567 156.036 5.423C156.546 5.23033 157.113 5.134 157.736 5.134C158.371 5.134 158.937 5.23033 159.436 5.423C159.935 5.61567 160.354 5.93867 160.694 6.392C161.045 6.84533 161.312 7.463 161.493 8.245C161.686 9.01567 161.782 9.99033 161.782 11.169C161.782 12.3477 161.686 13.328 161.493 14.11C161.312 14.8807 161.045 15.4927 160.694 15.946C160.354 16.3993 159.935 16.7223 159.436 16.915C158.937 17.1077 158.371 17.204 157.736 17.204ZM157.736 16.167C158.45 16.167 159 15.9913 159.385 15.64C159.782 15.2887 160.065 14.773 160.235 14.093C160.405 13.4017 160.49 12.5517 160.49 11.543V10.812C160.49 9.792 160.405 8.942 160.235 8.262C160.065 7.57067 159.782 7.04933 159.385 6.698C159 6.34667 158.45 6.171 157.736 6.171C157.033 6.171 156.478 6.34667 156.07 6.698C155.673 7.04933 155.39 7.565 155.22 8.245C155.061 8.925 154.982 9.775 154.982 10.795V11.526C154.982 12.5347 155.061 13.3847 155.22 14.076C155.39 14.7673 155.673 15.2887 156.07 15.64C156.478 15.9913 157.033 16.167 157.736 16.167ZM165.492 17L173.856 5.338H175.08L166.716 17H165.492ZM166.342 11.271C165.832 11.271 165.385 11.1803 164.999 10.999C164.625 10.8063 164.336 10.489 164.132 10.047C163.94 9.605 163.843 8.993 163.843 8.211C163.843 7.41767 163.94 6.8 164.132 6.358C164.336 5.916 164.625 5.60433 164.999 5.423C165.385 5.23033 165.832 5.134 166.342 5.134C166.864 5.134 167.306 5.23033 167.668 5.423C168.042 5.60433 168.326 5.916 168.518 6.358C168.722 6.8 168.824 7.41767 168.824 8.211C168.824 8.993 168.722 9.61067 168.518 10.064C168.326 10.506 168.042 10.8177 167.668 10.999C167.306 11.1803 166.864 11.271 166.342 11.271ZM166.342 10.387C166.886 10.387 167.243 10.2057 167.413 9.843C167.595 9.48033 167.685 8.959 167.685 8.279V8.143C167.685 7.68967 167.646 7.30433 167.566 6.987C167.498 6.66967 167.368 6.43167 167.175 6.273C166.983 6.103 166.705 6.018 166.342 6.018C165.821 6.018 165.464 6.19933 165.271 6.562C165.09 6.92467 164.999 7.45167 164.999 8.143V8.279C164.999 8.959 165.09 9.48033 165.271 9.843C165.464 10.2057 165.821 10.387 166.342 10.387ZM174.247 17.204C173.726 17.204 173.278 17.1133 172.904 16.932C172.53 16.7393 172.241 16.422 172.037 15.98C171.845 15.538 171.748 14.926 171.748 14.144C171.748 13.3507 171.845 12.733 172.037 12.291C172.241 11.849 172.53 11.5373 172.904 11.356C173.278 11.1633 173.726 11.067 174.247 11.067C174.769 11.067 175.211 11.1633 175.573 11.356C175.947 11.5373 176.231 11.849 176.423 12.291C176.616 12.733 176.712 13.3507 176.712 14.144C176.712 14.926 176.616 15.5437 176.423 15.997C176.231 16.439 175.947 16.7507 175.573 16.932C175.211 17.1133 174.769 17.204 174.247 17.204ZM174.247 16.32C174.78 16.32 175.137 16.1387 175.318 15.776C175.5 15.4133 175.59 14.892 175.59 14.212V14.076C175.59 13.6227 175.551 13.2373 175.471 12.92C175.403 12.6027 175.273 12.3647 175.08 12.206C174.888 12.036 174.61 11.951 174.247 11.951C173.715 11.951 173.358 12.1323 173.176 12.495C172.995 12.8577 172.904 13.3847 172.904 14.076V14.212C172.904 14.892 172.995 15.4133 173.176 15.776C173.358 16.1387 173.715 16.32 174.247 16.32Z" fill="#202124"/>
</svg>
