<svg width="226" height="21" viewBox="0 0 226 21" fill="none" xmlns="http://www.w3.org/2000/svg">
<rect width="226" height="21" rx="10.5" fill="#D9D9D9"/>
<rect width="144" height="21" rx="10.5" fill="#8EA8BE"/>
<path d="M106.083 17.204C105.414 17.204 104.814 17.1133 104.281 16.932C103.76 16.7393 103.312 16.4277 102.938 15.997C102.575 15.555 102.298 14.9713 102.105 14.246C101.912 13.5093 101.816 12.597 101.816 11.509C101.816 10.319 101.912 9.32167 102.105 8.517C102.298 7.701 102.575 7.04367 102.938 6.545C103.301 6.04633 103.743 5.68933 104.264 5.474C104.797 5.24733 105.403 5.134 106.083 5.134C106.899 5.134 107.562 5.29267 108.072 5.61C108.582 5.916 108.956 6.341 109.194 6.885C109.432 7.41767 109.551 8.02967 109.551 8.721H108.293C108.293 8.143 108.202 7.667 108.021 7.293C107.851 6.919 107.596 6.64133 107.256 6.46C106.916 6.26733 106.497 6.171 105.998 6.171C105.239 6.171 104.649 6.36933 104.23 6.766C103.811 7.15133 103.516 7.71233 103.346 8.449C103.187 9.17433 103.102 10.0527 103.091 11.084C103.295 10.744 103.556 10.455 103.873 10.217C104.202 9.96767 104.57 9.78067 104.978 9.656C105.386 9.53133 105.805 9.469 106.236 9.469C107.097 9.469 107.8 9.639 108.344 9.979C108.899 10.3077 109.307 10.761 109.568 11.339C109.84 11.917 109.976 12.563 109.976 13.277C109.976 14.059 109.806 14.7447 109.466 15.334C109.126 15.9233 108.661 16.3823 108.072 16.711C107.494 17.0397 106.831 17.204 106.083 17.204ZM105.964 16.167C106.587 16.167 107.097 16.0367 107.494 15.776C107.902 15.504 108.202 15.147 108.395 14.705C108.599 14.263 108.701 13.7813 108.701 13.26C108.701 12.7613 108.605 12.308 108.412 11.9C108.219 11.4807 107.925 11.1463 107.528 10.897C107.143 10.6363 106.638 10.506 106.015 10.506C105.403 10.506 104.887 10.6363 104.468 10.897C104.06 11.1577 103.754 11.5033 103.55 11.934C103.346 12.3647 103.244 12.8407 103.244 13.362C103.244 13.8607 103.34 14.3253 103.533 14.756C103.737 15.1867 104.037 15.5323 104.434 15.793C104.842 16.0423 105.352 16.167 105.964 16.167ZM115.251 17.204C114.627 17.204 114.061 17.1077 113.551 16.915C113.052 16.7223 112.627 16.3993 112.276 15.946C111.936 15.4927 111.669 14.8807 111.477 14.11C111.295 13.328 111.205 12.3477 111.205 11.169C111.205 9.99033 111.295 9.01567 111.477 8.245C111.669 7.463 111.936 6.84533 112.276 6.392C112.627 5.93867 113.052 5.61567 113.551 5.423C114.061 5.23033 114.627 5.134 115.251 5.134C115.885 5.134 116.452 5.23033 116.951 5.423C117.449 5.61567 117.869 5.93867 118.209 6.392C118.56 6.84533 118.826 7.463 119.008 8.245C119.2 9.01567 119.297 9.99033 119.297 11.169C119.297 12.3477 119.2 13.328 119.008 14.11C118.826 14.8807 118.56 15.4927 118.209 15.946C117.869 16.3993 117.449 16.7223 116.951 16.915C116.452 17.1077 115.885 17.204 115.251 17.204ZM115.251 16.167C115.965 16.167 116.514 15.9913 116.9 15.64C117.296 15.2887 117.58 14.773 117.75 14.093C117.92 13.4017 118.005 12.5517 118.005 11.543V10.812C118.005 9.792 117.92 8.942 117.75 8.262C117.58 7.57067 117.296 7.04933 116.9 6.698C116.514 6.34667 115.965 6.171 115.251 6.171C114.548 6.171 113.993 6.34667 113.585 6.698C113.188 7.04933 112.905 7.565 112.735 8.245C112.576 8.925 112.497 9.775 112.497 10.795V11.526C112.497 12.5347 112.576 13.3847 112.735 14.076C112.905 14.7673 113.188 15.2887 113.585 15.64C113.993 15.9913 114.548 16.167 115.251 16.167ZM123.007 17L131.371 5.338H132.595L124.231 17H123.007ZM123.857 11.271C123.347 11.271 122.899 11.1803 122.514 10.999C122.14 10.8063 121.851 10.489 121.647 10.047C121.454 9.605 121.358 8.993 121.358 8.211C121.358 7.41767 121.454 6.8 121.647 6.358C121.851 5.916 122.14 5.60433 122.514 5.423C122.899 5.23033 123.347 5.134 123.857 5.134C124.378 5.134 124.82 5.23033 125.183 5.423C125.557 5.60433 125.84 5.916 126.033 6.358C126.237 6.8 126.339 7.41767 126.339 8.211C126.339 8.993 126.237 9.61067 126.033 10.064C125.84 10.506 125.557 10.8177 125.183 10.999C124.82 11.1803 124.378 11.271 123.857 11.271ZM123.857 10.387C124.401 10.387 124.758 10.2057 124.928 9.843C125.109 9.48033 125.2 8.959 125.2 8.279V8.143C125.2 7.68967 125.16 7.30433 125.081 6.987C125.013 6.66967 124.883 6.43167 124.69 6.273C124.497 6.103 124.22 6.018 123.857 6.018C123.336 6.018 122.979 6.19933 122.786 6.562C122.605 6.92467 122.514 7.45167 122.514 8.143V8.279C122.514 8.959 122.605 9.48033 122.786 9.843C122.979 10.2057 123.336 10.387 123.857 10.387ZM131.762 17.204C131.241 17.204 130.793 17.1133 130.419 16.932C130.045 16.7393 129.756 16.422 129.552 15.98C129.359 15.538 129.263 14.926 129.263 14.144C129.263 13.3507 129.359 12.733 129.552 12.291C129.756 11.849 130.045 11.5373 130.419 11.356C130.793 11.1633 131.241 11.067 131.762 11.067C132.283 11.067 132.725 11.1633 133.088 11.356C133.462 11.5373 133.745 11.849 133.938 12.291C134.131 12.733 134.227 13.3507 134.227 14.144C134.227 14.926 134.131 15.5437 133.938 15.997C133.745 16.439 133.462 16.7507 133.088 16.932C132.725 17.1133 132.283 17.204 131.762 17.204ZM131.762 16.32C132.295 16.32 132.652 16.1387 132.833 15.776C133.014 15.4133 133.105 14.892 133.105 14.212V14.076C133.105 13.6227 133.065 13.2373 132.986 12.92C132.918 12.6027 132.788 12.3647 132.595 12.206C132.402 12.036 132.125 11.951 131.762 11.951C131.229 11.951 130.872 12.1323 130.691 12.495C130.51 12.8577 130.419 13.3847 130.419 14.076V14.212C130.419 14.892 130.51 15.4133 130.691 15.776C130.872 16.1387 131.229 16.32 131.762 16.32Z" fill="#202124"/>
</svg>
