<svg width="60" height="60" viewBox="0 0 60 60" fill="none" xmlns="http://www.w3.org/2000/svg">
<path d="M28.25 46C28.25 46.9665 29.0335 47.75 30 47.75C30.9665 47.75 31.75 46.9665 31.75 46H28.25ZM31.2374 12.7626C30.554 12.0791 29.446 12.0791 28.7626 12.7626L17.6256 23.8995C16.9422 24.5829 16.9422 25.691 17.6256 26.3744C18.309 27.0578 19.4171 27.0578 20.1005 26.3744L30 16.4749L39.8995 26.3744C40.5829 27.0578 41.691 27.0578 42.3744 26.3744C43.0578 25.691 43.0578 24.5829 42.3744 23.8995L31.2374 12.7626ZM31.75 46L31.75 14H28.25L28.25 46H31.75Z" fill="#202124"/>
<circle cx="30" cy="30" r="29.5" stroke="#202124"/>
</svg>
