<svg width="197" height="57" viewBox="0 0 197 57" fill="none" xmlns="http://www.w3.org/2000/svg">
<path d="M0.968984 11.3938C2.00618 21.2648 3.16739 31.1231 4.53115 40.9548C4.62376 41.6224 4.99501 45.0349 5.4963 46.0288C6.62 48.2569 8.37677 41.8741 9.17813 39.5109C11.6676 32.1694 13.311 23.6826 16.996 16.8059C17.2438 16.3434 17.4269 17.7904 17.4439 18.3148C17.6541 24.7892 17.4415 31.2743 17.5021 37.7503C17.5031 37.8511 17.4959 44.4401 17.9223 45.8447C18.4589 47.6121 19.769 42.6204 20.3721 40.8746C23.4638 31.9257 26.7433 22.9182 31.139 14.5103C33.9716 9.09224 33.2303 18.0831 33.2933 19.8923C33.5657 27.7199 33.7582 35.5135 34.4507 43.3208C34.5679 44.6432 34.7489 46.4568 34.9279 47.8711C34.9709 48.2108 34.859 48.958 35.1884 48.8647C37.3497 48.2529 39.2852 39.5523 39.8888 37.9761C42.1887 31.9702 44.7233 26.0267 47.6296 20.2867C50.1913 15.227 50.1163 22.2789 50.4737 24.6659C51.6502 32.5237 52.2398 40.4142 53.184 48.2925C53.5643 51.4653 55.1863 45.7138 55.3189 45.3557C60.9085 30.2571 68.3449 15.6787 75.8047 1.43504" stroke="black" stroke-width="1.5" stroke-linecap="round"/>
<path d="M77.7875 45.4606C76.0355 45.4606 74.5355 45.1126 73.2875 44.4166C72.0635 43.6966 71.1275 42.6046 70.4795 41.1406C69.8555 39.6766 69.5435 37.8166 69.5435 35.5606C69.5435 33.2806 69.8555 31.4206 70.4795 29.9806C71.1275 28.5166 72.0755 27.4366 73.3235 26.7406C74.5955 26.0206 76.1555 25.6606 78.0035 25.6606C79.7555 25.6606 81.2195 26.0086 82.3955 26.7046C83.5715 27.4006 84.4595 28.3966 85.0595 29.6926C85.6595 30.9886 85.9595 32.5486 85.9595 34.3726V36.1006H71.7395C71.7395 37.9246 71.9795 39.4006 72.4595 40.5286C72.9635 41.6326 73.6715 42.4366 74.5835 42.9406C75.4955 43.4206 76.5875 43.6606 77.8595 43.6606C78.8915 43.6606 79.7675 43.5286 80.4875 43.2646C81.2315 42.9766 81.8315 42.6046 82.2875 42.1486C82.7675 41.6926 83.1275 41.1646 83.3675 40.5646C83.6315 39.9646 83.7755 39.3526 83.7995 38.7286H85.8155C85.7915 39.5926 85.6235 40.4326 85.3115 41.2486C84.9995 42.0406 84.5195 42.7606 83.8715 43.4086C83.2235 44.0326 82.3955 44.5366 81.3875 44.9206C80.3795 45.2806 79.1795 45.4606 77.7875 45.4606ZM71.7395 34.3366H83.7995C83.7995 33.0646 83.6435 31.9966 83.3315 31.1326C83.0435 30.2446 82.6355 29.5366 82.1075 29.0086C81.5795 28.4566 80.9555 28.0606 80.2355 27.8206C79.5155 27.5806 78.7235 27.4606 77.8595 27.4606C76.5875 27.4606 75.5075 27.7126 74.6195 28.2166C73.7555 28.6966 73.0715 29.4406 72.5675 30.4486C72.0875 31.4566 71.8115 32.7526 71.7395 34.3366ZM99.5003 45.4606C98.2043 45.4606 97.0523 45.1966 96.0443 44.6686C95.0603 44.1406 94.2203 43.3126 93.5243 42.1846H93.2723L93.0203 45.0286H91.4363V19.0006H93.5243V28.6486H93.7763C94.2083 27.9046 94.7363 27.3166 95.3603 26.8846C95.9843 26.4526 96.6563 26.1406 97.3763 25.9486C98.0963 25.7566 98.8163 25.6606 99.5363 25.6606C101.096 25.6606 102.428 26.0086 103.532 26.7046C104.636 27.4006 105.488 28.4566 106.088 29.8726C106.712 31.2886 107.024 33.1126 107.024 35.3446C107.024 37.7206 106.724 39.6526 106.124 41.1406C105.524 42.6286 104.672 43.7206 103.568 44.4166C102.464 45.1126 101.108 45.4606 99.5003 45.4606ZM99.3203 43.6246C100.376 43.6246 101.312 43.3966 102.128 42.9406C102.968 42.4606 103.616 41.6686 104.072 40.5646C104.552 39.4606 104.792 37.9606 104.792 36.0646V35.0566C104.792 33.2566 104.576 31.8046 104.144 30.7006C103.712 29.5966 103.076 28.7926 102.236 28.2886C101.396 27.7606 100.352 27.4966 99.1043 27.4966C98.4803 27.4966 97.8443 27.5926 97.1963 27.7846C96.5483 27.9766 95.9483 28.3486 95.3963 28.9006C94.8443 29.4286 94.3883 30.1966 94.0283 31.2046C93.6923 32.2126 93.5243 33.5446 93.5243 35.2006V35.8846C93.5243 37.5406 93.7163 38.9446 94.1003 40.0966C94.5083 41.2486 95.1443 42.1246 96.0083 42.7246C96.8723 43.3246 97.9763 43.6246 99.3203 43.6246ZM118.434 45.4606C117.21 45.4606 116.13 45.3406 115.194 45.1006C114.258 44.8606 113.478 44.5126 112.854 44.0566C112.23 43.5766 111.75 42.9886 111.414 42.2926C111.102 41.5726 110.946 40.7566 110.946 39.8446C110.946 39.7486 110.946 39.6406 110.946 39.5206C110.97 39.4006 110.982 39.2926 110.982 39.1966H113.07C113.046 39.3406 113.034 39.4606 113.034 39.5566C113.034 39.6286 113.034 39.7126 113.034 39.8086C113.034 40.8166 113.262 41.6086 113.718 42.1846C114.198 42.7366 114.858 43.1206 115.698 43.3366C116.538 43.5526 117.51 43.6606 118.614 43.6606C119.574 43.6606 120.426 43.5286 121.17 43.2646C121.914 42.9766 122.502 42.5686 122.934 42.0406C123.39 41.5126 123.618 40.8646 123.618 40.0966C123.618 39.1366 123.33 38.4166 122.754 37.9366C122.202 37.4326 121.482 37.0486 120.594 36.7846C119.706 36.4966 118.782 36.2206 117.822 35.9566C117.078 35.7406 116.334 35.5126 115.59 35.2726C114.846 35.0086 114.174 34.6846 113.574 34.3006C112.998 33.9166 112.53 33.4366 112.17 32.8606C111.81 32.2606 111.63 31.5166 111.63 30.6286C111.63 29.8846 111.786 29.2126 112.098 28.6126C112.41 27.9886 112.854 27.4606 113.43 27.0286C114.03 26.5726 114.75 26.2366 115.59 26.0206C116.454 25.7806 117.438 25.6606 118.542 25.6606C119.838 25.6606 120.918 25.8046 121.782 26.0926C122.67 26.3806 123.366 26.7886 123.87 27.3166C124.398 27.8206 124.77 28.3726 124.986 28.9726C125.226 29.5726 125.346 30.1966 125.346 30.8446C125.346 30.9166 125.346 31.0126 125.346 31.1326C125.346 31.2286 125.334 31.3366 125.31 31.4566H123.222V30.9166C123.222 30.4126 123.102 29.8966 122.862 29.3686C122.646 28.8406 122.19 28.3966 121.494 28.0366C120.822 27.6526 119.802 27.4606 118.434 27.4606C117.642 27.4606 116.958 27.5326 116.382 27.6766C115.806 27.8206 115.326 28.0246 114.942 28.2886C114.558 28.5286 114.258 28.8406 114.042 29.2246C113.85 29.6086 113.754 30.0646 113.754 30.5926C113.754 31.3606 113.982 31.9486 114.438 32.3566C114.918 32.7406 115.53 33.0526 116.274 33.2926C117.018 33.5086 117.81 33.7606 118.65 34.0486C119.49 34.3126 120.33 34.5766 121.17 34.8406C122.01 35.1046 122.778 35.4286 123.474 35.8126C124.17 36.1966 124.722 36.7006 125.13 37.3246C125.562 37.9486 125.778 38.7646 125.778 39.7726C125.778 40.6846 125.586 41.5006 125.202 42.2206C124.842 42.9166 124.338 43.5046 123.69 43.9846C123.042 44.4646 122.262 44.8246 121.35 45.0646C120.462 45.3286 119.49 45.4606 118.434 45.4606ZM131.266 21.9166V19.0006H133.354V21.9166H131.266ZM131.266 45.0286V26.0926H133.354V45.0286H131.266ZM143.943 45.4246C143.127 45.4246 142.479 45.2926 141.999 45.0286C141.543 44.7646 141.219 44.3806 141.027 43.8766C140.835 43.3726 140.739 42.7966 140.739 42.1486V27.9286H138.147V26.0926H140.775L141.171 20.8366H142.827V26.0926H146.607V27.9286H142.827V41.6446C142.827 42.3406 142.911 42.8446 143.079 43.1566C143.271 43.4686 143.691 43.6246 144.339 43.6246H146.607V44.9206C146.367 45.0406 146.091 45.1366 145.779 45.2086C145.467 45.2806 145.143 45.3286 144.807 45.3526C144.495 45.4006 144.207 45.4246 143.943 45.4246ZM158.675 45.4606C156.923 45.4606 155.423 45.1126 154.175 44.4166C152.951 43.6966 152.015 42.6046 151.367 41.1406C150.743 39.6766 150.431 37.8166 150.431 35.5606C150.431 33.2806 150.743 31.4206 151.367 29.9806C152.015 28.5166 152.963 27.4366 154.211 26.7406C155.483 26.0206 157.043 25.6606 158.891 25.6606C160.643 25.6606 162.107 26.0086 163.283 26.7046C164.459 27.4006 165.347 28.3966 165.947 29.6926C166.547 30.9886 166.847 32.5486 166.847 34.3726V36.1006H152.627C152.627 37.9246 152.867 39.4006 153.347 40.5286C153.851 41.6326 154.559 42.4366 155.471 42.9406C156.383 43.4206 157.475 43.6606 158.747 43.6606C159.779 43.6606 160.655 43.5286 161.375 43.2646C162.119 42.9766 162.719 42.6046 163.175 42.1486C163.655 41.6926 164.015 41.1646 164.255 40.5646C164.519 39.9646 164.663 39.3526 164.687 38.7286H166.703C166.679 39.5926 166.511 40.4326 166.199 41.2486C165.887 42.0406 165.407 42.7606 164.759 43.4086C164.111 44.0326 163.283 44.5366 162.275 44.9206C161.267 45.2806 160.067 45.4606 158.675 45.4606ZM152.627 34.3366H164.687C164.687 33.0646 164.531 31.9966 164.219 31.1326C163.931 30.2446 163.523 29.5366 162.995 29.0086C162.467 28.4566 161.843 28.0606 161.123 27.8206C160.403 27.5806 159.611 27.4606 158.747 27.4606C157.475 27.4606 156.395 27.7126 155.507 28.2166C154.643 28.6966 153.959 29.4406 153.455 30.4486C152.975 31.4566 152.699 32.7526 152.627 34.3366Z" fill="black"/>
<path d="M173.702 35.3096C180.706 35.3096 187.703 35.3096 194.702 35.3096" stroke="black" stroke-width="1.3" stroke-linecap="round"/>
<path d="M188.131 29.3096C190.307 31.5891 191.903 33.3504 194.709 34.6312C195.689 35.0787 195.943 35.2611 195.051 36.2299C193.031 38.4241 189.159 40.9756 189.159 44.3151" stroke="black" stroke-width="1.3" stroke-linecap="round"/>
</svg>
