<?xml version="1.0" encoding="UTF-8"?><svg id="Layer_1" xmlns="http://www.w3.org/2000/svg" viewBox="0 0 118.19 62.98"><defs><style>.cls-1{fill:#1d1d1b;}</style></defs><path class="cls-1" d="M.34,14.56c7.95,14.23,15.9,28.47,23.85,42.7,1.35,2.41,5.59,.78,4.57-1.93-.12-.32-.24-.63-.36-.95-.48-1.26-1.69-2.13-3.08-1.75-1.21,.33-2.23,1.81-1.75,3.08,.12,.32,.24,.63,.36,.95l4.57-1.93C20.56,40.51,12.61,26.27,4.66,12.04c-1.57-2.81-5.89-.29-4.32,2.52H.34Z"/><path class="cls-1" d="M28.15,7.61C19.75,24.82,11.34,42.03,2.94,59.24c-.59,1.21-.33,2.7,.9,3.42,1.1,.64,2.83,.32,3.42-.9C15.66,44.55,24.07,27.34,32.47,10.13c.59-1.21,.33-2.7-.9-3.42-1.1-.64-2.83-.32-3.42,.9h0Z"/><path class="cls-1" d="M34.33,22.85c-1.7,7.08-1.93,15.46,1.22,22.19,1.44,3.08,3.91,5.62,7.09,6.87s6.54,.68,9.38-.95c5.9-3.41,9.04-10.51,9.6-17.07s-1.69-14.06-8.47-16.66c-7.24-2.78-14.62,1.35-18.7,7.32-.76,1.12-.21,2.77,.9,3.42,1.24,.72,2.66,.22,3.42-.9,2.46-3.6,6.8-6.54,11.32-5.55,2.17,.47,4.04,1.63,5.13,3.59,1.18,2.11,1.49,4.73,1.47,7.11-.04,4.93-1.99,10.28-5.86,13.49-1.54,1.28-3.6,2.21-5.63,1.77-2.24-.48-3.91-2.24-4.96-4.19-1.46-2.74-1.9-6.04-2.05-9.1-.16-3.38,.16-6.72,.95-10.02s-4.07-4.46-4.82-1.33h0Z"/><path class="cls-1" d="M62.76,11.36c6.85,12.71,13.43,25.69,22.08,37.29,.81,1.08,2.16,1.63,3.42,.9,1.07-.62,1.71-2.33,.9-3.42-8.65-11.61-15.23-24.59-22.08-37.29-1.53-2.83-5.85-.31-4.32,2.52h0Z"/><path class="cls-1" d="M85.25,1.84c-6.01,16.85-11.51,33.88-16.52,51.06l4.18-1.1c-.23-.29-.46-.59-.69-.88-.83-1.06-2.66-.87-3.54,0-1.05,1.05-.83,2.47,0,3.54,.23,.29,.46,.59,.69,.88,1.21,1.55,3.7,.53,4.18-1.1,5-17.18,10.51-34.2,16.52-51.06,.45-1.27-.51-2.74-1.75-3.08-1.38-.38-2.62,.47-3.08,1.75h0Z"/><path class="cls-1" d="M94.43,18.61c-1.41,5.39-.92,11.53,1.88,16.42,1.26,2.2,3.22,4.25,5.74,4.9,2.84,.74,5.5-.39,7.68-2.16,3.99-3.24,6.82-8.34,8.04-13.28,.74-3.02,.66-6.12-1.49-8.55-1.84-2.09-4.59-3.17-7.3-3.5-6.04-.75-12.07,2.32-16.21,6.55-2.25,2.3,1.28,5.84,3.54,3.54,2.61-2.67,6.14-4.87,9.95-5.16,1.84-.14,3.68,.09,5.27,1.07,1.39,.85,1.88,2.01,1.65,3.62-.53,3.79-2.61,7.6-5.15,10.41-1.06,1.18-2.49,2.66-4.1,2.71-.54,.02-.99-.14-1.57-.56-.47-.34-1.05-1-1.41-1.57-2.44-3.79-2.82-8.82-1.7-13.1,.82-3.12-4.01-4.44-4.82-1.33h0Z"/></svg>