<?xml version="1.0" encoding="utf-8"?>
<!-- Generator: Adobe Illustrator 26.3.1, SVG Export Plug-In . SVG Version: 6.00 Build 0)  -->
<svg version="1.1" id="Layer_1" xmlns="http://www.w3.org/2000/svg" xmlns:xlink="http://www.w3.org/1999/xlink" x="0px" y="0px"
	 viewBox="0 0 500 500" style="enable-background:new 0 0 500 500;" xml:space="preserve">
<style type="text/css">
	.st0{fill:#902A8D;}
</style>
<g>
	<path class="st0" d="M418.35,242.52c0,13.82-29.34,23.6-32.75,36.34c-3.52,13.19,16.89,36.31,10.21,47.85
		c-6.78,11.71-37.06,5.54-46.57,15.05c-9.51,9.51-3.33,39.79-15.05,46.57c-11.55,6.68-34.66-13.74-47.85-10.21
		c-12.75,3.41-22.53,32.75-36.34,32.75c-13.82,0-23.6-29.34-36.34-32.75c-13.19-3.52-36.31,16.89-47.85,10.21
		c-11.71-6.78-5.54-37.06-15.05-46.57c-9.51-9.51-39.79-3.33-46.57-15.05c-6.68-11.55,13.74-34.66,10.21-47.85
		c-3.41-12.75-32.75-22.53-32.75-36.34c0-13.82,29.34-23.6,32.75-36.34c3.52-13.19-16.89-36.31-10.21-47.85
		c6.78-11.71,37.06-5.54,46.57-15.05c9.51-9.51,3.33-39.79,15.05-46.57c11.55-6.68,34.66,13.74,47.85,10.21
		c12.75-3.41,22.53-32.75,36.34-32.75c13.82,0,23.6,29.34,36.34,32.75c13.19,3.52,36.31-16.89,47.85-10.21
		c11.71,6.78,5.54,37.06,15.05,46.57s39.79,3.33,46.57,15.05c6.68,11.55-13.74,34.66-10.21,47.85
		C389.01,218.92,418.35,228.7,418.35,242.52z"/>
</g>
</svg>
