<svg width="245" height="60" viewBox="0 0 245 60" fill="none" xmlns="http://www.w3.org/2000/svg">
<rect width="245" height="60" rx="30" fill="#8EA8BE"/>
<path d="M37.51 18.894V38.672H39.314V18.894H37.51ZM28.908 20.412C25.982 20.412 23.892 23.096 23.892 27.298C23.892 31.5 25.982 34.184 28.908 34.184C31.834 34.184 33.924 31.5 33.924 27.298C33.924 23.096 31.834 20.412 28.908 20.412ZM28.908 22.04C30.822 22.04 32.186 24.108 32.186 27.298C32.186 30.51 30.822 32.578 28.908 32.578C26.972 32.578 25.608 30.51 25.608 27.298C25.608 24.108 26.972 22.04 28.908 22.04ZM54.9323 28.2C52.6443 28.574 50.7523 28.662 47.1003 28.662V25.67H53.7883V20.082H45.2743V21.556H52.0283V24.284H45.3403V30.136H46.7483C50.6863 30.136 52.6883 30.07 55.1083 29.652L54.9323 28.2ZM47.5403 33.568H58.9363V38.65H60.7623V32.094H47.5403V33.568ZM58.9363 18.916V21.82H55.0863V23.294H58.9363V25.934H55.0863V27.386H58.9363V31.038H60.7623V18.916H58.9363ZM72.7506 20.588H70.9466V24.13C70.9466 27.782 68.7026 31.588 65.8426 33.018L66.9426 34.448C69.1646 33.26 70.9906 30.774 71.8486 27.848C72.7506 30.62 74.5546 32.974 76.7986 34.096L77.8546 32.666C74.9946 31.302 72.7506 27.716 72.7506 24.13V20.588ZM80.2966 18.894V25.582H75.7206V27.056H80.2966V38.65H82.1006V18.894H80.2966ZM96.8799 25.296H106.956V28.926H96.8799V25.296ZM102.82 34.624V30.378H108.716V20.302H106.956V23.822H96.8799V20.302H95.0979V30.378H100.994V34.624H92.9859V36.098H110.872V34.624H102.82ZM116.832 27.628H123.828V20.72H115.006V22.194H122.068V26.176H115.05V33.898H116.568C120.132 33.898 122.64 33.788 125.61 33.26L125.434 31.764C122.596 32.27 120.198 32.402 116.832 32.402V27.628ZM128.756 18.872V26.484H124.994V27.958H128.756V38.65H130.56V18.872H128.756ZM136.718 21.006V22.502H143.956C143.538 27.166 140.832 30.95 135.794 33.48L136.784 34.888C143.164 31.698 145.738 26.616 145.738 21.006H136.718ZM154.01 26.902H150.842V18.894H149.038V38.628H150.842V28.398H154.01V26.902ZM158.167 21.028V22.48H165.581C165.207 27.166 162.567 30.95 157.265 33.48L158.233 34.954C164.789 31.742 167.407 26.726 167.407 21.028H158.167ZM171.389 18.894V38.628H173.193V18.894H171.389Z" fill="white"/>
<circle cx="213.5" cy="29.5" r="22.5" transform="rotate(90 213.5 29.5)" fill="#202124"/>
<path d="M201.5 28.5C200.948 28.5 200.5 28.9477 200.5 29.5C200.5 30.0523 200.948 30.5 201.5 30.5L201.5 28.5ZM226.207 30.2071C226.598 29.8166 226.598 29.1834 226.207 28.7929L219.843 22.4289C219.453 22.0384 218.819 22.0384 218.429 22.4289C218.038 22.8195 218.038 23.4526 218.429 23.8431L224.086 29.5L218.429 35.1569C218.038 35.5474 218.038 36.1805 218.429 36.5711C218.819 36.9616 219.453 36.9616 219.843 36.5711L226.207 30.2071ZM201.5 30.5L225.5 30.5L225.5 28.5L201.5 28.5L201.5 30.5Z" fill="white"/>
</svg>
